SplineFontDB: 3.2
FontName: Kilroy3W90-8ptRegular
FullName: Kilroy3W90 8pt Regular
FamilyName: Kilroy3W90 8pt
Weight: Regular
Copyright: Copyright 2020 The Roboto Serif Project Authors (https://github.com/googlefonts/RobotoSerif) OFL
Version: 1.008
ItalicAngle: 0
UnderlinePosition: -200
UnderlineWidth: 100
Ascent: 800
Descent: 200
InvalidEm: 0
sfntRevision: 0x0001020c
LayerCount: 2
Layer: 0 1 "Back" 1
Layer: 1 1 "Fore" 0
XUID: [1021 1018 -1064020043 13145]
StyleMap: 0x0040
FSType: 0
OS2Version: 4
OS2_WeightWidthSlopeOnly: 0
OS2_UseTypoMetrics: 1
CreationTime: 1586430965
ModificationTime: 1751860541
PfmFamily: 81
TTFWeight: 450
TTFWidth: 4
LineGap: 0
VLineGap: 0
Panose: 0 0 0 0 0 0 0 0 0 0
OS2TypoAscent: 927
OS2TypoAOffset: 0
OS2TypoDescent: -244
OS2TypoDOffset: 0
OS2TypoLinegap: 0
OS2WinAscent: 1048
OS2WinAOffset: 0
OS2WinDescent: 251
OS2WinDOffset: 0
HheadAscent: 927
HheadAOffset: 0
HheadDescent: -244
HheadDOffset: 0
OS2SubXSize: 650
OS2SubYSize: 600
OS2SubXOff: 0
OS2SubYOff: 75
OS2SupXSize: 650
OS2SupYSize: 600
OS2SupXOff: 0
OS2SupYOff: 350
OS2StrikeYSize: 100
OS2StrikeYPos: 311
OS2CapHeight: 710
OS2XHeight: 518
OS2Vendor: 'COMM'
OS2CodePages: 20000193.00000000
OS2UnicodeRanges: a10000ef.4000267a.00000000.00000000
Lookup: 5 0 0 "'locl' Localized Forms in Latin lookup 0" { "'locl' Localized Forms in Latin lookup 0 subtable"  } ['locl' ('latn' <'AZE ' 'CRT ' 'TRK ' > ) ]
Lookup: 1 0 0 "Single Substitution lookup 1" { "Single Substitution lookup 1 subtable"  } []
Lookup: 5 0 0 "'locl' Localized Forms in Latin lookup 2" { "'locl' Localized Forms in Latin lookup 2 subtable"  } ['locl' ('latn' <'PLK ' > ) ]
Lookup: 1 0 0 "Single Substitution lookup 3" { "Single Substitution lookup 3 subtable"  } []
Lookup: 6 0 0 "'locl' Localized Forms in Latin lookup 4" { "'locl' Localized Forms in Latin lookup 4 subtable"  } ['locl' ('latn' <'CAT ' > ) ]
Lookup: 4 0 0 "Ligature Substitution lookup 5" { "Ligature Substitution lookup 5 subtable"  } []

StartChar: .notdef
Encoding: 65536 -1 0
Width: 400
GlyphClass: 1
Flags: W
LayerCount: 2
Fore
SplineSet
0 0 m 1,0,-1
 0 700 l 1,1,-1
 400 700 l 1,2,-1
 400 0 l 1,3,-1
 0 0 l 1,0,-1
50 650 m 1,4,-1
 50 50 l 1,5,-1
 350 50 l 1,6,-1
 350 650 l 1,7,-1
 50 650 l 1,4,-1
EndSplineSet
EndChar

StartChar: A
Encoding: 65 65 6
Width: 714
GlyphClass: 2
Flags: W
AnchorPoint: "Anchor-2" 565 0 basechar 0
AnchorPoint: "Anchor-1" 357 0 basechar 0
AnchorPoint: "Anchor-0" 357 721 basechar 0
LayerCount: 2
Fore
SplineSet
208 304 m 1,0,-1
 470 304 l 1,1,-1
 487 219 l 1,2,-1
 191 219 l 1,3,-1
 208 304 l 1,0,-1
325 679 m 1,4,-1
 359 672 l 1,5,-1
 179 109 l 2,6,7
 179 103 179 103 188 97.5 c 128,-1,8
 197 92 197 92 213 89 c 128,-1,9
 229 86 229 86 250 86 c 2,10,-1
 259 86 l 1,11,-1
 259 0 l 1,12,-1
 20 0 l 1,13,-1
 20 86 l 1,14,-1
 26 86 l 2,15,16
 47 86 47 86 66 98 c 128,-1,17
 85 110 85 110 96 150 c 2,18,-1
 282 721 l 1,19,-1
 424 721 l 1,20,-1
 612 150 l 2,21,22
 624 110 624 110 644 98 c 128,-1,23
 664 86 664 86 689 86 c 2,24,-1
 695 86 l 1,25,-1
 695 0 l 1,26,-1
 425 0 l 1,27,-1
 425 86 l 1,28,-1
 434 86 l 2,29,30
 459 86 459 86 476 87.5 c 128,-1,31
 493 89 493 89 502.5 91.5 c 128,-1,32
 512 94 512 94 512 97 c 2,33,-1
 325 679 l 1,4,-1
EndSplineSet
EndChar

StartChar: Aogonek
Encoding: 260 260 15
Width: 714
GlyphClass: 1
Flags: W
LayerCount: 2
Fore
SplineSet
208 303 m 1,0,-1
 470 303 l 1,1,-1
 487 222 l 1,2,-1
 191 222 l 1,3,-1
 208 303 l 1,0,-1
563 41 m 1,4,-1
 595 4 l 1,5,6
 549 -35 549 -35 523.5 -58.5 c 128,-1,7
 498 -82 498 -82 488 -100 c 128,-1,8
 478 -118 478 -118 478 -140 c 0,9,10
 478 -159 478 -159 488.5 -170.5 c 128,-1,11
 499 -182 499 -182 522 -182 c 0,12,13
 549 -182 549 -182 569 -168.5 c 128,-1,14
 589 -155 589 -155 602 -137 c 1,15,-1
 648 -178 l 1,16,17
 622 -211 622 -211 586.5 -231.5 c 128,-1,18
 551 -252 551 -252 498 -252 c 0,19,20
 440 -252 440 -252 401 -230 c 128,-1,21
 362 -208 362 -208 362 -155 c 0,22,23
 362 -128 362 -128 370.5 -107.5 c 128,-1,24
 379 -87 379 -87 401 -67 c 128,-1,25
 423 -47 423 -47 462.5 -21.5 c 128,-1,26
 502 4 502 4 563 41 c 1,4,-1
695 0 m 1,27,-1
 544 0 l 1,28,-1
 325 680 l 1,29,-1
 355 653 l 1,30,-1
 182 109 l 2,31,32
 182 103 182 103 190.5 97.5 c 128,-1,33
 199 92 199 92 215 89 c 128,-1,34
 231 86 231 86 252 86 c 2,35,-1
 262 86 l 1,36,-1
 262 0 l 1,37,-1
 20 0 l 1,38,-1
 20 86 l 1,39,-1
 26 86 l 2,40,41
 47 86 47 86 65.5 98.5 c 128,-1,42
 84 111 84 111 96 150 c 2,43,-1
 282 722 l 1,44,-1
 424 722 l 1,45,-1
 611 150 l 2,46,47
 625 110 625 110 644 98 c 128,-1,48
 663 86 663 86 689 86 c 2,49,-1
 695 86 l 1,50,-1
 695 0 l 1,27,-1
EndSplineSet
EndChar

StartChar: Acaron
Encoding: 461 461 16
Width: 714
GlyphClass: 1
Flags: W
LayerCount: 2
Fore
SplineSet
306 803 m 1,0,-1
 386 803 l 1,1,-1
 518 958 l 1,2,-1
 518 983 l 1,3,-1
 461 983 l 1,4,-1
 283 844 l 1,5,-1
 416 848 l 1,6,-1
 240 983 l 1,7,-1
 173 983 l 1,8,-1
 173 958 l 1,9,-1
 306 803 l 1,0,-1
208 304 m 1,10,-1
 470 304 l 1,11,-1
 487 219 l 1,12,-1
 191 219 l 1,13,-1
 208 304 l 1,10,-1
325 679 m 1,14,-1
 359 672 l 1,15,-1
 179 109 l 2,16,17
 179 103 179 103 188 97.5 c 128,-1,18
 197 92 197 92 213 89 c 128,-1,19
 229 86 229 86 250 86 c 2,20,-1
 259 86 l 1,21,-1
 259 0 l 1,22,-1
 20 0 l 1,23,-1
 20 86 l 1,24,-1
 26 86 l 2,25,26
 47 86 47 86 65.5 98 c 128,-1,27
 84 110 84 110 96 150 c 2,28,-1
 282 721 l 1,29,-1
 424 721 l 1,30,-1
 612 150 l 2,31,32
 625 110 625 110 644 98 c 128,-1,33
 663 86 663 86 689 86 c 2,34,-1
 695 86 l 1,35,-1
 695 0 l 1,36,-1
 425 0 l 1,37,-1
 425 86 l 1,38,-1
 434 86 l 2,39,40
 459 86 459 86 476 87.5 c 128,-1,41
 493 89 493 89 502.5 91.5 c 128,-1,42
 512 94 512 94 512 97 c 2,43,-1
 325 679 l 1,14,-1
EndSplineSet
EndChar

StartChar: Adblgrave
Encoding: 512 512 18
Width: 714
GlyphClass: 1
Flags: W
LayerCount: 2
Fore
SplineSet
456 929 m 2,0,-1
 500 830 l 1,1,-1
 500 792 l 1,2,-1
 452 792 l 1,3,-1
 380 851 l 2,4,5
 358 869 358 869 345.5 888 c 128,-1,6
 333 907 333 907 333 930 c 0,7,8
 333 950 333 950 347.5 963.5 c 128,-1,9
 362 977 362 977 387 977 c 0,10,11
 405 977 405 977 418.5 970.5 c 128,-1,12
 432 964 432 964 441 953 c 128,-1,13
 450 942 450 942 456 929 c 2,0,-1
257 929 m 2,14,-1
 299 830 l 1,15,-1
 299 792 l 1,16,-1
 251 792 l 1,17,-1
 180 851 l 2,18,19
 157 869 157 869 144.5 888 c 128,-1,20
 132 907 132 907 132 930 c 0,21,22
 132 950 132 950 147 963.5 c 128,-1,23
 162 977 162 977 186 977 c 0,24,25
 204 977 204 977 218 970.5 c 128,-1,26
 232 964 232 964 242 953 c 128,-1,27
 252 942 252 942 257 929 c 2,14,-1
208 304 m 1,28,-1
 470 304 l 1,29,-1
 487 219 l 1,30,-1
 191 219 l 1,31,-1
 208 304 l 1,28,-1
325 679 m 1,32,-1
 359 672 l 1,33,-1
 179 109 l 2,34,35
 179 103 179 103 188 97.5 c 128,-1,36
 197 92 197 92 213 89 c 128,-1,37
 229 86 229 86 250 86 c 2,38,-1
 259 86 l 1,39,-1
 259 0 l 1,40,-1
 20 0 l 1,41,-1
 20 86 l 1,42,-1
 26 86 l 2,43,44
 47 86 47 86 65.5 98 c 128,-1,45
 84 110 84 110 96 150 c 2,46,-1
 282 721 l 1,47,-1
 424 721 l 1,48,-1
 612 150 l 2,49,50
 625 110 625 110 644 98 c 128,-1,51
 663 86 663 86 689 86 c 2,52,-1
 695 86 l 1,53,-1
 695 0 l 1,54,-1
 425 0 l 1,55,-1
 425 86 l 1,56,-1
 434 86 l 2,57,58
 459 86 459 86 476 87.5 c 128,-1,59
 493 89 493 89 502.5 91.5 c 128,-1,60
 512 94 512 94 512 97 c 2,61,-1
 325 679 l 1,32,-1
EndSplineSet
EndChar

StartChar: Ainvertedbreve
Encoding: 514 514 19
Width: 714
GlyphClass: 1
Flags: W
LayerCount: 2
Fore
SplineSet
355 934 m 0,0,1
 296 934 296 934 256 917 c 128,-1,2
 216 900 216 900 195.5 862 c 128,-1,3
 175 824 175 824 174 761 c 1,4,-1
 256 761 l 1,5,6
 258 797 258 797 267 815 c 128,-1,7
 276 833 276 833 297 840.5 c 128,-1,8
 318 848 318 848 355 848 c 0,9,10
 389 848 389 848 409 840.5 c 128,-1,11
 429 833 429 833 438.5 815 c 128,-1,12
 448 797 448 797 450 761 c 1,13,-1
 537 761 l 1,14,15
 536 824 536 824 514 862 c 128,-1,16
 492 900 492 900 451.5 917 c 128,-1,17
 411 934 411 934 355 934 c 0,0,1
208 304 m 1,18,-1
 470 304 l 1,19,-1
 487 219 l 1,20,-1
 191 219 l 1,21,-1
 208 304 l 1,18,-1
325 679 m 1,22,-1
 359 672 l 1,23,-1
 179 109 l 2,24,25
 179 103 179 103 188 97.5 c 128,-1,26
 197 92 197 92 213 89 c 128,-1,27
 229 86 229 86 250 86 c 2,28,-1
 259 86 l 1,29,-1
 259 0 l 1,30,-1
 20 0 l 1,31,-1
 20 86 l 1,32,-1
 26 86 l 2,33,34
 47 86 47 86 65.5 98 c 128,-1,35
 84 110 84 110 96 150 c 2,36,-1
 282 721 l 1,37,-1
 424 721 l 1,38,-1
 612 150 l 2,39,40
 625 110 625 110 644.5 98 c 128,-1,41
 664 86 664 86 689 86 c 2,42,-1
 695 86 l 1,43,-1
 695 0 l 1,44,-1
 425 0 l 1,45,-1
 425 86 l 1,46,-1
 434 86 l 2,47,48
 459 86 459 86 476 87.5 c 128,-1,49
 493 89 493 89 502.5 91.5 c 128,-1,50
 512 94 512 94 512 97 c 2,51,-1
 325 679 l 1,22,-1
EndSplineSet
EndChar

StartChar: B
Encoding: 66 66 32
Width: 706
GlyphClass: 2
Flags: W
AnchorPoint: "Anchor-0" 319 741 basechar 0
LayerCount: 2
Fore
SplineSet
393 710 m 2,0,1
 447 710 447 710 488 699.5 c 128,-1,2
 529 689 529 689 557 666.5 c 128,-1,3
 585 644 585 644 599 610.5 c 128,-1,4
 613 577 613 577 613 532 c 256,5,6
 613 487 613 487 592.5 451.5 c 128,-1,7
 572 416 572 416 530 396 c 128,-1,8
 488 376 488 376 426 375 c 1,9,-1
 435 394 l 1,10,-1
 435 349 l 1,11,-1
 426 371 l 1,12,13
 497 367 497 367 545 346 c 128,-1,14
 593 325 593 325 618 288 c 128,-1,15
 643 251 643 251 643 198 c 0,16,17
 643 148 643 148 627 110.5 c 128,-1,18
 611 73 611 73 580 49 c 128,-1,19
 549 25 549 25 505 12.5 c 128,-1,20
 461 0 461 0 402 0 c 2,21,-1
 56 0 l 1,22,-1
 56 86 l 1,23,-1
 66 86 l 2,24,25
 93 86 93 86 114 93 c 128,-1,26
 135 100 135 100 135 122 c 2,27,-1
 135 588 l 2,28,29
 135 610 135 610 114 617 c 128,-1,30
 93 624 93 624 66 624 c 2,31,-1
 56 624 l 1,32,-1
 56 710 l 1,33,-1
 393 710 l 2,0,1
208 413 m 1,34,-1
 383 413 l 2,35,36
 424 413 424 413 448 425 c 128,-1,37
 472 437 472 437 483.5 462 c 128,-1,38
 495 487 495 487 495 524 c 0,39,40
 495 556 495 556 484 578 c 128,-1,41
 473 600 473 600 449 612.5 c 128,-1,42
 425 625 425 625 384 625 c 2,43,-1
 250 625 l 1,44,-1
 250 85 l 1,45,-1
 393 85 l 2,46,47
 439 85 439 85 467 99 c 128,-1,48
 495 113 495 113 508.5 140 c 128,-1,49
 522 167 522 167 522 206 c 256,50,51
 522 245 522 245 507.5 273 c 128,-1,52
 493 301 493 301 462 316 c 128,-1,53
 431 331 431 331 382 331 c 2,54,-1
 208 331 l 1,55,-1
 208 413 l 1,34,-1
EndSplineSet
EndChar

StartChar: C
Encoding: 67 67 33
Width: 760
GlyphClass: 2
Flags: W
AnchorPoint: "Anchor-1" 402 0 basechar 0
AnchorPoint: "Anchor-0" 402 741 basechar 0
LayerCount: 2
Fore
SplineSet
389 647 m 0,0,1
 335 647 335 647 295.5 630.5 c 128,-1,2
 256 614 256 614 230.5 578.5 c 128,-1,3
 205 543 205 543 192.5 488 c 128,-1,4
 180 433 180 433 180 355 c 0,5,6
 180 278 180 278 193 222.5 c 128,-1,7
 206 167 206 167 232.5 131.5 c 128,-1,8
 259 96 259 96 300.5 79 c 128,-1,9
 342 62 342 62 400 62 c 0,10,11
 468 62 468 62 512 87.5 c 128,-1,12
 556 113 556 113 582.5 154.5 c 128,-1,13
 609 196 609 196 625 243 c 1,14,-1
 704 212 l 1,15,16
 682 138 682 138 640 85.5 c 128,-1,17
 598 33 598 33 536.5 4 c 128,-1,18
 475 -25 475 -25 393 -25 c 0,19,20
 317 -25 317 -25 255.5 -1 c 128,-1,21
 194 23 194 23 149.5 71 c 128,-1,22
 105 119 105 119 81.5 190 c 128,-1,23
 58 261 58 261 58 355 c 0,24,25
 58 450 58 450 81.5 521 c 128,-1,26
 105 592 105 592 149 639.5 c 128,-1,27
 193 687 193 687 253 711 c 128,-1,28
 313 735 313 735 385 735 c 0,29,30
 451 735 451 735 500.5 708 c 128,-1,31
 550 681 550 681 580 628.5 c 128,-1,32
 610 576 610 576 617 498 c 1,33,-1
 594 544 l 1,34,-1
 609 720 l 1,35,-1
 691 720 l 1,36,-1
 691 461 l 1,37,-1
 599 461 l 1,38,39
 584 516 584 516 556.5 558 c 128,-1,40
 529 600 529 600 487.5 623.5 c 128,-1,41
 446 647 446 647 389 647 c 0,0,1
EndSplineSet
EndChar

StartChar: Ccaron
Encoding: 268 268 38
Width: 760
GlyphClass: 1
Flags: W
LayerCount: 2
Fore
SplineSet
344 803 m 1,0,-1
 424 803 l 1,1,-1
 556 958 l 1,2,-1
 556 983 l 1,3,-1
 498 983 l 1,4,-1
 321 844 l 1,5,-1
 454 848 l 1,6,-1
 278 983 l 1,7,-1
 211 983 l 1,8,-1
 211 958 l 1,9,-1
 344 803 l 1,0,-1
389 647 m 0,10,11
 335 647 335 647 295.5 630.5 c 128,-1,12
 256 614 256 614 230.5 578.5 c 128,-1,13
 205 543 205 543 192.5 488 c 128,-1,14
 180 433 180 433 180 355 c 0,15,16
 180 278 180 278 193 222.5 c 128,-1,17
 206 167 206 167 232.5 131.5 c 128,-1,18
 259 96 259 96 300.5 79 c 128,-1,19
 342 62 342 62 400 62 c 0,20,21
 468 62 468 62 512 87.5 c 128,-1,22
 556 113 556 113 582.5 154.5 c 128,-1,23
 609 196 609 196 625 243 c 1,24,-1
 704 212 l 1,25,26
 682 138 682 138 640 85.5 c 128,-1,27
 598 33 598 33 536.5 4 c 128,-1,28
 475 -25 475 -25 393 -25 c 0,29,30
 317 -25 317 -25 255.5 -1 c 128,-1,31
 194 23 194 23 149.5 71 c 128,-1,32
 105 119 105 119 81.5 190 c 128,-1,33
 58 261 58 261 58 355 c 0,34,35
 58 450 58 450 81.5 521 c 128,-1,36
 105 592 105 592 149 639.5 c 128,-1,37
 193 687 193 687 253 711 c 128,-1,38
 313 735 313 735 385 735 c 0,39,40
 451 735 451 735 500.5 708 c 128,-1,41
 550 681 550 681 580 628.5 c 128,-1,42
 610 576 610 576 617 498 c 1,43,-1
 594 544 l 1,44,-1
 609 720 l 1,45,-1
 691 720 l 1,46,-1
 691 461 l 1,47,-1
 599 461 l 1,48,49
 584 516 584 516 556.5 558 c 128,-1,50
 529 600 529 600 487.5 623.5 c 128,-1,51
 446 647 446 647 389 647 c 0,10,11
EndSplineSet
EndChar

StartChar: D
Encoding: 68 68 40
Width: 788
GlyphClass: 2
Flags: W
AnchorPoint: "Anchor-1" 396 0 basechar 0
AnchorPoint: "Anchor-0" 396 741 basechar 0
LayerCount: 2
Fore
SplineSet
56 624 m 1,0,-1
 56 710 l 1,1,-1
 363 710 l 2,2,3
 449 710 449 710 517.5 688.5 c 128,-1,4
 586 667 586 667 633.5 624 c 128,-1,5
 681 581 681 581 705.5 515 c 128,-1,6
 730 449 730 449 730 359 c 0,7,8
 730 270 730 270 705.5 202.5 c 128,-1,9
 681 135 681 135 633.5 90.5 c 128,-1,10
 586 46 586 46 517.5 23 c 128,-1,11
 449 0 449 0 363 0 c 2,12,-1
 56 0 l 1,13,-1
 56 86 l 1,14,-1
 66 86 l 2,15,16
 93 86 93 86 114 93 c 128,-1,17
 135 100 135 100 135 122 c 2,18,-1
 135 588 l 2,19,20
 135 610 135 610 114 617 c 128,-1,21
 93 624 93 624 66 624 c 2,22,-1
 56 624 l 1,0,-1
359 624 m 2,23,-1
 250 624 l 1,24,-1
 250 86 l 1,25,-1
 359 86 l 2,26,27
 422 86 422 86 469 102.5 c 128,-1,28
 516 119 516 119 547 153 c 128,-1,29
 578 187 578 187 593 238 c 128,-1,30
 608 289 608 289 608 359 c 256,31,32
 608 429 608 429 593 479 c 128,-1,33
 578 529 578 529 547 561 c 128,-1,34
 516 593 516 593 469 608.5 c 128,-1,35
 422 624 422 624 359 624 c 2,23,-1
EndSplineSet
EndChar

StartChar: Dcaron
Encoding: 270 270 41
Width: 788
GlyphClass: 1
Flags: W
LayerCount: 2
Fore
SplineSet
346 803 m 1,0,-1
 427 803 l 1,1,-1
 559 958 l 1,2,-1
 559 983 l 1,3,-1
 501 983 l 1,4,-1
 323 844 l 1,5,-1
 456 848 l 1,6,-1
 281 983 l 1,7,-1
 213 983 l 1,8,-1
 213 958 l 1,9,-1
 346 803 l 1,0,-1
56 624 m 1,10,-1
 56 710 l 1,11,-1
 363 710 l 2,12,13
 449 710 449 710 517.5 688.5 c 128,-1,14
 586 667 586 667 633.5 624 c 128,-1,15
 681 581 681 581 705.5 515 c 128,-1,16
 730 449 730 449 730 359 c 0,17,18
 730 270 730 270 705.5 202.5 c 128,-1,19
 681 135 681 135 633.5 90.5 c 128,-1,20
 586 46 586 46 517.5 23 c 128,-1,21
 449 0 449 0 363 0 c 2,22,-1
 56 0 l 1,23,-1
 56 86 l 1,24,-1
 66 86 l 2,25,26
 93 86 93 86 114 93 c 128,-1,27
 135 100 135 100 135 122 c 2,28,-1
 135 588 l 2,29,30
 135 610 135 610 114 617 c 128,-1,31
 93 624 93 624 66 624 c 2,32,-1
 56 624 l 1,10,-1
359 624 m 2,33,-1
 250 624 l 1,34,-1
 250 86 l 1,35,-1
 359 86 l 2,36,37
 422 86 422 86 469 102.5 c 128,-1,38
 516 119 516 119 547 153 c 128,-1,39
 578 187 578 187 593 238 c 128,-1,40
 608 289 608 289 608 359 c 256,41,42
 608 429 608 429 593 479 c 128,-1,43
 578 529 578 529 547 561 c 128,-1,44
 516 593 516 593 469 608.5 c 128,-1,45
 422 624 422 624 359 624 c 2,33,-1
EndSplineSet
EndChar

StartChar: E
Encoding: 69 69 44
Width: 695
GlyphClass: 2
Flags: W
AnchorPoint: "Anchor-2" 480 0 basechar 0
AnchorPoint: "Anchor-1" 411 0 basechar 0
AnchorPoint: "Anchor-0" 411 741 basechar 0
LayerCount: 2
Fore
SplineSet
626 226 m 1,0,-1
 626 0 l 1,1,-1
 56 0 l 1,2,-1
 56 86 l 1,3,-1
 66 86 l 2,4,5
 93 86 93 86 114 93 c 128,-1,6
 135 100 135 100 135 122 c 2,7,-1
 135 588 l 2,8,9
 135 610 135 610 114 617 c 128,-1,10
 93 624 93 624 66 624 c 2,11,-1
 56 624 l 1,12,-1
 56 710 l 1,13,-1
 607 710 l 1,14,-1
 607 509 l 1,15,-1
 524 509 l 1,16,-1
 512 579 l 2,17,18
 509 597 509 597 497 606.5 c 128,-1,19
 485 616 485 616 461 620 c 128,-1,20
 437 624 437 624 398 624 c 2,21,-1
 250 624 l 1,22,-1
 250 86 l 1,23,-1
 411 86 l 2,24,25
 440 86 440 86 461.5 88 c 128,-1,26
 483 90 483 90 497 95 c 128,-1,27
 511 100 511 100 517.5 109 c 128,-1,28
 524 118 524 118 526 131 c 2,29,-1
 540 226 l 1,30,-1
 626 226 l 1,0,-1
234 405 m 1,31,32
 281 408 281 408 327 410.5 c 128,-1,33
 373 413 373 413 419.5 416 c 128,-1,34
 466 419 466 419 512 421 c 1,35,-1
 512 309 l 1,36,37
 466 312 466 312 420 315 c 128,-1,38
 374 318 374 318 327.5 320.5 c 128,-1,39
 281 323 281 323 234 325 c 1,40,-1
 234 405 l 1,31,32
EndSplineSet
Substitution2: "'ss01' Style Set 1 lookup 61 subtable" E.alt
EndChar

StartChar: Ecaron
Encoding: 282 282 53
Width: 695
GlyphClass: 1
Flags: W
LayerCount: 2
Fore
SplineSet
318 803 m 1,0,-1
 398 803 l 1,1,-1
 530 958 l 1,2,-1
 530 983 l 1,3,-1
 473 983 l 1,4,-1
 295 844 l 1,5,-1
 428 848 l 1,6,-1
 253 983 l 1,7,-1
 185 983 l 1,8,-1
 185 958 l 1,9,-1
 318 803 l 1,0,-1
626 226 m 1,10,-1
 626 0 l 1,11,-1
 56 0 l 1,12,-1
 56 86 l 1,13,-1
 66 86 l 2,14,15
 93 86 93 86 114 93 c 128,-1,16
 135 100 135 100 135 122 c 2,17,-1
 135 588 l 2,18,19
 135 610 135 610 114 617 c 128,-1,20
 93 624 93 624 66 624 c 2,21,-1
 56 624 l 1,22,-1
 56 710 l 1,23,-1
 607 710 l 1,24,-1
 607 509 l 1,25,-1
 524 509 l 1,26,-1
 512 579 l 2,27,28
 509 597 509 597 497 606.5 c 128,-1,29
 485 616 485 616 461 620 c 128,-1,30
 437 624 437 624 398 624 c 2,31,-1
 250 624 l 1,32,-1
 250 86 l 1,33,-1
 411 86 l 2,34,35
 440 86 440 86 461.5 88 c 128,-1,36
 483 90 483 90 497 95 c 128,-1,37
 511 100 511 100 517.5 109 c 128,-1,38
 524 118 524 118 526 131 c 2,39,-1
 540 226 l 1,40,-1
 626 226 l 1,10,-1
234 405 m 1,41,42
 281 408 281 408 327 410.5 c 128,-1,43
 373 413 373 413 419.5 416 c 128,-1,44
 466 419 466 419 512 421 c 1,45,-1
 512 309 l 1,46,47
 466 312 466 312 420 315 c 128,-1,48
 374 318 374 318 327.5 320.5 c 128,-1,49
 281 323 281 323 234 325 c 1,50,-1
 234 405 l 1,41,42
EndSplineSet
Substitution2: "'ss01' Style Set 1 lookup 61 subtable" Ecaron.alt
EndChar

StartChar: Edblgrave
Encoding: 516 516 54
Width: 695
GlyphClass: 1
Flags: W
LayerCount: 2
Fore
SplineSet
441 929 m 2,0,-1
 485 830 l 1,1,-1
 485 792 l 1,2,-1
 437 792 l 1,3,-1
 365 851 l 2,4,5
 343 869 343 869 330.5 888 c 128,-1,6
 318 907 318 907 318 930 c 0,7,8
 318 950 318 950 332.5 963.5 c 128,-1,9
 347 977 347 977 372 977 c 0,10,11
 390 977 390 977 403.5 970.5 c 128,-1,12
 417 964 417 964 426 953 c 128,-1,13
 435 942 435 942 441 929 c 2,0,-1
242 929 m 2,14,-1
 284 830 l 1,15,-1
 284 792 l 1,16,-1
 236 792 l 1,17,-1
 165 851 l 2,18,19
 142 869 142 869 129.5 888 c 128,-1,20
 117 907 117 907 117 930 c 0,21,22
 117 950 117 950 132 963.5 c 128,-1,23
 147 977 147 977 171 977 c 0,24,25
 190 977 190 977 203.5 970.5 c 128,-1,26
 217 964 217 964 227 953 c 128,-1,27
 237 942 237 942 242 929 c 2,14,-1
626 226 m 1,28,-1
 626 0 l 1,29,-1
 56 0 l 1,30,-1
 56 86 l 1,31,-1
 66 86 l 2,32,33
 93 86 93 86 114 93 c 128,-1,34
 135 100 135 100 135 122 c 2,35,-1
 135 588 l 2,36,37
 135 610 135 610 114 617 c 128,-1,38
 93 624 93 624 66 624 c 2,39,-1
 56 624 l 1,40,-1
 56 710 l 1,41,-1
 607 710 l 1,42,-1
 607 509 l 1,43,-1
 524 509 l 1,44,-1
 512 579 l 2,45,46
 509 597 509 597 497 606.5 c 128,-1,47
 485 616 485 616 461 620 c 128,-1,48
 437 624 437 624 398 624 c 2,49,-1
 250 624 l 1,50,-1
 250 86 l 1,51,-1
 411 86 l 2,52,53
 441 86 441 86 462 88 c 128,-1,54
 483 90 483 90 497 95 c 128,-1,55
 511 100 511 100 517.5 109 c 128,-1,56
 524 118 524 118 526 131 c 2,57,-1
 540 226 l 1,58,-1
 626 226 l 1,28,-1
234 405 m 1,59,60
 281 408 281 408 327 410.5 c 128,-1,61
 373 413 373 413 419.5 416 c 128,-1,62
 466 419 466 419 512 421 c 1,63,-1
 512 309 l 1,64,65
 466 312 466 312 419.5 314.5 c 128,-1,66
 373 317 373 317 327 320 c 128,-1,67
 281 323 281 323 234 325 c 1,68,-1
 234 405 l 1,59,60
EndSplineSet
Substitution2: "'ss01' Style Set 1 lookup 61 subtable" Edblgrave.alt
EndChar

StartChar: Einvertedbreve
Encoding: 518 518 55
Width: 695
GlyphClass: 1
Flags: W
LayerCount: 2
Fore
SplineSet
341 934 m 0,0,1
 282 934 282 934 242.5 917 c 128,-1,2
 203 900 203 900 182 862 c 128,-1,3
 161 824 161 824 160 761 c 1,4,-1
 242 761 l 1,5,6
 244 797 244 797 253 815.5 c 128,-1,7
 262 834 262 834 283 841 c 128,-1,8
 304 848 304 848 340 848 c 0,9,10
 375 848 375 848 395 840.5 c 128,-1,11
 415 833 415 833 424.5 815 c 128,-1,12
 434 797 434 797 436 761 c 1,13,-1
 523 761 l 1,14,15
 522 824 522 824 500 862 c 128,-1,16
 478 900 478 900 437.5 917 c 128,-1,17
 397 934 397 934 341 934 c 0,0,1
626 226 m 1,18,-1
 626 0 l 1,19,-1
 56 0 l 1,20,-1
 56 86 l 1,21,-1
 66 86 l 2,22,23
 93 86 93 86 114 93 c 128,-1,24
 135 100 135 100 135 122 c 2,25,-1
 135 588 l 2,26,27
 135 610 135 610 114 617 c 128,-1,28
 93 624 93 624 66 624 c 2,29,-1
 56 624 l 1,30,-1
 56 710 l 1,31,-1
 607 710 l 1,32,-1
 607 509 l 1,33,-1
 524 509 l 1,34,-1
 512 579 l 2,35,36
 509 597 509 597 497 606.5 c 128,-1,37
 485 616 485 616 461 620 c 128,-1,38
 437 624 437 624 398 624 c 2,39,-1
 250 624 l 1,40,-1
 250 86 l 1,41,-1
 411 86 l 2,42,43
 441 86 441 86 462 88 c 128,-1,44
 483 90 483 90 497 95 c 128,-1,45
 511 100 511 100 517.5 109 c 128,-1,46
 524 118 524 118 526 131 c 2,47,-1
 540 226 l 1,48,-1
 626 226 l 1,18,-1
234 405 m 1,49,50
 281 408 281 408 327 410.5 c 128,-1,51
 373 413 373 413 419.5 416 c 128,-1,52
 466 419 466 419 512 421 c 1,53,-1
 512 309 l 1,54,55
 466 312 466 312 419.5 314.5 c 128,-1,56
 373 317 373 317 327 320 c 128,-1,57
 281 323 281 323 234 325 c 1,58,-1
 234 405 l 1,49,50
EndSplineSet
Substitution2: "'ss01' Style Set 1 lookup 61 subtable" Einvertedbreve.alt
EndChar

StartChar: F
Encoding: 70 70 67
Width: 668
GlyphClass: 2
Flags: W
AnchorPoint: "Anchor-0" 312 741 basechar 0
LayerCount: 2
Fore
SplineSet
250 624 m 1,0,-1
 250 96 l 2,1,2
 250 93 250 93 257.5 91.5 c 128,-1,3
 265 90 265 90 277.5 88.5 c 128,-1,4
 290 87 290 87 306 86.5 c 128,-1,5
 322 86 322 86 339 86 c 2,6,-1
 357 86 l 1,7,-1
 357 0 l 1,8,-1
 56 0 l 1,9,-1
 56 86 l 1,10,-1
 66 86 l 2,11,12
 93 86 93 86 114 93 c 128,-1,13
 135 100 135 100 135 122 c 2,14,-1
 135 588 l 2,15,16
 135 610 135 610 114 617 c 128,-1,17
 93 624 93 624 66 624 c 2,18,-1
 56 624 l 1,19,-1
 56 710 l 1,20,-1
 607 710 l 1,21,-1
 607 505 l 1,22,-1
 523 505 l 1,23,-1
 511 579 l 2,24,25
 508 597 508 597 496 606.5 c 128,-1,26
 484 616 484 616 459.5 620 c 128,-1,27
 435 624 435 624 397 624 c 2,28,-1
 250 624 l 1,0,-1
234 395 m 1,29,30
 281 398 281 398 327 400.5 c 128,-1,31
 373 403 373 403 419.5 406 c 128,-1,32
 466 409 466 409 512 411 c 1,33,-1
 512 299 l 1,34,35
 466 302 466 302 420 304.5 c 128,-1,36
 374 307 374 307 327.5 310 c 128,-1,37
 281 313 281 313 234 315 c 1,38,-1
 234 395 l 1,29,30
EndSplineSet
Substitution2: "'ss01' Style Set 1 lookup 61 subtable" F.alt
EndChar

StartChar: G
Encoding: 71 71 68
Width: 810
GlyphClass: 2
Flags: W
AnchorPoint: "Anchor-1" 413 0 basechar 0
AnchorPoint: "Anchor-0" 413 741 basechar 0
LayerCount: 2
Fore
SplineSet
686 224 m 2,0,-1
 686 97 l 1,1,2
 671 78 671 78 644.5 56.5 c 128,-1,3
 618 35 618 35 581 16.5 c 128,-1,4
 544 -2 544 -2 498.5 -13.5 c 128,-1,5
 453 -25 453 -25 400 -25 c 0,6,7
 322 -25 322 -25 258.5 -1 c 128,-1,8
 195 23 195 23 150.5 71 c 128,-1,9
 106 119 106 119 82 190 c 128,-1,10
 58 261 58 261 58 355 c 0,11,12
 58 450 58 450 83 521 c 128,-1,13
 108 592 108 592 154 639.5 c 128,-1,14
 200 687 200 687 260.5 711 c 128,-1,15
 321 735 321 735 392 735 c 0,16,17
 458 735 458 735 504.5 710.5 c 128,-1,18
 551 686 551 686 579 639.5 c 128,-1,19
 607 593 607 593 617 524 c 1,20,-1
 594 571 l 1,21,-1
 608 720 l 1,22,-1
 690 720 l 1,23,-1
 690 489 l 1,24,-1
 605 489 l 1,25,26
 589 532 589 532 560.5 568.5 c 128,-1,27
 532 605 532 605 491.5 626.5 c 128,-1,28
 451 648 451 648 397 648 c 0,29,30
 344 648 344 648 304 631 c 128,-1,31
 264 614 264 614 236.5 578 c 128,-1,32
 209 542 209 542 194.5 486.5 c 128,-1,33
 180 431 180 431 180 355 c 256,34,35
 180 279 180 279 194.5 223 c 128,-1,36
 209 167 209 167 237 131.5 c 128,-1,37
 265 96 265 96 306.5 79 c 128,-1,38
 348 62 348 62 403 62 c 0,39,40
 453 62 453 62 487 73 c 128,-1,41
 521 84 521 84 543 99.5 c 128,-1,42
 565 115 565 115 576 128 c 1,43,-1
 576 224 l 2,44,45
 576 249 576 249 550 256.5 c 128,-1,46
 524 264 524 264 488 264 c 2,47,-1
 458 264 l 1,48,-1
 458 350 l 1,49,-1
 778 350 l 1,50,-1
 778 264 l 1,51,-1
 755 264 l 2,52,53
 721 264 721 264 703.5 256.5 c 128,-1,54
 686 249 686 249 686 224 c 2,0,-1
EndSplineSet
EndChar

StartChar: Gcaron
Encoding: 486 486 73
Width: 810
GlyphClass: 1
Flags: W
LayerCount: 2
Fore
SplineSet
363 803 m 1,0,-1
 444 803 l 1,1,-1
 576 958 l 1,2,-1
 576 983 l 1,3,-1
 518 983 l 1,4,-1
 340 844 l 1,5,-1
 473 848 l 1,6,-1
 298 983 l 1,7,-1
 231 983 l 1,8,-1
 231 958 l 1,9,-1
 363 803 l 1,0,-1
686 224 m 2,10,-1
 686 97 l 1,11,12
 671 78 671 78 644.5 56.5 c 128,-1,13
 618 35 618 35 581 16.5 c 128,-1,14
 544 -2 544 -2 498.5 -13.5 c 128,-1,15
 453 -25 453 -25 400 -25 c 0,16,17
 322 -25 322 -25 258.5 -1 c 128,-1,18
 195 23 195 23 150.5 71 c 128,-1,19
 106 119 106 119 82 190 c 128,-1,20
 58 261 58 261 58 355 c 0,21,22
 58 450 58 450 83 521 c 128,-1,23
 108 592 108 592 154 639.5 c 128,-1,24
 200 687 200 687 260.5 711 c 128,-1,25
 321 735 321 735 392 735 c 0,26,27
 458 735 458 735 504.5 710.5 c 128,-1,28
 551 686 551 686 579 639.5 c 128,-1,29
 607 593 607 593 617 524 c 1,30,-1
 594 571 l 1,31,-1
 608 720 l 1,32,-1
 690 720 l 1,33,-1
 690 489 l 1,34,-1
 605 489 l 1,35,36
 589 532 589 532 560.5 568.5 c 128,-1,37
 532 605 532 605 491.5 626.5 c 128,-1,38
 451 648 451 648 397 648 c 0,39,40
 344 648 344 648 304 631 c 128,-1,41
 264 614 264 614 236.5 578 c 128,-1,42
 209 542 209 542 194.5 486.5 c 128,-1,43
 180 431 180 431 180 355 c 256,44,45
 180 279 180 279 194.5 223 c 128,-1,46
 209 167 209 167 237 131.5 c 128,-1,47
 265 96 265 96 306.5 79 c 128,-1,48
 348 62 348 62 403 62 c 0,49,50
 453 62 453 62 487 73 c 128,-1,51
 521 84 521 84 543 99.5 c 128,-1,52
 565 115 565 115 576 128 c 1,53,-1
 576 224 l 2,54,55
 576 249 576 249 550 256.5 c 128,-1,56
 524 264 524 264 488 264 c 2,57,-1
 458 264 l 1,58,-1
 458 350 l 1,59,-1
 778 350 l 1,60,-1
 778 264 l 1,61,-1
 755 264 l 2,62,63
 721 264 721 264 703.5 256.5 c 128,-1,64
 686 249 686 249 686 224 c 2,10,-1
EndSplineSet
EndChar

StartChar: H
Encoding: 72 72 75
Width: 841
GlyphClass: 2
Flags: W
AnchorPoint: "Anchor-1" 421 0 basechar 0
AnchorPoint: "Anchor-0" 421 741 basechar 0
LayerCount: 2
Fore
SplineSet
218 409 m 1,0,-1
 618 409 l 1,1,-1
 618 323 l 1,2,-1
 218 323 l 1,3,-1
 218 409 l 1,0,-1
56 0 m 1,4,-1
 56 86 l 1,5,-1
 66 86 l 2,6,7
 93 86 93 86 114 93 c 128,-1,8
 135 100 135 100 135 122 c 2,9,-1
 135 588 l 2,10,11
 135 610 135 610 114 617 c 128,-1,12
 93 624 93 624 66 624 c 2,13,-1
 56 624 l 1,14,-1
 56 710 l 1,15,-1
 338 710 l 1,16,-1
 338 625 l 1,17,-1
 329 625 l 2,18,19
 317 625 317 625 303 624 c 128,-1,20
 289 623 289 623 277 621.5 c 128,-1,21
 265 620 265 620 257.5 618.5 c 128,-1,22
 250 617 250 617 250 614 c 2,23,-1
 250 95 l 2,24,25
 250 93 250 93 257.5 91.5 c 128,-1,26
 265 90 265 90 277 88.5 c 128,-1,27
 289 87 289 87 303 86.5 c 128,-1,28
 317 86 317 86 329 86 c 2,29,-1
 338 86 l 1,30,-1
 338 0 l 1,31,-1
 56 0 l 1,4,-1
503 0 m 1,32,-1
 503 85 l 1,33,-1
 512 85 l 2,34,35
 524 85 524 85 538.5 86 c 128,-1,36
 553 87 553 87 564.5 88.5 c 128,-1,37
 576 90 576 90 583.5 91.5 c 128,-1,38
 591 93 591 93 591 96 c 2,39,-1
 591 615 l 2,40,41
 591 617 591 617 583.5 618.5 c 128,-1,42
 576 620 576 620 564 621.5 c 128,-1,43
 552 623 552 623 538.5 623.5 c 128,-1,44
 525 624 525 624 512 624 c 2,45,-1
 503 624 l 1,46,-1
 503 710 l 1,47,-1
 785 710 l 1,48,-1
 785 624 l 1,49,-1
 775 624 l 2,50,51
 748 624 748 624 727 617 c 128,-1,52
 706 610 706 610 706 588 c 2,53,-1
 706 122 l 2,54,55
 706 100 706 100 727 93 c 128,-1,56
 748 86 748 86 775 86 c 2,57,-1
 785 86 l 1,58,-1
 785 0 l 1,59,-1
 503 0 l 1,32,-1
EndSplineSet
EndChar

StartChar: I
Encoding: 73 73 79
Width: 411
GlyphClass: 2
Flags: W
AnchorPoint: "Anchor-2" 271 0 basechar 0
AnchorPoint: "Anchor-1" 206 0 basechar 0
AnchorPoint: "Anchor-0" 206 741 basechar 0
LayerCount: 2
Fore
SplineSet
148 122 m 2,0,-1
 148 588 l 2,1,2
 148 610 148 610 126.5 617 c 128,-1,3
 105 624 105 624 74 624 c 2,4,-1
 55 624 l 1,5,-1
 55 710 l 1,6,-1
 355 710 l 1,7,-1
 355 624 l 1,8,-1
 336 624 l 2,9,10
 306 624 306 624 284.5 617 c 128,-1,11
 263 610 263 610 263 588 c 2,12,-1
 263 122 l 2,13,14
 263 100 263 100 284.5 93 c 128,-1,15
 306 86 306 86 336 86 c 2,16,-1
 355 86 l 1,17,-1
 355 0 l 1,18,-1
 55 0 l 1,19,-1
 55 86 l 1,20,-1
 74 86 l 2,21,22
 105 86 105 86 126.5 93 c 128,-1,23
 148 100 148 100 148 122 c 2,0,-1
EndSplineSet
EndChar

StartChar: Icaron
Encoding: 463 463 89
Width: 411
GlyphClass: 1
Flags: W
LayerCount: 2
Fore
SplineSet
165 803 m 1,0,-1
 246 803 l 1,1,-1
 378 958 l 1,2,-1
 378 983 l 1,3,-1
 320 983 l 1,4,-1
 142 844 l 1,5,-1
 275 848 l 1,6,-1
 100 983 l 1,7,-1
 33 983 l 1,8,-1
 33 958 l 1,9,-1
 165 803 l 1,0,-1
148 122 m 2,10,-1
 148 588 l 2,11,12
 148 610 148 610 126.5 617 c 128,-1,13
 105 624 105 624 74 624 c 2,14,-1
 55 624 l 1,15,-1
 55 710 l 1,16,-1
 355 710 l 1,17,-1
 355 624 l 1,18,-1
 336 624 l 2,19,20
 306 624 306 624 284.5 617 c 128,-1,21
 263 610 263 610 263 588 c 2,22,-1
 263 122 l 2,23,24
 263 100 263 100 284.5 93 c 128,-1,25
 306 86 306 86 336 86 c 2,26,-1
 355 86 l 1,27,-1
 355 0 l 1,28,-1
 55 0 l 1,29,-1
 55 86 l 1,30,-1
 74 86 l 2,31,32
 105 86 105 86 126.5 93 c 128,-1,33
 148 100 148 100 148 122 c 2,10,-1
EndSplineSet
EndChar

StartChar: Idblgrave
Encoding: 520 520 90
Width: 411
GlyphClass: 1
Flags: W
LayerCount: 2
Fore
SplineSet
304 929 m 2,0,-1
 348 830 l 1,1,-1
 348 792 l 1,2,-1
 301 792 l 1,3,-1
 229 851 l 2,4,5
 206 869 206 869 193.5 888 c 128,-1,6
 181 907 181 907 181 930 c 0,7,8
 181 950 181 950 196 963.5 c 128,-1,9
 211 977 211 977 235 977 c 0,10,11
 254 977 254 977 267 970.5 c 128,-1,12
 280 964 280 964 289 953 c 128,-1,13
 298 942 298 942 304 929 c 2,0,-1
106 929 m 2,14,-1
 147 830 l 1,15,-1
 147 792 l 1,16,-1
 100 792 l 1,17,-1
 28 851 l 2,18,19
 5 869 5 869 -7 888 c 128,-1,20
 -19 907 -19 907 -19 930 c 0,21,22
 -19 950 -19 950 -4.5 963.5 c 128,-1,23
 10 977 10 977 35 977 c 0,24,25
 53 977 53 977 67 970.5 c 128,-1,26
 81 964 81 964 90.5 953 c 128,-1,27
 100 942 100 942 106 929 c 2,14,-1
148 122 m 2,28,-1
 148 588 l 2,29,30
 148 610 148 610 126.5 617 c 128,-1,31
 105 624 105 624 74 624 c 2,32,-1
 55 624 l 1,33,-1
 55 710 l 1,34,-1
 355 710 l 1,35,-1
 355 624 l 1,36,-1
 336 624 l 2,37,38
 306 624 306 624 284.5 617 c 128,-1,39
 263 610 263 610 263 588 c 2,40,-1
 263 122 l 2,41,42
 263 100 263 100 284.5 93 c 128,-1,43
 306 86 306 86 336 86 c 2,44,-1
 355 86 l 1,45,-1
 355 0 l 1,46,-1
 55 0 l 1,47,-1
 55 86 l 1,48,-1
 74 86 l 2,49,50
 105 86 105 86 126.5 93 c 128,-1,51
 148 100 148 100 148 122 c 2,28,-1
EndSplineSet
EndChar

StartChar: Iinvertedbreve
Encoding: 522 522 91
Width: 411
GlyphClass: 1
Flags: W
LayerCount: 2
Fore
SplineSet
206 934 m 0,0,1
 147 934 147 934 107 917 c 128,-1,2
 67 900 67 900 46 862 c 128,-1,3
 25 824 25 824 24 761 c 1,4,-1
 107 761 l 1,5,6
 109 797 109 797 118 815 c 128,-1,7
 127 833 127 833 148 840.5 c 128,-1,8
 169 848 169 848 205 848 c 0,9,10
 239 848 239 848 259.5 840.5 c 128,-1,11
 280 833 280 833 289.5 815 c 128,-1,12
 299 797 299 797 301 761 c 1,13,-1
 388 761 l 1,14,15
 387 824 387 824 365 862 c 128,-1,16
 343 900 343 900 302.5 917 c 128,-1,17
 262 934 262 934 206 934 c 0,0,1
148 122 m 2,18,-1
 148 588 l 2,19,20
 148 610 148 610 126 617 c 128,-1,21
 104 624 104 624 74 624 c 2,22,-1
 55 624 l 1,23,-1
 55 710 l 1,24,-1
 355 710 l 1,25,-1
 355 624 l 1,26,-1
 336 624 l 2,27,28
 306 624 306 624 284.5 617 c 128,-1,29
 263 610 263 610 263 588 c 2,30,-1
 263 122 l 2,31,32
 263 100 263 100 284.5 93 c 128,-1,33
 306 86 306 86 336 86 c 2,34,-1
 355 86 l 1,35,-1
 355 0 l 1,36,-1
 55 0 l 1,37,-1
 55 86 l 1,38,-1
 74 86 l 2,39,40
 104 86 104 86 126 93 c 128,-1,41
 148 100 148 100 148 122 c 2,18,-1
EndSplineSet
EndChar

StartChar: J
Encoding: 74 74 94
Width: 653
GlyphClass: 2
Flags: W
AnchorPoint: "Anchor-0" 439 741 basechar 0
LayerCount: 2
Fore
SplineSet
302 710 m 1,0,-1
 609 710 l 1,1,-1
 609 624 l 1,2,-1
 589 624 l 2,3,4
 562 624 562 624 541.5 617 c 128,-1,5
 521 610 521 610 521 588 c 2,6,-1
 521 211 l 2,7,8
 521 148 521 148 502 102.5 c 128,-1,9
 483 57 483 57 449 29.5 c 128,-1,10
 415 2 415 2 368.5 -11.5 c 128,-1,11
 322 -25 322 -25 268 -25 c 0,12,13
 211 -25 211 -25 168 -11.5 c 128,-1,14
 125 2 125 2 96.5 19.5 c 128,-1,15
 68 37 68 37 51 51 c 1,16,-1
 51 228 l 1,17,-1
 176 228 l 1,18,-1
 176 43 l 1,19,20
 159 48 159 48 145.5 59.5 c 128,-1,21
 132 71 132 71 124.5 83 c 128,-1,22
 117 95 117 95 117.5 104 c 128,-1,23
 118 113 118 113 127 114 c 1,24,25
 140 102 140 102 160 90 c 128,-1,26
 180 78 180 78 206 70 c 128,-1,27
 232 62 232 62 266 62 c 0,28,29
 311 62 311 62 342 75 c 128,-1,30
 373 88 373 88 389 121 c 128,-1,31
 405 154 405 154 405 214 c 2,32,-1
 405 588 l 2,33,34
 405 603 405 603 395 610.5 c 128,-1,35
 385 618 385 618 366.5 621 c 128,-1,36
 348 624 348 624 326 624 c 2,37,-1
 302 624 l 1,38,-1
 302 710 l 1,0,-1
EndSplineSet
EndChar

StartChar: K
Encoding: 75 75 96
Width: 774
GlyphClass: 2
Flags: W
AnchorPoint: "Anchor-1" 399 0 basechar 0
AnchorPoint: "Anchor-0" 399 741 basechar 0
LayerCount: 2
Fore
SplineSet
56 0 m 1,0,-1
 56 86 l 1,1,-1
 66 86 l 2,2,3
 93 86 93 86 114 93 c 128,-1,4
 135 100 135 100 135 122 c 2,5,-1
 135 588 l 2,6,7
 135 610 135 610 114 617 c 128,-1,8
 93 624 93 624 66 624 c 2,9,-1
 56 624 l 1,10,-1
 56 710 l 1,11,-1
 335 710 l 1,12,-1
 335 624 l 1,13,-1
 326 624 l 2,14,15
 314 624 314 624 300.5 623.5 c 128,-1,16
 287 623 287 623 276 621.5 c 128,-1,17
 265 620 265 620 257.5 618.5 c 128,-1,18
 250 617 250 617 250 614 c 2,19,-1
 250 95 l 2,20,21
 250 93 250 93 257.5 91.5 c 128,-1,22
 265 90 265 90 276 88.5 c 128,-1,23
 287 87 287 87 300 86.5 c 128,-1,24
 313 86 313 86 324 86 c 2,25,-1
 333 86 l 1,26,-1
 333 0 l 1,27,-1
 56 0 l 1,0,-1
448 0 m 1,28,-1
 448 86 l 1,29,-1
 457 86 l 2,30,31
 476 86 476 86 493 87 c 128,-1,32
 510 88 510 88 521 90.5 c 128,-1,33
 532 93 532 93 532 96 c 2,34,-1
 296 345 l 1,35,-1
 296 372 l 1,36,-1
 544 613 l 2,37,38
 544 617 544 617 533.5 619 c 128,-1,39
 523 621 523 621 507 622.5 c 128,-1,40
 491 624 491 624 474 624 c 2,41,-1
 464 624 l 1,42,-1
 464 710 l 1,43,-1
 721 710 l 1,44,-1
 721 624 l 1,45,-1
 697 624 l 2,46,47
 687 624 687 624 677.5 621.5 c 128,-1,48
 668 619 668 619 657 612.5 c 128,-1,49
 646 606 646 606 635 595 c 2,50,-1
 386 355 l 1,51,-1
 386 406 l 1,52,-1
 669 108 l 2,53,54
 679 99 679 99 688.5 94 c 128,-1,55
 698 89 698 89 708 87.5 c 128,-1,56
 718 86 718 86 729 86 c 2,57,-1
 747 86 l 1,58,-1
 747 0 l 1,59,-1
 448 0 l 1,28,-1
EndSplineSet
EndChar

StartChar: L
Encoding: 76 76 98
Width: 648
GlyphClass: 2
Flags: W
AnchorPoint: "Anchor-2" 493 710 basechar 0
AnchorPoint: "Anchor-1" 397 0 basechar 0
AnchorPoint: "Anchor-0" 397 741 basechar 0
LayerCount: 2
Fore
SplineSet
350 710 m 1,0,-1
 56 710 l 1,1,-1
 56 624 l 1,2,-1
 66 624 l 2,3,4
 93 624 93 624 114 617 c 128,-1,5
 135 610 135 610 135 588 c 2,6,-1
 135 122 l 2,7,8
 135 100 135 100 114 93 c 128,-1,9
 93 86 93 86 66 86 c 2,10,-1
 56 86 l 1,11,-1
 56 0 l 1,12,-1
 600 0 l 1,13,-1
 600 239 l 1,14,-1
 514 239 l 1,15,-1
 500 131 l 2,16,17
 498 113 498 113 486 103 c 128,-1,18
 474 93 474 93 449.5 89.5 c 128,-1,19
 425 86 425 86 384 86 c 2,20,-1
 250 86 l 1,21,-1
 250 588 l 2,22,23
 250 610 250 610 274 617 c 128,-1,24
 298 624 298 624 334 624 c 2,25,-1
 350 624 l 1,26,-1
 350 710 l 1,0,-1
EndSplineSet
EndChar

StartChar: M
Encoding: 77 77 104
Width: 974
GlyphClass: 2
Flags: W
AnchorPoint: "Anchor-1" 475 0 basechar 0
LayerCount: 2
Fore
SplineSet
57 0 m 1,0,-1
 57 86 l 1,1,-1
 67 86 l 2,2,3
 85 86 85 86 100 89 c 128,-1,4
 115 92 115 92 124.5 100 c 128,-1,5
 134 108 134 108 134 122 c 2,6,-1
 134 588 l 2,7,8
 134 603 134 603 124.5 610.5 c 128,-1,9
 115 618 115 618 100 621 c 128,-1,10
 85 624 85 624 67 624 c 2,11,-1
 57 624 l 1,12,-1
 57 710 l 1,13,-1
 322 710 l 1,14,-1
 506 126 l 1,15,-1
 454 106 l 1,16,-1
 656 710 l 1,17,-1
 917 710 l 1,18,-1
 917 624 l 1,19,-1
 906 624 l 2,20,21
 880 624 880 624 858 617 c 128,-1,22
 836 610 836 610 836 588 c 2,23,-1
 836 122 l 2,24,25
 836 100 836 100 858 93 c 128,-1,26
 880 86 880 86 906 86 c 2,27,-1
 917 86 l 1,28,-1
 917 0 l 1,29,-1
 644 0 l 1,30,-1
 644 86 l 1,31,-1
 652 86 l 2,32,33
 666 86 666 86 682 87 c 128,-1,34
 698 88 698 88 710 90.5 c 128,-1,35
 722 93 722 93 722 96 c 2,36,-1
 722 692 l 1,37,-1
 745 700 l 1,38,-1
 504 -3 l 1,39,-1
 437 -3 l 1,40,-1
 207 700 l 1,41,-1
 228 690 l 1,42,-1
 228 96 l 2,43,44
 228 93 228 93 239 90.5 c 128,-1,45
 250 88 250 88 263 87 c 128,-1,46
 276 86 276 86 283 86 c 2,47,-1
 287 86 l 1,48,-1
 287 0 l 1,49,-1
 57 0 l 1,0,-1
EndSplineSet
EndChar

StartChar: N
Encoding: 78 78 106
Width: 815
GlyphClass: 2
Flags: W
AnchorPoint: "Anchor-1" 417 0 basechar 0
AnchorPoint: "Anchor-0" 417 741 basechar 0
LayerCount: 2
Fore
SplineSet
57 0 m 1,0,-1
 57 86 l 1,1,-1
 67 86 l 2,2,3
 86 86 86 86 101 89 c 128,-1,4
 116 92 116 92 125.5 100 c 128,-1,5
 135 108 135 108 135 122 c 2,6,-1
 135 588 l 2,7,8
 135 603 135 603 125.5 610.5 c 128,-1,9
 116 618 116 618 101 621 c 128,-1,10
 86 624 86 624 67 624 c 2,11,-1
 57 624 l 1,12,-1
 57 710 l 1,13,-1
 291 710 l 1,14,-1
 633 98 l 1,15,-1
 597 93 l 1,16,-1
 597 614 l 2,17,18
 597 618 597 618 585.5 620 c 128,-1,19
 574 622 574 622 559.5 623 c 128,-1,20
 545 624 545 624 534 624 c 2,21,-1
 520 624 l 1,22,-1
 520 710 l 1,23,-1
 769 710 l 1,24,-1
 769 624 l 1,25,-1
 758 624 l 2,26,27
 741 624 741 624 725.5 621 c 128,-1,28
 710 618 710 618 700.5 610.5 c 128,-1,29
 691 603 691 603 691 588 c 2,30,-1
 691 0 l 1,31,-1
 566 0 l 1,32,-1
 189 668 l 1,33,-1
 229 668 l 1,34,-1
 229 96 l 2,35,36
 229 93 229 93 240.5 90.5 c 128,-1,37
 252 88 252 88 267.5 87 c 128,-1,38
 283 86 283 86 293 86 c 2,39,-1
 306 86 l 1,40,-1
 306 0 l 1,41,-1
 57 0 l 1,0,-1
EndSplineSet
EndChar

StartChar: Ncaron
Encoding: 327 327 110
Width: 815
GlyphClass: 1
Flags: W
LayerCount: 2
Fore
SplineSet
377 803 m 1,0,-1
 457 803 l 1,1,-1
 589 958 l 1,2,-1
 589 983 l 1,3,-1
 532 983 l 1,4,-1
 354 844 l 1,5,-1
 487 848 l 1,6,-1
 312 983 l 1,7,-1
 244 983 l 1,8,-1
 244 958 l 1,9,-1
 377 803 l 1,0,-1
57 0 m 1,10,-1
 57 86 l 1,11,-1
 67 86 l 2,12,13
 86 86 86 86 101 89 c 128,-1,14
 116 92 116 92 125.5 100 c 128,-1,15
 135 108 135 108 135 122 c 2,16,-1
 135 588 l 2,17,18
 135 603 135 603 125.5 610.5 c 128,-1,19
 116 618 116 618 101 621 c 128,-1,20
 86 624 86 624 67 624 c 2,21,-1
 57 624 l 1,22,-1
 57 710 l 1,23,-1
 291 710 l 1,24,-1
 633 98 l 1,25,-1
 597 93 l 1,26,-1
 597 614 l 2,27,28
 597 618 597 618 585.5 620 c 128,-1,29
 574 622 574 622 559.5 623 c 128,-1,30
 545 624 545 624 534 624 c 2,31,-1
 520 624 l 1,32,-1
 520 710 l 1,33,-1
 769 710 l 1,34,-1
 769 624 l 1,35,-1
 758 624 l 2,36,37
 741 624 741 624 725.5 621 c 128,-1,38
 710 618 710 618 700.5 610.5 c 128,-1,39
 691 603 691 603 691 588 c 2,40,-1
 691 0 l 1,41,-1
 566 0 l 1,42,-1
 189 668 l 1,43,-1
 229 668 l 1,44,-1
 229 96 l 2,45,46
 229 93 229 93 240.5 90.5 c 128,-1,47
 252 88 252 88 267.5 87 c 128,-1,48
 283 86 283 86 293 86 c 2,49,-1
 306 86 l 1,50,-1
 306 0 l 1,51,-1
 57 0 l 1,10,-1
EndSplineSet
EndChar

StartChar: O
Encoding: 79 79 114
Width: 800
GlyphClass: 2
Flags: W
AnchorPoint: "Anchor-2" 440 0 basechar 0
AnchorPoint: "Anchor-1" 400 0 basechar 0
AnchorPoint: "Anchor-0" 400 741 basechar 0
LayerCount: 2
Fore
SplineSet
400 -25 m 0,0,1
 323 -25 323 -25 260.5 0 c 128,-1,2
 198 25 198 25 152.5 73.5 c 128,-1,3
 107 122 107 122 82.5 192.5 c 128,-1,4
 58 263 58 263 58 355 c 0,5,6
 58 448 58 448 82.5 518.5 c 128,-1,7
 107 589 107 589 152.5 637.5 c 128,-1,8
 198 686 198 686 260.5 710.5 c 128,-1,9
 323 735 323 735 400 735 c 0,10,11
 478 735 478 735 541 710.5 c 128,-1,12
 604 686 604 686 648.5 637.5 c 128,-1,13
 693 589 693 589 717.5 518.5 c 128,-1,14
 742 448 742 448 742 355 c 0,15,16
 742 263 742 263 717.5 192.5 c 128,-1,17
 693 122 693 122 648.5 73.5 c 128,-1,18
 604 25 604 25 541 0 c 128,-1,19
 478 -25 478 -25 400 -25 c 0,0,1
400 64 m 0,20,21
 455 64 455 64 496.5 81 c 128,-1,22
 538 98 538 98 565 133.5 c 128,-1,23
 592 169 592 169 606 223.5 c 128,-1,24
 620 278 620 278 620 355 c 0,25,26
 620 431 620 431 606 486 c 128,-1,27
 592 541 592 541 565 576.5 c 128,-1,28
 538 612 538 612 496.5 629 c 128,-1,29
 455 646 455 646 400 646 c 0,30,31
 346 646 346 646 304.5 629 c 128,-1,32
 263 612 263 612 235.5 576.5 c 128,-1,33
 208 541 208 541 194 486 c 128,-1,34
 180 431 180 431 180 355 c 256,35,36
 180 279 180 279 194 224 c 128,-1,37
 208 169 208 169 235.5 133.5 c 128,-1,38
 263 98 263 98 304.5 81 c 128,-1,39
 346 64 346 64 400 64 c 0,20,21
EndSplineSet
EndChar

StartChar: Ohorn
Encoding: 416 416 123
Width: 856
GlyphClass: 2
Flags: W
AnchorPoint: "Anchor-1" 425 -35 basechar 0
AnchorPoint: "Anchor-0" 425 742 basechar 0
LayerCount: 2
Fore
SplineSet
400 64 m 0,0,1
 456 64 456 64 497 80.5 c 128,-1,2
 538 97 538 97 565.5 132 c 128,-1,3
 593 167 593 167 606.5 222 c 128,-1,4
 620 277 620 277 620 355 c 256,5,6
 620 433 620 433 606.5 488 c 128,-1,7
 593 543 593 543 565.5 578 c 128,-1,8
 538 613 538 613 497 629.5 c 128,-1,9
 456 646 456 646 400 646 c 0,10,11
 345 646 345 646 303.5 629.5 c 128,-1,12
 262 613 262 613 234.5 578 c 128,-1,13
 207 543 207 543 193.5 488 c 128,-1,14
 180 433 180 433 180 355 c 256,15,16
 180 277 180 277 193.5 222 c 128,-1,17
 207 167 207 167 234.5 132 c 128,-1,18
 262 97 262 97 303.5 80.5 c 128,-1,19
 345 64 345 64 400 64 c 0,0,1
600 620 m 1,20,-1
 564 663 l 1,21,22
 603 642 603 642 635.5 613.5 c 128,-1,23
 668 585 668 585 692 548 c 128,-1,24
 716 511 716 511 729 463 c 128,-1,25
 742 415 742 415 742 354 c 0,26,27
 742 262 742 262 717.5 191 c 128,-1,28
 693 120 693 120 648.5 72 c 128,-1,29
 604 24 604 24 541 -0.5 c 128,-1,30
 478 -25 478 -25 400 -25 c 0,31,32
 324 -25 324 -25 261 -0.5 c 128,-1,33
 198 24 198 24 152.5 72 c 128,-1,34
 107 120 107 120 82.5 191 c 128,-1,35
 58 262 58 262 58 355 c 256,36,37
 58 448 58 448 82.5 519 c 128,-1,38
 107 590 107 590 152.5 638 c 128,-1,39
 198 686 198 686 261 710.5 c 128,-1,40
 324 735 324 735 400 735 c 0,41,42
 448 735 448 735 483.5 729 c 128,-1,43
 519 723 519 723 547 716.5 c 128,-1,44
 575 710 575 710 599.5 704.5 c 128,-1,45
 624 699 624 699 650 699 c 0,46,47
 679 699 679 699 699.5 711.5 c 128,-1,48
 720 724 720 724 733 749 c 128,-1,49
 746 774 746 774 753.5 811.5 c 128,-1,50
 761 849 761 849 765 898 c 1,51,-1
 871 898 l 1,52,53
 868 824 868 824 853 769.5 c 128,-1,54
 838 715 838 715 814 680 c 128,-1,55
 790 645 790 645 759.5 628 c 128,-1,56
 729 611 729 611 696 611 c 0,57,58
 678 611 678 611 660.5 614.5 c 128,-1,59
 643 618 643 618 626 624.5 c 128,-1,60
 609 631 609 631 591 640 c 128,-1,61
 573 649 573 649 554 659 c 1,62,-1
 600 657 l 1,63,-1
 600 620 l 1,20,-1
EndSplineSet
EndChar

StartChar: Ocaron
Encoding: 465 465 124
Width: 799
GlyphClass: 1
Flags: W
LayerCount: 2
Fore
SplineSet
360 803 m 1,0,-1
 440 803 l 1,1,-1
 572 958 l 1,2,-1
 572 983 l 1,3,-1
 514 983 l 1,4,-1
 336 844 l 1,5,-1
 469 848 l 1,6,-1
 294 983 l 1,7,-1
 227 983 l 1,8,-1
 227 958 l 1,9,-1
 360 803 l 1,0,-1
400 -25 m 0,10,11
 323 -25 323 -25 260.5 0 c 128,-1,12
 198 25 198 25 152.5 73.5 c 128,-1,13
 107 122 107 122 82.5 192.5 c 128,-1,14
 58 263 58 263 58 355 c 0,15,16
 58 448 58 448 82.5 518.5 c 128,-1,17
 107 589 107 589 152.5 637.5 c 128,-1,18
 198 686 198 686 260.5 710.5 c 128,-1,19
 323 735 323 735 400 735 c 0,20,21
 478 735 478 735 541 710.5 c 128,-1,22
 604 686 604 686 648.5 637.5 c 128,-1,23
 693 589 693 589 717.5 518.5 c 128,-1,24
 742 448 742 448 742 355 c 0,25,26
 742 263 742 263 717.5 192.5 c 128,-1,27
 693 122 693 122 648.5 73.5 c 128,-1,28
 604 25 604 25 541 0 c 128,-1,29
 478 -25 478 -25 400 -25 c 0,10,11
400 64 m 0,30,31
 455 64 455 64 496.5 81 c 128,-1,32
 538 98 538 98 565 133.5 c 128,-1,33
 592 169 592 169 606 224 c 128,-1,34
 620 279 620 279 620 355 c 256,35,36
 620 431 620 431 606 486 c 128,-1,37
 592 541 592 541 565 576.5 c 128,-1,38
 538 612 538 612 496.5 629 c 128,-1,39
 455 646 455 646 400 646 c 0,40,41
 346 646 346 646 304.5 629 c 128,-1,42
 263 612 263 612 235.5 576.5 c 128,-1,43
 208 541 208 541 194 486 c 128,-1,44
 180 431 180 431 180 355 c 256,45,46
 180 279 180 279 194 224 c 128,-1,47
 208 169 208 169 235.5 133.5 c 128,-1,48
 263 98 263 98 304.5 81 c 128,-1,49
 346 64 346 64 400 64 c 0,30,31
EndSplineSet
EndChar

StartChar: Oogonek
Encoding: 490 490 125
Width: 800
GlyphClass: 1
Flags: W
LayerCount: 2
Fore
SplineSet
400 64 m 0,0,1
 456 64 456 64 497 80.5 c 128,-1,2
 538 97 538 97 565.5 132 c 128,-1,3
 593 167 593 167 606.5 222 c 128,-1,4
 620 277 620 277 620 355 c 256,5,6
 620 433 620 433 606.5 488 c 128,-1,7
 593 543 593 543 565.5 578 c 128,-1,8
 538 613 538 613 497 629.5 c 128,-1,9
 456 646 456 646 400 646 c 0,10,11
 345 646 345 646 304 629.5 c 128,-1,12
 263 613 263 613 235.5 578 c 128,-1,13
 208 543 208 543 194 488 c 128,-1,14
 180 433 180 433 180 355 c 256,15,16
 180 277 180 277 194 222 c 128,-1,17
 208 167 208 167 235.5 132 c 128,-1,18
 263 97 263 97 304 80.5 c 128,-1,19
 345 64 345 64 400 64 c 0,0,1
644 71 m 0,20,21
 624 50 624 50 598 28.5 c 128,-1,22
 572 7 572 7 545 -15.5 c 128,-1,23
 518 -38 518 -38 495.5 -60 c 128,-1,24
 473 -82 473 -82 459 -103.5 c 128,-1,25
 445 -125 445 -125 445 -146 c 0,26,27
 445 -162 445 -162 455 -172 c 128,-1,28
 465 -182 465 -182 489 -182 c 0,29,30
 516 -182 516 -182 535 -168 c 128,-1,31
 554 -154 554 -154 567 -138 c 1,32,-1
 613 -182 l 1,33,34
 597 -201 597 -201 575.5 -217 c 128,-1,35
 554 -233 554 -233 526.5 -242.5 c 128,-1,36
 499 -252 499 -252 462 -252 c 0,37,38
 421 -252 421 -252 390 -242 c 128,-1,39
 359 -232 359 -232 341 -211.5 c 128,-1,40
 323 -191 323 -191 323 -160 c 0,41,42
 323 -136 323 -136 333 -116 c 128,-1,43
 343 -96 343 -96 366.5 -75 c 128,-1,44
 390 -54 390 -54 430.5 -27.5 c 128,-1,45
 471 -1 471 -1 533 37 c 1,46,-1
 521 -6 l 1,47,48
 502 -12 502 -12 482.5 -16 c 128,-1,49
 463 -20 463 -20 443 -22.5 c 128,-1,50
 423 -25 423 -25 400 -25 c 0,51,52
 324 -25 324 -25 261 -0.5 c 128,-1,53
 198 24 198 24 152.5 72 c 128,-1,54
 107 120 107 120 82.5 191 c 128,-1,55
 58 262 58 262 58 355 c 256,56,57
 58 448 58 448 82.5 519 c 128,-1,58
 107 590 107 590 152.5 638 c 128,-1,59
 198 686 198 686 261 710.5 c 128,-1,60
 324 735 324 735 400 735 c 0,61,62
 477 735 477 735 540 710.5 c 128,-1,63
 603 686 603 686 648 638 c 128,-1,64
 693 590 693 590 717.5 519 c 128,-1,65
 742 448 742 448 742 355 c 0,66,67
 742 294 742 294 730.5 241.5 c 128,-1,68
 719 189 719 189 697 146.5 c 128,-1,69
 675 104 675 104 644 71 c 0,20,21
EndSplineSet
EndChar

StartChar: Odblgrave
Encoding: 524 524 126
Width: 800
GlyphClass: 1
Flags: W
LayerCount: 2
Fore
SplineSet
501 929 m 2,0,-1
 545 830 l 1,1,-1
 545 792 l 1,2,-1
 498 792 l 1,3,-1
 426 851 l 2,4,5
 403 869 403 869 391 888 c 128,-1,6
 379 907 379 907 379 930 c 0,7,8
 379 950 379 950 393.5 963.5 c 128,-1,9
 408 977 408 977 433 977 c 0,10,11
 451 977 451 977 464 970.5 c 128,-1,12
 477 964 477 964 486 953 c 128,-1,13
 495 942 495 942 501 929 c 2,0,-1
303 929 m 2,14,-1
 344 830 l 1,15,-1
 344 792 l 1,16,-1
 297 792 l 1,17,-1
 225 851 l 2,18,19
 203 869 203 869 190.5 888 c 128,-1,20
 178 907 178 907 178 930 c 0,21,22
 178 950 178 950 192.5 963.5 c 128,-1,23
 207 977 207 977 232 977 c 0,24,25
 250 977 250 977 264 970.5 c 128,-1,26
 278 964 278 964 287.5 953 c 128,-1,27
 297 942 297 942 303 929 c 2,14,-1
400 -25 m 0,28,29
 323 -25 323 -25 260.5 0 c 128,-1,30
 198 25 198 25 152.5 73.5 c 128,-1,31
 107 122 107 122 82.5 192.5 c 128,-1,32
 58 263 58 263 58 355 c 0,33,34
 58 448 58 448 82.5 518.5 c 128,-1,35
 107 589 107 589 152.5 637.5 c 128,-1,36
 198 686 198 686 260.5 710.5 c 128,-1,37
 323 735 323 735 400 735 c 0,38,39
 478 735 478 735 541 710.5 c 128,-1,40
 604 686 604 686 648.5 637.5 c 128,-1,41
 693 589 693 589 717.5 518.5 c 128,-1,42
 742 448 742 448 742 355 c 0,43,44
 742 263 742 263 717.5 192.5 c 128,-1,45
 693 122 693 122 648.5 73.5 c 128,-1,46
 604 25 604 25 541 0 c 128,-1,47
 478 -25 478 -25 400 -25 c 0,28,29
400 64 m 0,48,49
 455 64 455 64 496.5 81 c 128,-1,50
 538 98 538 98 565 133.5 c 128,-1,51
 592 169 592 169 606 224 c 128,-1,52
 620 279 620 279 620 355 c 256,53,54
 620 431 620 431 606 486 c 128,-1,55
 592 541 592 541 565 576.5 c 128,-1,56
 538 612 538 612 496.5 629 c 128,-1,57
 455 646 455 646 400 646 c 0,58,59
 346 646 346 646 304.5 629 c 128,-1,60
 263 612 263 612 235.5 576.5 c 128,-1,61
 208 541 208 541 194 486 c 128,-1,62
 180 431 180 431 180 355 c 256,63,64
 180 279 180 279 194 224 c 128,-1,65
 208 169 208 169 235.5 133.5 c 128,-1,66
 263 98 263 98 304.5 81 c 128,-1,67
 346 64 346 64 400 64 c 0,48,49
EndSplineSet
EndChar

StartChar: Oinvertedbreve
Encoding: 526 526 127
Width: 800
GlyphClass: 1
Flags: W
LayerCount: 2
Fore
SplineSet
400 934 m 0,0,1
 341 934 341 934 301.5 917 c 128,-1,2
 262 900 262 900 241 862 c 128,-1,3
 220 824 220 824 219 761 c 1,4,-1
 301 761 l 1,5,6
 303 797 303 797 312 815 c 128,-1,7
 321 833 321 833 342 840.5 c 128,-1,8
 363 848 363 848 400 848 c 0,9,10
 434 848 434 848 454 840.5 c 128,-1,11
 474 833 474 833 483.5 815 c 128,-1,12
 493 797 493 797 495 761 c 1,13,-1
 582 761 l 1,14,15
 581 824 581 824 559 862 c 128,-1,16
 537 900 537 900 497 917 c 128,-1,17
 457 934 457 934 400 934 c 0,0,1
400 -25 m 0,18,19
 323 -25 323 -25 260.5 0 c 128,-1,20
 198 25 198 25 152.5 73.5 c 128,-1,21
 107 122 107 122 82.5 192.5 c 128,-1,22
 58 263 58 263 58 355 c 0,23,24
 58 448 58 448 82.5 518.5 c 128,-1,25
 107 589 107 589 152.5 637.5 c 128,-1,26
 198 686 198 686 260.5 710.5 c 128,-1,27
 323 735 323 735 400 735 c 0,28,29
 478 735 478 735 541 710.5 c 128,-1,30
 604 686 604 686 648.5 637.5 c 128,-1,31
 693 589 693 589 717.5 518.5 c 128,-1,32
 742 448 742 448 742 355 c 0,33,34
 742 263 742 263 717.5 192.5 c 128,-1,35
 693 122 693 122 648.5 73.5 c 128,-1,36
 604 25 604 25 541 0 c 128,-1,37
 478 -25 478 -25 400 -25 c 0,18,19
400 64 m 0,38,39
 455 64 455 64 496.5 81 c 128,-1,40
 538 98 538 98 565 133.5 c 128,-1,41
 592 169 592 169 606 224 c 128,-1,42
 620 279 620 279 620 355 c 256,43,44
 620 431 620 431 606 486 c 128,-1,45
 592 541 592 541 565 576.5 c 128,-1,46
 538 612 538 612 496.5 629 c 128,-1,47
 455 646 455 646 400 646 c 0,48,49
 346 646 346 646 304.5 629 c 128,-1,50
 263 612 263 612 235.5 576.5 c 128,-1,51
 208 541 208 541 194 486 c 128,-1,52
 180 431 180 431 180 355 c 256,53,54
 180 279 180 279 194 224 c 128,-1,55
 208 169 208 169 235.5 133.5 c 128,-1,56
 263 98 263 98 304.5 81 c 128,-1,57
 346 64 346 64 400 64 c 0,38,39
EndSplineSet
EndChar

StartChar: P
Encoding: 80 80 147
Width: 683
GlyphClass: 2
Flags: W
AnchorPoint: "Anchor-0" 319 741 basechar 0
LayerCount: 2
Fore
SplineSet
250 96 m 2,0,-1
 250 624 l 1,1,-1
 383 624 l 2,2,3
 427 624 427 624 455 609 c 128,-1,4
 483 594 483 594 497 565 c 128,-1,5
 511 536 511 536 511 493 c 256,6,7
 511 450 511 450 497 419.5 c 128,-1,8
 483 389 483 389 455 373.5 c 128,-1,9
 427 358 427 358 383 358 c 2,10,-1
 234 358 l 1,11,-1
 234 272 l 1,12,-1
 389 272 l 2,13,14
 460 272 460 272 514.5 297 c 128,-1,15
 569 322 569 322 599.5 372.5 c 128,-1,16
 630 423 630 423 630 498 c 0,17,18
 630 606 630 606 565.5 658 c 128,-1,19
 501 710 501 710 389 710 c 2,20,-1
 56 710 l 1,21,-1
 56 625 l 1,22,-1
 66 625 l 2,23,24
 93 625 93 625 114 618 c 128,-1,25
 135 611 135 611 135 589 c 2,26,-1
 135 121 l 2,27,28
 135 99 135 99 114 92 c 128,-1,29
 93 85 93 85 66 85 c 2,30,-1
 56 85 l 1,31,-1
 56 0 l 1,32,-1
 357 0 l 1,33,-1
 357 86 l 1,34,-1
 337 86 l 2,35,36
 320 86 320 86 304.5 86.5 c 128,-1,37
 289 87 289 87 277 88.5 c 128,-1,38
 265 90 265 90 257.5 91.5 c 128,-1,39
 250 93 250 93 250 96 c 2,0,-1
EndSplineSet
EndChar

StartChar: Q
Encoding: 81 81 148
Width: 800
GlyphClass: 1
Flags: W
LayerCount: 2
Fore
SplineSet
354 -3 m 1,0,-1
 445 12 l 1,1,2
 447 -47 447 -47 460.5 -81 c 128,-1,3
 474 -115 474 -115 503.5 -130 c 128,-1,4
 533 -145 533 -145 581 -145 c 0,5,6
 613 -145 613 -145 640.5 -141 c 128,-1,7
 668 -137 668 -137 693 -130.5 c 128,-1,8
 718 -124 718 -124 740 -118 c 1,9,-1
 740 -228 l 1,10,11
 710 -234 710 -234 669.5 -238.5 c 128,-1,12
 629 -243 629 -243 589 -243 c 0,13,14
 510 -243 510 -243 457.5 -216.5 c 128,-1,15
 405 -190 405 -190 379.5 -136 c 128,-1,16
 354 -82 354 -82 354 -3 c 1,0,-1
400 -25 m 0,17,18
 323 -25 323 -25 260.5 0 c 128,-1,19
 198 25 198 25 152.5 73.5 c 128,-1,20
 107 122 107 122 82.5 192.5 c 128,-1,21
 58 263 58 263 58 355 c 0,22,23
 58 448 58 448 82.5 518.5 c 128,-1,24
 107 589 107 589 152.5 637.5 c 128,-1,25
 198 686 198 686 260.5 710.5 c 128,-1,26
 323 735 323 735 400 735 c 0,27,28
 478 735 478 735 541 710.5 c 128,-1,29
 604 686 604 686 648.5 637.5 c 128,-1,30
 693 589 693 589 717.5 518.5 c 128,-1,31
 742 448 742 448 742 355 c 0,32,33
 742 263 742 263 717.5 192.5 c 128,-1,34
 693 122 693 122 648.5 73.5 c 128,-1,35
 604 25 604 25 541 0 c 128,-1,36
 478 -25 478 -25 400 -25 c 0,17,18
400 64 m 0,37,38
 455 64 455 64 497.5 81 c 128,-1,39
 540 98 540 98 568.5 133.5 c 128,-1,40
 597 169 597 169 612.5 223.5 c 128,-1,41
 628 278 628 278 629 355 c 0,42,43
 630 431 630 431 615 486 c 128,-1,44
 600 541 600 541 570.5 576.5 c 128,-1,45
 541 612 541 612 498 629 c 128,-1,46
 455 646 455 646 400 646 c 0,47,48
 346 646 346 646 304.5 629 c 128,-1,49
 263 612 263 612 235.5 576.5 c 128,-1,50
 208 541 208 541 194 486 c 128,-1,51
 180 431 180 431 180 355 c 256,52,53
 180 279 180 279 194 224 c 128,-1,54
 208 169 208 169 235.5 133.5 c 128,-1,55
 263 98 263 98 304.5 81 c 128,-1,56
 346 64 346 64 400 64 c 0,37,38
EndSplineSet
EndChar

StartChar: R
Encoding: 82 82 149
Width: 750
GlyphClass: 2
Flags: W
AnchorPoint: "Anchor-1" 420 0 basechar 0
AnchorPoint: "Anchor-0" 420 741 basechar 0
LayerCount: 2
Fore
SplineSet
383 321 m 1,0,-1
 557 0 l 1,1,-1
 718 0 l 1,2,-1
 718 86 l 1,3,-1
 709 86 l 2,4,5
 687 86 687 86 669.5 90.5 c 128,-1,6
 652 95 652 95 637 108.5 c 128,-1,7
 622 122 622 122 607 147 c 2,8,-1
 480 371 l 1,9,-1
 383 321 l 1,0,-1
250 96 m 2,10,-1
 250 625 l 1,11,-1
 385 625 l 2,12,13
 432 625 432 625 462 611.5 c 128,-1,14
 492 598 492 598 506.5 572 c 128,-1,15
 521 546 521 546 521 508 c 0,16,17
 521 469 521 469 506.5 438 c 128,-1,18
 492 407 492 407 461 389.5 c 128,-1,19
 430 372 430 372 380 372 c 2,20,-1
 237 372 l 1,21,-1
 237 289 l 1,22,-1
 423 289 l 2,23,24
 427 290 427 290 430 292.5 c 128,-1,25
 433 295 433 295 437.5 299.5 c 128,-1,26
 442 304 442 304 449 309 c 0,27,28
 505 322 505 322 546 349 c 128,-1,29
 587 376 587 376 610 419 c 128,-1,30
 633 462 633 462 633 519 c 0,31,32
 633 583 633 583 604 625.5 c 128,-1,33
 575 668 575 668 522 689 c 128,-1,34
 469 710 469 710 392 710 c 2,35,-1
 56 710 l 1,36,-1
 56 624 l 1,37,-1
 66 624 l 2,38,39
 93 624 93 624 114 617 c 128,-1,40
 135 610 135 610 135 588 c 2,41,-1
 135 122 l 2,42,43
 135 100 135 100 114 93 c 128,-1,44
 93 86 93 86 66 86 c 2,45,-1
 56 86 l 1,46,-1
 56 0 l 1,47,-1
 355 0 l 1,48,-1
 355 86 l 1,49,-1
 337 86 l 2,50,51
 320 86 320 86 304.5 86.5 c 128,-1,52
 289 87 289 87 277 88.5 c 128,-1,53
 265 90 265 90 257.5 91.5 c 128,-1,54
 250 93 250 93 250 96 c 2,10,-1
EndSplineSet
EndChar

StartChar: Rcaron
Encoding: 344 344 152
Width: 750
GlyphClass: 1
Flags: W
LayerCount: 2
Fore
SplineSet
323 803 m 1,0,-1
 403 803 l 1,1,-1
 535 958 l 1,2,-1
 535 983 l 1,3,-1
 477 983 l 1,4,-1
 300 844 l 1,5,-1
 433 848 l 1,6,-1
 257 983 l 1,7,-1
 190 983 l 1,8,-1
 190 958 l 1,9,-1
 323 803 l 1,0,-1
383 321 m 1,10,-1
 557 0 l 1,11,-1
 718 0 l 1,12,-1
 718 86 l 1,13,-1
 709 86 l 2,14,15
 687 86 687 86 669.5 90.5 c 128,-1,16
 652 95 652 95 637 108.5 c 128,-1,17
 622 122 622 122 607 147 c 2,18,-1
 480 371 l 1,19,-1
 383 321 l 1,10,-1
250 96 m 2,20,-1
 250 625 l 1,21,-1
 385 625 l 2,22,23
 432 625 432 625 462 611.5 c 128,-1,24
 492 598 492 598 506.5 572 c 128,-1,25
 521 546 521 546 521 508 c 0,26,27
 521 469 521 469 506.5 438 c 128,-1,28
 492 407 492 407 461 389.5 c 128,-1,29
 430 372 430 372 380 372 c 2,30,-1
 237 372 l 1,31,-1
 237 289 l 1,32,-1
 423 289 l 2,33,34
 427 290 427 290 430 292.5 c 128,-1,35
 433 295 433 295 437.5 299.5 c 128,-1,36
 442 304 442 304 449 309 c 0,37,38
 505 322 505 322 546 349 c 128,-1,39
 587 376 587 376 610 419 c 128,-1,40
 633 462 633 462 633 519 c 0,41,42
 633 583 633 583 604 625.5 c 128,-1,43
 575 668 575 668 522 689 c 128,-1,44
 469 710 469 710 392 710 c 2,45,-1
 56 710 l 1,46,-1
 56 624 l 1,47,-1
 66 624 l 2,48,49
 93 624 93 624 114 617 c 128,-1,50
 135 610 135 610 135 588 c 2,51,-1
 135 122 l 2,52,53
 135 100 135 100 114 93 c 128,-1,54
 93 86 93 86 66 86 c 2,55,-1
 56 86 l 1,56,-1
 56 0 l 1,57,-1
 355 0 l 1,58,-1
 355 86 l 1,59,-1
 337 86 l 2,60,61
 320 86 320 86 304.5 86.5 c 128,-1,62
 289 87 289 87 277 88.5 c 128,-1,63
 265 90 265 90 257.5 91.5 c 128,-1,64
 250 93 250 93 250 96 c 2,20,-1
EndSplineSet
EndChar

StartChar: Rdblgrave
Encoding: 528 528 153
Width: 750
GlyphClass: 1
Flags: W
LayerCount: 2
Fore
SplineSet
465 929 m 2,0,-1
 509 830 l 1,1,-1
 509 792 l 1,2,-1
 462 792 l 1,3,-1
 390 851 l 2,4,5
 367 869 367 869 354.5 888 c 128,-1,6
 342 907 342 907 342 930 c 0,7,8
 342 950 342 950 357 963.5 c 128,-1,9
 372 977 372 977 396 977 c 0,10,11
 415 977 415 977 428 970.5 c 128,-1,12
 441 964 441 964 450 953 c 128,-1,13
 459 942 459 942 465 929 c 2,0,-1
267 929 m 2,14,-1
 308 830 l 1,15,-1
 308 792 l 1,16,-1
 261 792 l 1,17,-1
 189 851 l 2,18,19
 166 869 166 869 154 888 c 128,-1,20
 142 907 142 907 142 930 c 0,21,22
 142 950 142 950 156.5 963.5 c 128,-1,23
 171 977 171 977 196 977 c 0,24,25
 214 977 214 977 228 970.5 c 128,-1,26
 242 964 242 964 251.5 953 c 128,-1,27
 261 942 261 942 267 929 c 2,14,-1
383 321 m 1,28,-1
 557 0 l 1,29,-1
 718 0 l 1,30,-1
 718 86 l 1,31,-1
 709 86 l 2,32,33
 687 86 687 86 669.5 90.5 c 128,-1,34
 652 95 652 95 637 108.5 c 128,-1,35
 622 122 622 122 607 147 c 2,36,-1
 480 371 l 1,37,-1
 383 321 l 1,28,-1
250 96 m 2,38,-1
 250 625 l 1,39,-1
 385 625 l 2,40,41
 432 625 432 625 462 611.5 c 128,-1,42
 492 598 492 598 506.5 572 c 128,-1,43
 521 546 521 546 521 508 c 0,44,45
 521 469 521 469 506.5 438 c 128,-1,46
 492 407 492 407 461 389.5 c 128,-1,47
 430 372 430 372 380 372 c 2,48,-1
 237 372 l 1,49,-1
 237 289 l 1,50,-1
 423 289 l 2,51,52
 427 290 427 290 430 292.5 c 128,-1,53
 433 295 433 295 437.5 299.5 c 128,-1,54
 442 304 442 304 449 309 c 0,55,56
 505 322 505 322 546 349 c 128,-1,57
 587 376 587 376 610 419 c 128,-1,58
 633 462 633 462 633 519 c 0,59,60
 633 583 633 583 604 625.5 c 128,-1,61
 575 668 575 668 522 689 c 128,-1,62
 469 710 469 710 392 710 c 2,63,-1
 56 710 l 1,64,-1
 56 624 l 1,65,-1
 66 624 l 2,66,67
 93 624 93 624 114 617 c 128,-1,68
 135 610 135 610 135 588 c 2,69,-1
 135 122 l 2,70,71
 135 100 135 100 114 93 c 128,-1,72
 93 86 93 86 66 86 c 2,73,-1
 56 86 l 1,74,-1
 56 0 l 1,75,-1
 355 0 l 1,76,-1
 355 86 l 1,77,-1
 337 86 l 2,78,79
 320 86 320 86 304.5 86.5 c 128,-1,80
 289 87 289 87 277 88.5 c 128,-1,81
 265 90 265 90 257.5 91.5 c 128,-1,82
 250 93 250 93 250 96 c 2,38,-1
EndSplineSet
EndChar

StartChar: Rinvertedbreve
Encoding: 530 530 154
Width: 750
GlyphClass: 1
Flags: W
LayerCount: 2
Fore
SplineSet
364 934 m 0,0,1
 305 934 305 934 265 917 c 128,-1,2
 225 900 225 900 204 862 c 128,-1,3
 183 824 183 824 183 761 c 1,4,-1
 265 761 l 1,5,6
 267 797 267 797 276 815 c 128,-1,7
 285 833 285 833 306 840.5 c 128,-1,8
 327 848 327 848 364 848 c 0,9,10
 397 848 397 848 417.5 840.5 c 128,-1,11
 438 833 438 833 447.5 815 c 128,-1,12
 457 797 457 797 459 761 c 1,13,-1
 546 761 l 1,14,15
 545 824 545 824 523 862 c 128,-1,16
 501 900 501 900 460.5 917 c 128,-1,17
 420 934 420 934 364 934 c 0,0,1
383 321 m 1,18,-1
 557 0 l 1,19,-1
 718 0 l 1,20,-1
 718 86 l 1,21,-1
 709 86 l 2,22,23
 687 86 687 86 669.5 90.5 c 128,-1,24
 652 95 652 95 637 108.5 c 128,-1,25
 622 122 622 122 607 147 c 2,26,-1
 480 371 l 1,27,-1
 383 321 l 1,18,-1
250 96 m 2,28,-1
 250 625 l 1,29,-1
 385 625 l 2,30,31
 432 625 432 625 462 611.5 c 128,-1,32
 492 598 492 598 506.5 572 c 128,-1,33
 521 546 521 546 521 508 c 0,34,35
 521 469 521 469 506.5 438 c 128,-1,36
 492 407 492 407 461 389.5 c 128,-1,37
 430 372 430 372 380 372 c 2,38,-1
 237 372 l 1,39,-1
 237 289 l 1,40,-1
 423 289 l 2,41,42
 427 290 427 290 430 292.5 c 128,-1,43
 433 295 433 295 437.5 299.5 c 128,-1,44
 442 304 442 304 449 309 c 0,45,46
 505 322 505 322 546 349 c 128,-1,47
 587 376 587 376 610 419 c 128,-1,48
 633 462 633 462 633 519 c 0,49,50
 633 583 633 583 604 625.5 c 128,-1,51
 575 668 575 668 522 689 c 128,-1,52
 469 710 469 710 392 710 c 2,53,-1
 56 710 l 1,54,-1
 56 624 l 1,55,-1
 66 624 l 2,56,57
 93 624 93 624 114 617 c 128,-1,58
 135 610 135 610 135 588 c 2,59,-1
 135 122 l 2,60,61
 135 100 135 100 114 93 c 128,-1,62
 93 86 93 86 66 86 c 2,63,-1
 56 86 l 1,64,-1
 56 0 l 1,65,-1
 355 0 l 1,66,-1
 355 86 l 1,67,-1
 337 86 l 2,68,69
 320 86 320 86 304.5 86.5 c 128,-1,70
 289 87 289 87 277 88.5 c 128,-1,71
 265 90 265 90 257.5 91.5 c 128,-1,72
 250 93 250 93 250 96 c 2,28,-1
EndSplineSet
EndChar

StartChar: S
Encoding: 83 83 157
Width: 650
GlyphClass: 2
Flags: W
AnchorPoint: "Anchor-1" 357 0 basechar 0
AnchorPoint: "Anchor-0" 357 741 basechar 0
LayerCount: 2
Fore
SplineSet
357 59 m 0,0,1
 406 59 406 59 435.5 69 c 128,-1,2
 465 79 465 79 478.5 103.5 c 128,-1,3
 492 128 492 128 492 171 c 0,4,5
 492 208 492 208 477 231.5 c 128,-1,6
 462 255 462 255 435.5 270 c 128,-1,7
 409 285 409 285 374.5 295.5 c 128,-1,8
 340 306 340 306 302 315 c 0,9,10
 255 327 255 327 215 341 c 128,-1,11
 175 355 175 355 144.5 378 c 128,-1,12
 114 401 114 401 96.5 439.5 c 128,-1,13
 79 478 79 478 79 540 c 256,14,15
 79 602 79 602 104 645.5 c 128,-1,16
 129 689 129 689 178.5 712 c 128,-1,17
 228 735 228 735 301 735 c 0,18,19
 363 735 363 735 405 715 c 128,-1,20
 447 695 447 695 469.5 651.5 c 128,-1,21
 492 608 492 608 494 537 c 1,22,-1
 471 588 l 1,23,-1
 486 720 l 1,24,-1
 565 720 l 1,25,-1
 565 501 l 1,26,-1
 482 501 l 1,27,28
 469 548 469 548 447 582 c 128,-1,29
 425 616 425 616 390.5 634.5 c 128,-1,30
 356 653 356 653 304 653 c 0,31,32
 261 653 261 653 234 641 c 128,-1,33
 207 629 207 629 195.5 606 c 128,-1,34
 184 583 184 583 184 549 c 0,35,36
 184 514 184 514 196 493.5 c 128,-1,37
 208 473 208 473 231.5 460 c 128,-1,38
 255 447 255 447 288.5 437.5 c 128,-1,39
 322 428 322 428 365 417 c 256,40,41
 408 406 408 406 450 392 c 128,-1,42
 492 378 492 378 526.5 354.5 c 128,-1,43
 561 331 561 331 581 292 c 128,-1,44
 601 253 601 253 601 193 c 0,45,46
 601 116 601 116 571 68 c 128,-1,47
 541 20 541 20 487 -2.5 c 128,-1,48
 433 -25 433 -25 361 -25 c 0,49,50
 293 -25 293 -25 243 -4 c 128,-1,51
 193 17 193 17 163.5 66.5 c 128,-1,52
 134 116 134 116 128 200 c 1,53,-1
 154 149 l 1,54,-1
 140 -8 l 1,55,-1
 62 -8 l 1,56,-1
 62 236 l 1,57,-1
 149 236 l 1,58,59
 163 175 163 175 188.5 136 c 128,-1,60
 214 97 214 97 255.5 78 c 128,-1,61
 297 59 297 59 357 59 c 0,0,1
EndSplineSet
EndChar

StartChar: Scaron
Encoding: 352 352 161
Width: 650
GlyphClass: 1
Flags: W
LayerCount: 2
Fore
SplineSet
291 803 m 1,0,-1
 372 803 l 1,1,-1
 504 958 l 1,2,-1
 504 983 l 1,3,-1
 446 983 l 1,4,-1
 268 844 l 1,5,-1
 401 848 l 1,6,-1
 226 983 l 1,7,-1
 159 983 l 1,8,-1
 159 958 l 1,9,-1
 291 803 l 1,0,-1
357 59 m 0,10,11
 406 59 406 59 435.5 69 c 128,-1,12
 465 79 465 79 478.5 103.5 c 128,-1,13
 492 128 492 128 492 171 c 0,14,15
 492 208 492 208 477 231.5 c 128,-1,16
 462 255 462 255 435.5 270 c 128,-1,17
 409 285 409 285 374.5 295.5 c 128,-1,18
 340 306 340 306 302 315 c 0,19,20
 255 327 255 327 215 341 c 128,-1,21
 175 355 175 355 144.5 378 c 128,-1,22
 114 401 114 401 96.5 439.5 c 128,-1,23
 79 478 79 478 79 540 c 256,24,25
 79 602 79 602 104 645.5 c 128,-1,26
 129 689 129 689 178.5 712 c 128,-1,27
 228 735 228 735 301 735 c 0,28,29
 363 735 363 735 405 715 c 128,-1,30
 447 695 447 695 469.5 651.5 c 128,-1,31
 492 608 492 608 494 537 c 1,32,-1
 471 588 l 1,33,-1
 486 720 l 1,34,-1
 565 720 l 1,35,-1
 565 501 l 1,36,-1
 482 501 l 1,37,38
 469 548 469 548 447 582 c 128,-1,39
 425 616 425 616 390.5 634.5 c 128,-1,40
 356 653 356 653 304 653 c 0,41,42
 261 653 261 653 234 641 c 128,-1,43
 207 629 207 629 195.5 606 c 128,-1,44
 184 583 184 583 184 549 c 0,45,46
 184 514 184 514 196 493.5 c 128,-1,47
 208 473 208 473 231.5 460 c 128,-1,48
 255 447 255 447 288.5 437.5 c 128,-1,49
 322 428 322 428 365 417 c 256,50,51
 408 406 408 406 450 392 c 128,-1,52
 492 378 492 378 526.5 354.5 c 128,-1,53
 561 331 561 331 581 292 c 128,-1,54
 601 253 601 253 601 193 c 0,55,56
 601 116 601 116 571 68 c 128,-1,57
 541 20 541 20 487 -2.5 c 128,-1,58
 433 -25 433 -25 361 -25 c 0,59,60
 293 -25 293 -25 243 -4 c 128,-1,61
 193 17 193 17 163.5 66.5 c 128,-1,62
 134 116 134 116 128 200 c 1,63,-1
 154 149 l 1,64,-1
 140 -8 l 1,65,-1
 62 -8 l 1,66,-1
 62 236 l 1,67,-1
 149 236 l 1,68,69
 163 175 163 175 188.5 136 c 128,-1,70
 214 97 214 97 255.5 78 c 128,-1,71
 297 59 297 59 357 59 c 0,10,11
EndSplineSet
EndChar

StartChar: Scarondotaccent
Encoding: 7782 7782 166
Width: 650
GlyphClass: 1
Flags: W
LayerCount: 2
Fore
SplineSet
288 803 m 1,0,-1
 368 803 l 1,1,-1
 500 958 l 1,2,-1
 500 983 l 1,3,-1
 442 983 l 1,4,-1
 265 844 l 1,5,-1
 398 848 l 1,6,-1
 222 983 l 1,7,-1
 155 983 l 1,8,-1
 155 958 l 1,9,-1
 288 803 l 1,0,-1
357 59 m 0,10,11
 406 59 406 59 435.5 69 c 128,-1,12
 465 79 465 79 478.5 103.5 c 128,-1,13
 492 128 492 128 492 171 c 0,14,15
 492 208 492 208 477 231.5 c 128,-1,16
 462 255 462 255 435.5 270 c 128,-1,17
 409 285 409 285 374.5 295.5 c 128,-1,18
 340 306 340 306 302 315 c 0,19,20
 255 327 255 327 215 341 c 128,-1,21
 175 355 175 355 144.5 378 c 128,-1,22
 114 401 114 401 96.5 439.5 c 128,-1,23
 79 478 79 478 79 540 c 256,24,25
 79 602 79 602 104 645.5 c 128,-1,26
 129 689 129 689 178.5 712 c 128,-1,27
 228 735 228 735 301 735 c 0,28,29
 363 735 363 735 405 715 c 128,-1,30
 447 695 447 695 469.5 651.5 c 128,-1,31
 492 608 492 608 494 537 c 1,32,-1
 471 588 l 1,33,-1
 486 720 l 1,34,-1
 565 720 l 1,35,-1
 565 501 l 1,36,-1
 482 501 l 1,37,38
 469 548 469 548 447 582 c 128,-1,39
 425 616 425 616 390.5 634.5 c 128,-1,40
 356 653 356 653 304 653 c 0,41,42
 261 653 261 653 234 641 c 128,-1,43
 207 629 207 629 195.5 606 c 128,-1,44
 184 583 184 583 184 549 c 0,45,46
 184 514 184 514 196 493.5 c 128,-1,47
 208 473 208 473 231.5 460 c 128,-1,48
 255 447 255 447 288.5 437.5 c 128,-1,49
 322 428 322 428 365 417 c 256,50,51
 408 406 408 406 450 392 c 128,-1,52
 492 378 492 378 526.5 354.5 c 128,-1,53
 561 331 561 331 581 292 c 128,-1,54
 601 253 601 253 601 193 c 0,55,56
 601 116 601 116 571 68 c 128,-1,57
 541 20 541 20 487 -2.5 c 128,-1,58
 433 -25 433 -25 361 -25 c 0,59,60
 293 -25 293 -25 243 -4 c 128,-1,61
 193 17 193 17 163.5 66.5 c 128,-1,62
 134 116 134 116 128 200 c 1,63,-1
 154 149 l 1,64,-1
 140 -8 l 1,65,-1
 62 -8 l 1,66,-1
 62 236 l 1,67,-1
 149 236 l 1,68,69
 163 175 163 175 188.5 136 c 128,-1,70
 214 97 214 97 255.5 78 c 128,-1,71
 297 59 297 59 357 59 c 0,10,11
328 1004 m 256,72,73
 288 1004 288 1004 267 1024.5 c 128,-1,74
 246 1045 246 1045 246 1083 c 0,75,76
 246 1120 246 1120 267 1141 c 128,-1,77
 288 1162 288 1162 328 1162 c 256,78,79
 368 1162 368 1162 389.5 1141 c 128,-1,80
 411 1120 411 1120 411 1083 c 0,81,82
 411 1045 411 1045 389.5 1024.5 c 128,-1,83
 368 1004 368 1004 328 1004 c 256,72,73
EndSplineSet
EndChar

StartChar: T
Encoding: 84 84 168
Width: 719
GlyphClass: 2
Flags: W
AnchorPoint: "Anchor-1" 364 0 basechar 0
AnchorPoint: "Anchor-0" 364 741 basechar 0
LayerCount: 2
Fore
SplineSet
301 122 m 2,0,-1
 301 624 l 1,1,-1
 242 624 l 2,2,3
 201 624 201 624 181.5 617.5 c 128,-1,4
 162 611 162 611 154.5 598.5 c 128,-1,5
 147 586 147 586 145 566 c 2,6,-1
 134 465 l 1,7,-1
 51 465 l 1,8,-1
 51 710 l 1,9,-1
 668 710 l 1,10,-1
 668 465 l 1,11,-1
 584 465 l 1,12,-1
 573 566 l 2,13,14
 572 586 572 586 564.5 598.5 c 128,-1,15
 557 611 557 611 537 617.5 c 128,-1,16
 517 624 517 624 477 624 c 2,17,-1
 417 624 l 1,18,-1
 417 122 l 2,19,20
 417 100 417 100 441 93 c 128,-1,21
 465 86 465 86 495 86 c 2,22,-1
 514 86 l 1,23,-1
 514 0 l 1,24,-1
 204 0 l 1,25,-1
 204 86 l 1,26,-1
 223 86 l 2,27,28
 254 86 254 86 277.5 93 c 128,-1,29
 301 100 301 100 301 122 c 2,0,-1
EndSplineSet
EndChar

StartChar: Tcaron
Encoding: 356 356 170
Width: 719
GlyphClass: 1
Flags: W
LayerCount: 2
Fore
SplineSet
313 803 m 1,0,-1
 393 803 l 1,1,-1
 525 958 l 1,2,-1
 525 983 l 1,3,-1
 467 983 l 1,4,-1
 289 844 l 1,5,-1
 423 848 l 1,6,-1
 247 983 l 1,7,-1
 180 983 l 1,8,-1
 180 958 l 1,9,-1
 313 803 l 1,0,-1
301 122 m 2,10,-1
 301 624 l 1,11,-1
 242 624 l 2,12,13
 201 624 201 624 181.5 617.5 c 128,-1,14
 162 611 162 611 154.5 598.5 c 128,-1,15
 147 586 147 586 145 566 c 2,16,-1
 134 465 l 1,17,-1
 51 465 l 1,18,-1
 51 710 l 1,19,-1
 668 710 l 1,20,-1
 668 465 l 1,21,-1
 584 465 l 1,22,-1
 573 566 l 2,23,24
 571 586 571 586 564 598.5 c 128,-1,25
 557 611 557 611 537 617.5 c 128,-1,26
 517 624 517 624 477 624 c 2,27,-1
 417 624 l 1,28,-1
 417 122 l 2,29,30
 417 100 417 100 441 93 c 128,-1,31
 465 86 465 86 495 86 c 2,32,-1
 514 86 l 1,33,-1
 514 0 l 1,34,-1
 204 0 l 1,35,-1
 204 86 l 1,36,-1
 223 86 l 2,37,38
 254 86 254 86 277.5 93 c 128,-1,39
 301 100 301 100 301 122 c 2,10,-1
EndSplineSet
EndChar

StartChar: U
Encoding: 85 85 174
Width: 797
GlyphClass: 2
Flags: W
AnchorPoint: "Anchor-2" 457 0 basechar 0
AnchorPoint: "Anchor-1" 403 0 basechar 0
AnchorPoint: "Anchor-0" 403 741 basechar 0
LayerCount: 2
Fore
SplineSet
242 267 m 2,0,1
 242 211 242 211 255 173 c 128,-1,2
 268 135 268 135 291 112 c 128,-1,3
 314 89 314 89 345 79 c 128,-1,4
 376 69 376 69 413 69 c 0,5,6
 451 69 451 69 482 79.5 c 128,-1,7
 513 90 513 90 535 112.5 c 128,-1,8
 557 135 557 135 568.5 173 c 128,-1,9
 580 211 580 211 580 267 c 2,10,-1
 580 605 l 2,11,12
 580 610 580 610 572.5 613.5 c 128,-1,13
 565 617 565 617 554.5 619 c 128,-1,14
 544 621 544 621 532 622.5 c 128,-1,15
 520 624 520 624 509 624 c 2,16,-1
 500 624 l 1,17,-1
 500 710 l 1,18,-1
 750 710 l 1,19,-1
 750 624 l 1,20,-1
 739 624 l 2,21,22
 723 624 723 624 707.5 620 c 128,-1,23
 692 616 692 616 682.5 606.5 c 128,-1,24
 673 597 673 597 673 580 c 2,25,-1
 673 247 l 2,26,27
 673 174 673 174 651.5 122.5 c 128,-1,28
 630 71 630 71 592.5 38 c 128,-1,29
 555 5 555 5 506.5 -10 c 128,-1,30
 458 -25 458 -25 405 -25 c 0,31,32
 346 -25 346 -25 295.5 -9.5 c 128,-1,33
 245 6 245 6 207 38.5 c 128,-1,34
 169 71 169 71 148 123 c 128,-1,35
 127 175 127 175 127 248 c 2,36,-1
 127 588 l 2,37,38
 127 610 127 610 106 617 c 128,-1,39
 85 624 85 624 58 624 c 2,40,-1
 47 624 l 1,41,-1
 47 710 l 1,42,-1
 331 710 l 1,43,-1
 331 624 l 1,44,-1
 322 624 l 2,45,46
 309 624 309 624 295 623.5 c 128,-1,47
 281 623 281 623 269 621.5 c 128,-1,48
 257 620 257 620 249.5 618.5 c 128,-1,49
 242 617 242 617 242 614 c 2,50,-1
 242 267 l 2,0,1
EndSplineSet
EndChar

StartChar: Uogonek
Encoding: 370 370 184
Width: 797
GlyphClass: 1
Flags: W
LayerCount: 2
Fore
SplineSet
517 40 m 1,0,-1
 516 -5 l 1,1,2
 491 -15 491 -15 463.5 -20 c 128,-1,3
 436 -25 436 -25 405 -25 c 0,4,5
 345 -25 345 -25 294 -9.5 c 128,-1,6
 243 6 243 6 205 38.5 c 128,-1,7
 167 71 167 71 147 123 c 128,-1,8
 127 175 127 175 127 248 c 2,9,-1
 127 588 l 2,10,11
 127 610 127 610 109.5 617 c 128,-1,12
 92 624 92 624 58 624 c 2,13,-1
 47 624 l 1,14,-1
 47 710 l 1,15,-1
 331 710 l 1,16,-1
 331 625 l 1,17,-1
 322 625 l 2,18,19
 309 625 309 625 295 624 c 128,-1,20
 281 623 281 623 269 621.5 c 128,-1,21
 257 620 257 620 249.5 618.5 c 128,-1,22
 242 617 242 617 242 614 c 2,23,-1
 242 253 l 2,24,25
 242 202 242 202 255 166.5 c 128,-1,26
 268 131 268 131 291 110 c 128,-1,27
 314 89 314 89 346 80 c 128,-1,28
 378 71 378 71 416 71 c 0,29,30
 455 71 455 71 485 80 c 128,-1,31
 515 89 515 89 536.5 110 c 128,-1,32
 558 131 558 131 569 166.5 c 128,-1,33
 580 202 580 202 580 253 c 2,34,-1
 580 605 l 2,35,36
 580 610 580 610 574 613.5 c 128,-1,37
 568 617 568 617 558 619 c 128,-1,38
 548 621 548 621 535.5 622.5 c 128,-1,39
 523 624 523 624 509 624 c 2,40,-1
 500 624 l 1,41,-1
 500 710 l 1,42,-1
 750 710 l 1,43,-1
 750 624 l 1,44,-1
 739 624 l 2,45,46
 718 624 718 624 703 620 c 128,-1,47
 688 616 688 616 680.5 606.5 c 128,-1,48
 673 597 673 597 673 580 c 2,49,-1
 673 247 l 2,50,51
 673 200 673 200 662.5 160.5 c 128,-1,52
 652 121 652 121 634.5 91 c 128,-1,53
 617 61 617 61 595 38 c 0,54,55
 575 18 575 18 547 -3 c 128,-1,56
 519 -24 519 -24 493.5 -46 c 128,-1,57
 468 -68 468 -68 450.5 -93 c 128,-1,58
 433 -118 433 -118 433 -146 c 0,59,60
 433 -157 433 -157 441.5 -167.5 c 128,-1,61
 450 -178 450 -178 473 -178 c 0,62,63
 503 -178 503 -178 521 -165 c 128,-1,64
 539 -152 539 -152 551 -137 c 1,65,-1
 597 -182 l 1,66,67
 571 -213 571 -213 536 -232.5 c 128,-1,68
 501 -252 501 -252 445 -252 c 0,69,70
 408 -252 408 -252 378 -242.5 c 128,-1,71
 348 -233 348 -233 331 -212.5 c 128,-1,72
 314 -192 314 -192 314 -160 c 0,73,74
 314 -136 314 -136 323 -116 c 128,-1,75
 332 -96 332 -96 354 -75 c 128,-1,76
 376 -54 376 -54 416 -26.5 c 128,-1,77
 456 1 456 1 517 40 c 1,0,-1
EndSplineSet
EndChar

StartChar: Uhorn
Encoding: 431 431 185
Width: 911
GlyphClass: 2
Flags: W
AnchorPoint: "Anchor-1" 459 -35 basechar 0
AnchorPoint: "Anchor-0" 459 663 basechar 0
LayerCount: 2
Fore
SplineSet
127 248 m 2,0,-1
 127 588 l 2,1,2
 127 610 127 610 109.5 617 c 128,-1,3
 92 624 92 624 58 624 c 2,4,-1
 47 624 l 1,5,-1
 47 710 l 1,6,-1
 331 710 l 1,7,-1
 331 625 l 1,8,-1
 322 625 l 2,9,10
 309 625 309 625 295 624 c 128,-1,11
 281 623 281 623 269 621.5 c 128,-1,12
 257 620 257 620 249.5 618.5 c 128,-1,13
 242 617 242 617 242 614 c 2,14,-1
 242 253 l 2,15,16
 242 201 242 201 255 166 c 128,-1,17
 268 131 268 131 291 110 c 128,-1,18
 314 89 314 89 346 79.5 c 128,-1,19
 378 70 378 70 416 70 c 0,20,21
 465 70 465 70 501.5 87 c 128,-1,22
 538 104 538 104 559 144.5 c 128,-1,23
 580 185 580 185 580 253 c 2,24,-1
 580 605 l 2,25,26
 580 610 580 610 574 613.5 c 128,-1,27
 568 617 568 617 558 619 c 128,-1,28
 548 621 548 621 535.5 622.5 c 128,-1,29
 523 624 523 624 509 624 c 2,30,-1
 500 624 l 1,31,-1
 500 710 l 1,32,-1
 716 710 l 2,33,34
 751 710 751 710 774.5 722 c 128,-1,35
 798 734 798 734 812.5 758 c 128,-1,36
 827 782 827 782 834 817 c 128,-1,37
 841 852 841 852 844 898 c 1,38,-1
 947 898 l 1,39,40
 946 844 946 844 938.5 801.5 c 128,-1,41
 931 759 931 759 916 728 c 128,-1,42
 901 697 901 697 876.5 676 c 128,-1,43
 852 655 852 655 816.5 642.5 c 128,-1,44
 781 630 781 630 732 625 c 0,45,46
 714 624 714 624 700.5 619.5 c 128,-1,47
 687 615 687 615 680 606 c 128,-1,48
 673 597 673 597 673 581 c 2,49,-1
 673 247 l 2,50,51
 673 174 673 174 652.5 122.5 c 128,-1,52
 632 71 632 71 595 38 c 128,-1,53
 558 5 558 5 509.5 -10 c 128,-1,54
 461 -25 461 -25 405 -25 c 0,55,56
 345 -25 345 -25 294 -9.5 c 128,-1,57
 243 6 243 6 205 38.5 c 128,-1,58
 167 71 167 71 147 123 c 128,-1,59
 127 175 127 175 127 248 c 2,0,-1
EndSplineSet
EndChar

StartChar: Ucaron
Encoding: 467 467 186
Width: 797
GlyphClass: 1
Flags: W
LayerCount: 2
Fore
SplineSet
371 803 m 1,0,-1
 452 803 l 1,1,-1
 584 958 l 1,2,-1
 584 983 l 1,3,-1
 526 983 l 1,4,-1
 348 844 l 1,5,-1
 481 848 l 1,6,-1
 306 983 l 1,7,-1
 239 983 l 1,8,-1
 239 958 l 1,9,-1
 371 803 l 1,0,-1
242 267 m 2,10,11
 242 211 242 211 255 173 c 128,-1,12
 268 135 268 135 291 112 c 128,-1,13
 314 89 314 89 345 79 c 128,-1,14
 376 69 376 69 413 69 c 0,15,16
 451 69 451 69 482 79.5 c 128,-1,17
 513 90 513 90 535 112.5 c 128,-1,18
 557 135 557 135 568.5 173 c 128,-1,19
 580 211 580 211 580 267 c 2,20,-1
 580 605 l 2,21,22
 580 610 580 610 573 613.5 c 128,-1,23
 566 617 566 617 555 619 c 128,-1,24
 544 621 544 621 532 622.5 c 128,-1,25
 520 624 520 624 509 624 c 2,26,-1
 500 624 l 1,27,-1
 500 710 l 1,28,-1
 750 710 l 1,29,-1
 750 624 l 1,30,-1
 739 624 l 2,31,32
 722 624 722 624 707 620 c 128,-1,33
 692 616 692 616 682.5 606.5 c 128,-1,34
 673 597 673 597 673 580 c 2,35,-1
 673 247 l 2,36,37
 673 174 673 174 651.5 122.5 c 128,-1,38
 630 71 630 71 592 38 c 128,-1,39
 554 5 554 5 506 -10 c 128,-1,40
 458 -25 458 -25 405 -25 c 0,41,42
 346 -25 346 -25 295.5 -9.5 c 128,-1,43
 245 6 245 6 207 38.5 c 128,-1,44
 169 71 169 71 148 123 c 128,-1,45
 127 175 127 175 127 248 c 2,46,-1
 127 588 l 2,47,48
 127 610 127 610 106 617 c 128,-1,49
 85 624 85 624 58 624 c 2,50,-1
 47 624 l 1,51,-1
 47 710 l 1,52,-1
 331 710 l 1,53,-1
 331 624 l 1,54,-1
 322 624 l 2,55,56
 309 624 309 624 295 623.5 c 128,-1,57
 281 623 281 623 269 621.5 c 128,-1,58
 257 620 257 620 249.5 618.5 c 128,-1,59
 242 617 242 617 242 614 c 2,60,-1
 242 267 l 2,10,11
EndSplineSet
EndChar

StartChar: Udieresiscaron
Encoding: 473 473 187
Width: 802
GlyphClass: 1
Flags: W
LayerCount: 2
Fore
SplineSet
373 991 m 1,0,-1
 454 991 l 1,1,-1
 586 1147 l 1,2,-1
 586 1171 l 1,3,-1
 528 1171 l 1,4,-1
 350 1032 l 1,5,-1
 483 1036 l 1,6,-1
 308 1171 l 1,7,-1
 241 1171 l 1,8,-1
 241 1146 l 1,9,-1
 373 991 l 1,0,-1
242 267 m 2,10,11
 242 211 242 211 255 173 c 128,-1,12
 268 135 268 135 291 112 c 128,-1,13
 314 89 314 89 345 79 c 128,-1,14
 376 69 376 69 413 69 c 0,15,16
 451 69 451 69 482 79.5 c 128,-1,17
 513 90 513 90 535 112.5 c 128,-1,18
 557 135 557 135 568.5 173 c 128,-1,19
 580 211 580 211 580 267 c 2,20,-1
 580 605 l 2,21,22
 580 610 580 610 573 613.5 c 128,-1,23
 566 617 566 617 555 619 c 128,-1,24
 544 621 544 621 532 622.5 c 128,-1,25
 520 624 520 624 509 624 c 2,26,-1
 500 624 l 1,27,-1
 500 710 l 1,28,-1
 750 710 l 1,29,-1
 750 624 l 1,30,-1
 739 624 l 2,31,32
 722 624 722 624 707 620 c 128,-1,33
 692 616 692 616 682.5 606.5 c 128,-1,34
 673 597 673 597 673 580 c 2,35,-1
 673 247 l 2,36,37
 673 174 673 174 651.5 122.5 c 128,-1,38
 630 71 630 71 592.5 38 c 128,-1,39
 555 5 555 5 506.5 -10 c 128,-1,40
 458 -25 458 -25 405 -25 c 0,41,42
 346 -25 346 -25 295.5 -9.5 c 128,-1,43
 245 6 245 6 207 38.5 c 128,-1,44
 169 71 169 71 148 123 c 128,-1,45
 127 175 127 175 127 248 c 2,46,-1
 127 588 l 2,47,48
 127 610 127 610 106 617 c 128,-1,49
 85 624 85 624 58 624 c 2,50,-1
 47 624 l 1,51,-1
 47 710 l 1,52,-1
 331 710 l 1,53,-1
 331 624 l 1,54,-1
 322 624 l 2,55,56
 309 624 309 624 295 623.5 c 128,-1,57
 281 623 281 623 269 621.5 c 128,-1,58
 257 620 257 620 249.5 618.5 c 128,-1,59
 242 617 242 617 242 614 c 2,60,-1
 242 267 l 2,10,11
362 884 m 0,61,62
 362 845 362 845 340.5 827.5 c 128,-1,63
 319 810 319 810 284 810 c 0,64,65
 248 810 248 810 227 827.5 c 128,-1,66
 206 845 206 845 206 884 c 0,67,68
 206 922 206 922 227 939.5 c 128,-1,69
 248 957 248 957 284 957 c 0,70,71
 319 957 319 957 340.5 939.5 c 128,-1,72
 362 922 362 922 362 884 c 0,61,62
619 884 m 0,73,74
 619 845 619 845 598 827.5 c 128,-1,75
 577 810 577 810 541 810 c 0,76,77
 506 810 506 810 484.5 827.5 c 128,-1,78
 463 845 463 845 463 884 c 0,79,80
 463 922 463 922 484.5 939.5 c 128,-1,81
 506 957 506 957 541 957 c 0,82,83
 577 957 577 957 598 939.5 c 128,-1,84
 619 922 619 922 619 884 c 0,73,74
EndSplineSet
EndChar

StartChar: Udblgrave
Encoding: 532 532 188
Width: 797
GlyphClass: 1
Flags: W
LayerCount: 2
Fore
SplineSet
499 929 m 2,0,-1
 543 830 l 1,1,-1
 543 792 l 1,2,-1
 496 792 l 1,3,-1
 424 851 l 2,4,5
 401 869 401 869 389 888 c 128,-1,6
 377 907 377 907 377 930 c 0,7,8
 377 950 377 950 391.5 963.5 c 128,-1,9
 406 977 406 977 431 977 c 0,10,11
 449 977 449 977 462 970.5 c 128,-1,12
 475 964 475 964 484 953 c 128,-1,13
 493 942 493 942 499 929 c 2,0,-1
301 929 m 2,14,-1
 342 830 l 1,15,-1
 342 792 l 1,16,-1
 295 792 l 1,17,-1
 223 851 l 2,18,19
 201 869 201 869 188.5 888 c 128,-1,20
 176 907 176 907 176 930 c 0,21,22
 176 950 176 950 190.5 963.5 c 128,-1,23
 205 977 205 977 230 977 c 0,24,25
 248 977 248 977 262 970.5 c 128,-1,26
 276 964 276 964 285.5 953 c 128,-1,27
 295 942 295 942 301 929 c 2,14,-1
242 267 m 2,28,29
 242 211 242 211 255 173 c 128,-1,30
 268 135 268 135 291 112 c 128,-1,31
 314 89 314 89 345 79 c 128,-1,32
 376 69 376 69 413 69 c 0,33,34
 451 69 451 69 482 79.5 c 128,-1,35
 513 90 513 90 535 112.5 c 128,-1,36
 557 135 557 135 568.5 173 c 128,-1,37
 580 211 580 211 580 267 c 2,38,-1
 580 605 l 2,39,40
 580 610 580 610 573 613.5 c 128,-1,41
 566 617 566 617 555 619 c 128,-1,42
 544 621 544 621 532 622.5 c 128,-1,43
 520 624 520 624 509 624 c 2,44,-1
 500 624 l 1,45,-1
 500 710 l 1,46,-1
 750 710 l 1,47,-1
 750 624 l 1,48,-1
 739 624 l 2,49,50
 722 624 722 624 707 620 c 128,-1,51
 692 616 692 616 682.5 606.5 c 128,-1,52
 673 597 673 597 673 580 c 2,53,-1
 673 247 l 2,54,55
 673 174 673 174 651.5 122.5 c 128,-1,56
 630 71 630 71 592 38 c 128,-1,57
 554 5 554 5 506 -10 c 128,-1,58
 458 -25 458 -25 405 -25 c 0,59,60
 346 -25 346 -25 295.5 -9.5 c 128,-1,61
 245 6 245 6 207 38.5 c 128,-1,62
 169 71 169 71 148 123 c 128,-1,63
 127 175 127 175 127 248 c 2,64,-1
 127 588 l 2,65,66
 127 610 127 610 106 617 c 128,-1,67
 85 624 85 624 58 624 c 2,68,-1
 47 624 l 1,69,-1
 47 710 l 1,70,-1
 331 710 l 1,71,-1
 331 624 l 1,72,-1
 322 624 l 2,73,74
 309 624 309 624 295 623.5 c 128,-1,75
 281 623 281 623 269 621.5 c 128,-1,76
 257 620 257 620 249.5 618.5 c 128,-1,77
 242 617 242 617 242 614 c 2,78,-1
 242 267 l 2,28,29
EndSplineSet
EndChar

StartChar: Uinvertedbreve
Encoding: 534 534 189
Width: 797
GlyphClass: 1
Flags: W
LayerCount: 2
Fore
SplineSet
403 934 m 0,0,1
 345 934 345 934 305 917 c 128,-1,2
 265 900 265 900 244 862 c 128,-1,3
 223 824 223 824 222 761 c 1,4,-1
 305 761 l 1,5,6
 307 797 307 797 316 815 c 128,-1,7
 325 833 325 833 346 840.5 c 128,-1,8
 367 848 367 848 403 848 c 0,9,10
 437 848 437 848 457.5 840.5 c 128,-1,11
 478 833 478 833 487.5 815 c 128,-1,12
 497 797 497 797 498 761 c 1,13,-1
 586 761 l 1,14,15
 585 824 585 824 562.5 862 c 128,-1,16
 540 900 540 900 500 917 c 128,-1,17
 460 934 460 934 403 934 c 0,0,1
242 267 m 2,18,19
 242 211 242 211 255 173 c 128,-1,20
 268 135 268 135 291 112 c 128,-1,21
 314 89 314 89 345 79 c 128,-1,22
 376 69 376 69 413 69 c 0,23,24
 451 69 451 69 482 79.5 c 128,-1,25
 513 90 513 90 535 112.5 c 128,-1,26
 557 135 557 135 568.5 173 c 128,-1,27
 580 211 580 211 580 267 c 2,28,-1
 580 605 l 2,29,30
 580 610 580 610 573 613.5 c 128,-1,31
 566 617 566 617 555 619 c 128,-1,32
 544 621 544 621 532 622.5 c 128,-1,33
 520 624 520 624 509 624 c 2,34,-1
 500 624 l 1,35,-1
 500 710 l 1,36,-1
 750 710 l 1,37,-1
 750 624 l 1,38,-1
 739 624 l 2,39,40
 722 624 722 624 707 620 c 128,-1,41
 692 616 692 616 682.5 606.5 c 128,-1,42
 673 597 673 597 673 580 c 2,43,-1
 673 247 l 2,44,45
 673 174 673 174 651.5 122.5 c 128,-1,46
 630 71 630 71 592 38 c 128,-1,47
 554 5 554 5 506 -10 c 128,-1,48
 458 -25 458 -25 405 -25 c 0,49,50
 346 -25 346 -25 295.5 -9.5 c 128,-1,51
 245 6 245 6 207 38.5 c 128,-1,52
 169 71 169 71 148 123 c 128,-1,53
 127 175 127 175 127 248 c 2,54,-1
 127 588 l 2,55,56
 127 610 127 610 106 617 c 128,-1,57
 85 624 85 624 58 624 c 2,58,-1
 47 624 l 1,59,-1
 47 710 l 1,60,-1
 331 710 l 1,61,-1
 331 624 l 1,62,-1
 322 624 l 2,63,64
 309 624 309 624 295 623.5 c 128,-1,65
 281 623 281 623 269 621.5 c 128,-1,66
 257 620 257 620 249.5 618.5 c 128,-1,67
 242 617 242 617 242 614 c 2,68,-1
 242 267 l 2,18,19
EndSplineSet
EndChar

StartChar: V
Encoding: 86 86 199
Width: 731
GlyphClass: 2
Flags: W
AnchorPoint: "Anchor-0" 360 741 basechar 0
LayerCount: 2
Fore
SplineSet
394 31 m 1,0,-1
 365 43 l 1,1,-1
 552 601 l 2,2,3
 552 608 552 608 543 613 c 128,-1,4
 534 618 534 618 517.5 621 c 128,-1,5
 501 624 501 624 479 624 c 2,6,-1
 468 624 l 1,7,-1
 468 710 l 1,8,-1
 712 710 l 1,9,-1
 712 624 l 1,10,-1
 706 624 l 2,11,12
 684 624 684 624 666 612 c 128,-1,13
 648 600 648 600 635 560 c 2,14,-1
 440 -11 l 1,15,-1
 295 -11 l 1,16,-1
 98 560 l 2,17,18
 85 600 85 600 66 612 c 128,-1,19
 47 624 47 624 25 624 c 2,20,-1
 20 624 l 1,21,-1
 20 710 l 1,22,-1
 292 710 l 1,23,-1
 292 624 l 1,24,-1
 280 624 l 2,25,26
 254 624 254 624 235.5 622.5 c 128,-1,27
 217 621 217 621 207.5 619 c 128,-1,28
 198 617 198 617 198 613 c 2,29,-1
 394 31 l 1,0,-1
EndSplineSet
EndChar

StartChar: W
Encoding: 87 87 200
Width: 1022
GlyphClass: 2
Flags: W
AnchorPoint: "Anchor-0" 525 741 basechar 0
LayerCount: 2
Fore
SplineSet
20 710 m 1,0,-1
 278 710 l 1,1,-1
 278 624 l 1,2,-1
 262 624 l 2,3,4
 250 624 250 624 235 622.5 c 128,-1,5
 220 621 220 621 209 619 c 128,-1,6
 198 617 198 617 198 613 c 2,7,-1
 338 55 l 1,8,-1
 294 57 l 1,9,-1
 466 710 l 1,10,-1
 589 710 l 1,11,-1
 760 58 l 1,12,-1
 718 57 l 1,13,-1
 857 600 l 2,14,15
 857 607 857 607 848.5 612.5 c 128,-1,16
 840 618 840 618 827 621 c 128,-1,17
 814 624 814 624 802 624 c 2,18,-1
 788 624 l 1,19,-1
 788 710 l 1,20,-1
 1002 710 l 1,21,-1
 1002 624 l 1,22,-1
 995 624 l 2,23,24
 976 624 976 624 960.5 613 c 128,-1,25
 945 602 945 602 938 577 c 2,26,-1
 790 -1 l 1,27,-1
 667 -1 l 1,28,-1
 494 646 l 1,29,-1
 537 647 l 1,30,-1
 368 -1 l 1,31,-1
 245 -1 l 1,32,-1
 87 589 l 2,33,34
 81 614 81 614 65.5 619 c 128,-1,35
 50 624 50 624 27 624 c 2,36,-1
 20 624 l 1,37,-1
 20 710 l 1,0,-1
EndSplineSet
EndChar

StartChar: X
Encoding: 88 88 205
Width: 744
GlyphClass: 2
Flags: W
AnchorPoint: "Anchor-1" 355 0 basechar 0
AnchorPoint: "Anchor-0" 378 741 basechar 0
LayerCount: 2
Fore
SplineSet
40 624 m 1,0,-1
 40 710 l 1,1,-1
 322 710 l 1,2,-1
 322 624 l 1,3,-1
 306 624 l 2,4,5
 290 624 290 624 275 623 c 128,-1,6
 260 622 260 622 251 620 c 128,-1,7
 242 618 242 618 242 614 c 2,8,-1
 412 392 l 1,9,-1
 425 388 l 1,10,-1
 628 120 l 2,11,12
 645 98 645 98 661.5 92 c 128,-1,13
 678 86 678 86 697 86 c 2,14,-1
 716 86 l 1,15,-1
 716 0 l 1,16,-1
 428 0 l 1,17,-1
 428 86 l 1,18,-1
 444 86 l 2,19,20
 461 86 461 86 476 87 c 128,-1,21
 491 88 491 88 500.5 90.5 c 128,-1,22
 510 93 510 93 510 96 c 2,23,-1
 326 338 l 1,24,-1
 313 342 l 1,25,-1
 124 590 l 2,26,27
 107 613 107 613 90 618.5 c 128,-1,28
 73 624 73 624 53 624 c 2,29,-1
 40 624 l 1,0,-1
28 0 m 1,30,-1
 28 86 l 1,31,-1
 47 86 l 2,32,33
 65 86 65 86 80.5 95.5 c 128,-1,34
 96 105 96 105 116 132 c 2,35,-1
 302 381 l 1,36,-1
 374 337 l 1,37,-1
 201 103 l 2,38,39
 201 99 201 99 211 95 c 128,-1,40
 221 91 221 91 235 88.5 c 128,-1,41
 249 86 249 86 260 86 c 2,42,-1
 278 86 l 1,43,-1
 278 0 l 1,44,-1
 28 0 l 1,30,-1
437 351 m 1,45,-1
 367 396 l 1,46,-1
 530 607 l 2,47,48
 530 612 530 612 519.5 616 c 128,-1,49
 509 620 509 620 495 622 c 128,-1,50
 481 624 481 624 468 624 c 2,51,-1
 454 624 l 1,52,-1
 454 710 l 1,53,-1
 700 710 l 1,54,-1
 700 624 l 1,55,-1
 687 624 l 2,56,57
 669 624 669 624 652.5 615 c 128,-1,58
 636 606 636 606 615 579 c 2,59,-1
 437 351 l 1,45,-1
EndSplineSet
EndChar

StartChar: Y
Encoding: 89 89 206
Width: 699
GlyphClass: 2
Flags: W
AnchorPoint: "Anchor-1" 353 0 basechar 0
AnchorPoint: "Anchor-0" 353 741 basechar 0
LayerCount: 2
Fore
SplineSet
295 304 m 1,0,-1
 302 260 l 1,1,-1
 103 585 l 2,2,3
 94 601 94 601 84.5 609.5 c 128,-1,4
 75 618 75 618 64 621 c 128,-1,5
 53 624 53 624 39 624 c 2,6,-1
 28 624 l 1,7,-1
 28 710 l 1,8,-1
 284 710 l 1,9,-1
 284 624 l 1,10,-1
 268 624 l 2,11,12
 253 624 253 624 239.5 622.5 c 128,-1,13
 226 621 226 621 217 619 c 128,-1,14
 208 617 208 617 208 613 c 2,15,-1
 390 305 l 1,16,-1
 341 304 l 1,17,-1
 510 601 l 2,18,19
 510 609 510 609 501 613.5 c 128,-1,20
 492 618 492 618 480 621 c 128,-1,21
 468 624 468 624 459 624 c 2,22,-1
 448 624 l 1,23,-1
 448 710 l 1,24,-1
 670 710 l 1,25,-1
 670 624 l 1,26,-1
 658 624 l 2,27,28
 647 624 647 624 636 619 c 128,-1,29
 625 614 625 614 614 603.5 c 128,-1,30
 603 593 603 593 591 574 c 2,31,-1
 402 258 l 1,32,-1
 410 304 l 1,33,-1
 410 122 l 2,34,35
 410 100 410 100 432.5 93 c 128,-1,36
 455 86 455 86 486 86 c 2,37,-1
 506 86 l 1,38,-1
 506 0 l 1,39,-1
 199 0 l 1,40,-1
 199 86 l 1,41,-1
 219 86 l 2,42,43
 251 86 251 86 273 93 c 128,-1,44
 295 100 295 100 295 122 c 2,45,-1
 295 304 l 1,0,-1
EndSplineSet
EndChar

StartChar: Z
Encoding: 90 90 216
Width: 663
GlyphClass: 2
Flags: W
AnchorPoint: "Anchor-1" 351 0 basechar 0
AnchorPoint: "Anchor-0" 351 741 basechar 0
LayerCount: 2
Fore
SplineSet
265 624 m 2,0,1
 236 624 236 624 217.5 622 c 128,-1,2
 199 620 199 620 190 615 c 128,-1,3
 181 610 181 610 176.5 601.5 c 128,-1,4
 172 593 172 593 170 579 c 2,5,-1
 158 500 l 1,6,-1
 74 500 l 1,7,-1
 74 710 l 1,8,-1
 588 710 l 1,9,-1
 588 617 l 1,10,-1
 143 23 l 1,11,-1
 123 86 l 1,12,-1
 407 86 l 2,13,14
 446 86 446 86 466 89.5 c 128,-1,15
 486 93 486 93 494 103 c 128,-1,16
 502 113 502 113 504 131 c 2,17,-1
 518 235 l 1,18,-1
 604 235 l 1,19,-1
 604 0 l 1,20,-1
 59 0 l 1,21,-1
 59 96 l 1,22,-1
 493 675 l 1,23,-1
 516 624 l 1,24,-1
 265 624 l 2,0,1
EndSplineSet
EndChar

StartChar: Zcaron
Encoding: 381 381 219
Width: 663
GlyphClass: 1
Flags: W
LayerCount: 2
Fore
SplineSet
288 803 m 1,0,-1
 368 803 l 1,1,-1
 500 958 l 1,2,-1
 500 983 l 1,3,-1
 442 983 l 1,4,-1
 264 844 l 1,5,-1
 398 848 l 1,6,-1
 222 983 l 1,7,-1
 155 983 l 1,8,-1
 155 958 l 1,9,-1
 288 803 l 1,0,-1
265 624 m 2,10,11
 236 624 236 624 217.5 622 c 128,-1,12
 199 620 199 620 190 615 c 128,-1,13
 181 610 181 610 176.5 601.5 c 128,-1,14
 172 593 172 593 170 579 c 2,15,-1
 158 500 l 1,16,-1
 74 500 l 1,17,-1
 74 710 l 1,18,-1
 588 710 l 1,19,-1
 588 617 l 1,20,-1
 143 23 l 1,21,-1
 123 86 l 1,22,-1
 407 86 l 2,23,24
 446 86 446 86 466 89.5 c 128,-1,25
 486 93 486 93 494 103 c 128,-1,26
 502 113 502 113 504 131 c 2,27,-1
 518 235 l 1,28,-1
 604 235 l 1,29,-1
 604 0 l 1,30,-1
 59 0 l 1,31,-1
 59 96 l 1,32,-1
 493 675 l 1,33,-1
 516 624 l 1,34,-1
 265 624 l 2,10,11
EndSplineSet
EndChar

StartChar: AE
Encoding: 198 198 221
Width: 1067
GlyphClass: 2
Flags: W
AnchorPoint: "Anchor-0" 658 741 basechar 0
LayerCount: 2
Fore
SplineSet
231 305 m 1,0,-1
 552 305 l 1,1,-1
 569 220 l 1,2,-1
 213 220 l 1,3,-1
 231 305 l 1,0,-1
609 405 m 1,4,5
 653 407 653 407 698.5 409.5 c 128,-1,6
 744 412 744 412 791 415 c 128,-1,7
 838 418 838 418 885 422 c 1,8,-1
 885 308 l 1,9,10
 840 311 840 311 793.5 313 c 128,-1,11
 747 315 747 315 701 318.5 c 128,-1,12
 655 322 655 322 609 325 c 1,13,-1
 609 405 l 1,4,5
433 0 m 1,14,-1
 433 86 l 1,15,-1
 440 86 l 2,16,17
 464 86 464 86 481 89 c 128,-1,18
 498 92 498 92 506.5 98 c 128,-1,19
 515 104 515 104 515 113 c 2,20,-1
 515 649 l 1,21,-1
 492 631 l 1,22,-1
 181 109 l 2,23,24
 181 103 181 103 187 97.5 c 128,-1,25
 193 92 193 92 207 89 c 128,-1,26
 221 86 221 86 247 86 c 2,27,-1
 256 86 l 1,28,-1
 256 0 l 1,29,-1
 5 0 l 1,30,-1
 5 86 l 1,31,-1
 11 86 l 2,32,33
 30 86 30 86 45 92.5 c 128,-1,34
 60 99 60 99 73 113 c 128,-1,35
 86 127 86 127 100 150 c 2,36,-1
 364 594 l 1,37,38
 364 608 364 608 360 614.5 c 128,-1,39
 356 621 356 621 344.5 622.5 c 128,-1,40
 333 624 333 624 311 624 c 2,41,-1
 301 624 l 1,42,-1
 301 710 l 1,43,-1
 980 710 l 1,44,-1
 980 509 l 1,45,-1
 896 509 l 1,46,-1
 884 580 l 2,47,48
 881 598 881 598 869 607.5 c 128,-1,49
 857 617 857 617 833 620.5 c 128,-1,50
 809 624 809 624 771 624 c 2,51,-1
 630 624 l 1,52,-1
 630 86 l 1,53,-1
 784 86 l 2,54,55
 814 86 814 86 835.5 88 c 128,-1,56
 857 90 857 90 870 95 c 128,-1,57
 883 100 883 100 890 109 c 128,-1,58
 897 118 897 118 899 131 c 2,59,-1
 913 226 l 1,60,-1
 999 226 l 1,61,-1
 999 0 l 1,62,-1
 433 0 l 1,14,-1
EndSplineSet
EndChar

StartChar: Eth
Encoding: 208 208 223
Width: 788
GlyphClass: 1
Flags: W
LayerCount: 2
Fore
SplineSet
47 403 m 1,0,-1
 442 403 l 1,1,-1
 442 318 l 1,2,-1
 47 318 l 1,3,-1
 47 403 l 1,0,-1
56 624 m 1,4,-1
 56 710 l 1,5,-1
 363 710 l 2,6,7
 449 710 449 710 517.5 688.5 c 128,-1,8
 586 667 586 667 633.5 624 c 128,-1,9
 681 581 681 581 705.5 515 c 128,-1,10
 730 449 730 449 730 359 c 0,11,12
 730 270 730 270 705.5 202.5 c 128,-1,13
 681 135 681 135 633.5 90.5 c 128,-1,14
 586 46 586 46 517.5 23 c 128,-1,15
 449 0 449 0 363 0 c 2,16,-1
 56 0 l 1,17,-1
 56 86 l 1,18,-1
 66 86 l 2,19,20
 93 86 93 86 114 93 c 128,-1,21
 135 100 135 100 135 122 c 2,22,-1
 135 588 l 2,23,24
 135 610 135 610 114 617 c 128,-1,25
 93 624 93 624 66 624 c 2,26,-1
 56 624 l 1,4,-1
359 624 m 2,27,-1
 250 624 l 1,28,-1
 250 86 l 1,29,-1
 359 86 l 2,30,31
 422 86 422 86 469 102.5 c 128,-1,32
 516 119 516 119 547 153 c 128,-1,33
 578 187 578 187 593 238 c 128,-1,34
 608 289 608 289 608 359 c 256,35,36
 608 429 608 429 593 479 c 128,-1,37
 578 529 578 529 547 561 c 128,-1,38
 516 593 516 593 469 608.5 c 128,-1,39
 422 624 422 624 359 624 c 2,27,-1
EndSplineSet
EndChar

StartChar: Oslash
Encoding: 216 216 224
Width: 800
GlyphClass: 2
Flags: W
AnchorPoint: "Anchor-0" 399 731 basechar 0
LayerCount: 2
Fore
SplineSet
400 646 m 256,0,1
 345 646 345 646 304 629 c 128,-1,2
 263 612 263 612 236 576 c 128,-1,3
 209 540 209 540 195 485 c 128,-1,4
 181 430 181 430 181 355 c 0,5,6
 181 274 181 274 194.5 218 c 128,-1,7
 208 162 208 162 235.5 128.5 c 128,-1,8
 263 95 263 95 304 79.5 c 128,-1,9
 345 64 345 64 400 64 c 256,10,11
 455 64 455 64 496 81 c 128,-1,12
 537 98 537 98 564 133.5 c 128,-1,13
 591 169 591 169 605 224 c 128,-1,14
 619 279 619 279 619 355 c 0,15,16
 619 436 619 436 605.5 492 c 128,-1,17
 592 548 592 548 564.5 581.5 c 128,-1,18
 537 615 537 615 496 630.5 c 128,-1,19
 455 646 455 646 400 646 c 256,0,1
400 -25 m 0,20,21
 324 -25 324 -25 261 1.5 c 128,-1,22
 198 28 198 28 152.5 78 c 128,-1,23
 107 128 107 128 82.5 198 c 128,-1,24
 58 268 58 268 58 355 c 0,25,26
 58 448 58 448 82.5 519 c 128,-1,27
 107 590 107 590 152.5 638 c 128,-1,28
 198 686 198 686 261 710.5 c 128,-1,29
 324 735 324 735 400 735 c 0,30,31
 477 735 477 735 539.5 708.5 c 128,-1,32
 602 682 602 682 647.5 632 c 128,-1,33
 693 582 693 582 717.5 512 c 128,-1,34
 742 442 742 442 742 355 c 0,35,36
 742 262 742 262 717.5 191 c 128,-1,37
 693 120 693 120 648 72 c 128,-1,38
 603 24 603 24 540 -0.5 c 128,-1,39
 477 -25 477 -25 400 -25 c 0,20,21
-2 -24 m 1,40,-1
 705 734 l 1,41,-1
 802 734 l 1,42,-1
 95 -24 l 1,43,-1
 -2 -24 l 1,40,-1
EndSplineSet
EndChar

StartChar: Thorn
Encoding: 222 222 226
Width: 708
GlyphClass: 1
Flags: W
LayerCount: 2
Fore
SplineSet
357 710 m 1,0,-1
 56 710 l 1,1,-1
 56 625 l 1,2,-1
 66 625 l 2,3,4
 100 625 100 625 117.5 618 c 128,-1,5
 135 611 135 611 135 589 c 2,6,-1
 135 121 l 2,7,8
 135 99 135 99 117.5 92 c 128,-1,9
 100 85 100 85 66 85 c 2,10,-1
 56 85 l 1,11,-1
 56 0 l 1,12,-1
 357 0 l 1,13,-1
 357 86 l 1,14,-1
 337 86 l 2,15,16
 320 86 320 86 304.5 86.5 c 128,-1,17
 289 87 289 87 277 88.5 c 128,-1,18
 265 90 265 90 257.5 91.5 c 128,-1,19
 250 93 250 93 250 96 c 2,20,-1
 250 614 l 2,21,22
 250 617 250 617 257.5 618.5 c 128,-1,23
 265 620 265 620 277 621.5 c 128,-1,24
 289 623 289 623 304.5 623.5 c 128,-1,25
 320 624 320 624 337 624 c 2,26,-1
 357 624 l 1,27,-1
 357 710 l 1,0,-1
653 366 m 0,28,29
 653 430 653 430 624 471 c 128,-1,30
 595 512 595 512 541.5 532 c 128,-1,31
 488 552 488 552 413 552 c 2,32,-1
 215 552 l 1,33,-1
 216 468 l 1,34,-1
 405 468 l 2,35,36
 451 468 451 468 479 457.5 c 128,-1,37
 507 447 507 447 519.5 424.5 c 128,-1,38
 532 402 532 402 532 365 c 256,39,40
 532 328 532 328 519.5 304.5 c 128,-1,41
 507 281 507 281 478.5 270 c 128,-1,42
 450 259 450 259 405 259 c 2,43,-1
 219 259 l 1,44,-1
 219 175 l 1,45,-1
 412 175 l 2,46,47
 484 175 484 175 538 197 c 128,-1,48
 592 219 592 219 622.5 261.5 c 128,-1,49
 653 304 653 304 653 366 c 0,28,29
EndSplineSet
EndChar

StartChar: Hbar
Encoding: 294 294 228
Width: 840
GlyphClass: 1
Flags: W
LayerCount: 2
Fore
SplineSet
217 373 m 1,0,-1
 618 373 l 1,1,-1
 618 296 l 1,2,-1
 217 296 l 1,3,-1
 217 373 l 1,0,-1
55 0 m 1,4,-1
 55 86 l 1,5,-1
 66 86 l 2,6,7
 92 86 92 86 113 93 c 128,-1,8
 134 100 134 100 134 122 c 2,9,-1
 134 588 l 2,10,11
 134 610 134 610 113 617 c 128,-1,12
 92 624 92 624 66 624 c 2,13,-1
 55 624 l 1,14,-1
 55 710 l 1,15,-1
 337 710 l 1,16,-1
 337 625 l 1,17,-1
 329 625 l 2,18,19
 316 625 316 625 302 624 c 128,-1,20
 288 623 288 623 276 621.5 c 128,-1,21
 264 620 264 620 257 618.5 c 128,-1,22
 250 617 250 617 250 614 c 2,23,-1
 250 95 l 2,24,25
 250 93 250 93 257 91.5 c 128,-1,26
 264 90 264 90 276 88.5 c 128,-1,27
 288 87 288 87 302 86.5 c 128,-1,28
 316 86 316 86 329 86 c 2,29,-1
 337 86 l 1,30,-1
 337 0 l 1,31,-1
 55 0 l 1,4,-1
503 0 m 1,32,-1
 503 85 l 1,33,-1
 511 85 l 2,34,35
 524 85 524 85 538 86 c 128,-1,36
 552 87 552 87 563.5 88.5 c 128,-1,37
 575 90 575 90 582.5 91.5 c 128,-1,38
 590 93 590 93 590 96 c 2,39,-1
 590 615 l 2,40,41
 590 617 590 617 582.5 618.5 c 128,-1,42
 575 620 575 620 563.5 621.5 c 128,-1,43
 552 623 552 623 538 623.5 c 128,-1,44
 524 624 524 624 511 624 c 2,45,-1
 503 624 l 1,46,-1
 503 710 l 1,47,-1
 785 710 l 1,48,-1
 785 624 l 1,49,-1
 774 624 l 2,50,51
 748 624 748 624 727 617 c 128,-1,52
 706 610 706 610 706 588 c 2,53,-1
 706 122 l 2,54,55
 706 100 706 100 727 93 c 128,-1,56
 748 86 748 86 774 86 c 2,57,-1
 785 86 l 1,58,-1
 785 0 l 1,59,-1
 503 0 l 1,32,-1
45 465 m 1,60,-1
 45 541 l 1,61,-1
 795 541 l 1,62,-1
 795 465 l 1,63,-1
 45 465 l 1,60,-1
EndSplineSet
EndChar

StartChar: Ldot
Encoding: 319 319 230
Width: 650
GlyphClass: 1
Flags: W
LayerCount: 2
Fore
SplineSet
350 710 m 1,0,-1
 56 710 l 1,1,-1
 56 624 l 1,2,-1
 66 624 l 2,3,4
 93 624 93 624 114 617 c 128,-1,5
 135 610 135 610 135 588 c 2,6,-1
 135 122 l 2,7,8
 135 100 135 100 114 93 c 128,-1,9
 93 86 93 86 66 86 c 2,10,-1
 56 86 l 1,11,-1
 56 0 l 1,12,-1
 600 0 l 1,13,-1
 600 224 l 1,14,-1
 514 224 l 1,15,-1
 499 131 l 2,16,17
 497 113 497 113 485 103 c 128,-1,18
 473 93 473 93 448.5 89.5 c 128,-1,19
 424 86 424 86 384 86 c 2,20,-1
 250 86 l 1,21,-1
 250 588 l 2,22,23
 250 610 250 610 274 617 c 128,-1,24
 298 624 298 624 334 624 c 2,25,-1
 350 624 l 1,26,-1
 350 710 l 1,0,-1
536 339 m 0,27,28
 494 339 494 339 466.5 364 c 128,-1,29
 439 389 439 389 439 432 c 0,30,31
 439 474 439 474 466.5 499 c 128,-1,32
 494 524 494 524 536 524 c 0,33,34
 580 524 580 524 608 499 c 128,-1,35
 636 474 636 474 636 432 c 256,36,37
 636 390 636 390 608 364.5 c 128,-1,38
 580 339 580 339 536 339 c 0,27,28
EndSplineSet
Ligature2: "Ligature Substitution lookup 5 subtable" L periodcentered
EndChar

StartChar: Lslash
Encoding: 321 321 231
Width: 649
GlyphClass: 1
Flags: W
LayerCount: 2
Fore
SplineSet
29 177 m 1,0,-1
 504 466 l 1,1,-1
 504 557 l 1,2,-1
 29 268 l 1,3,-1
 29 177 l 1,0,-1
352 710 m 1,4,-1
 57 710 l 1,5,-1
 57 624 l 1,6,-1
 68 624 l 2,7,8
 94 624 94 624 115 617 c 128,-1,9
 136 610 136 610 136 588 c 2,10,-1
 136 122 l 2,11,12
 136 100 136 100 115 93 c 128,-1,13
 94 86 94 86 68 86 c 2,14,-1
 57 86 l 1,15,-1
 57 0 l 1,16,-1
 601 0 l 1,17,-1
 601 239 l 1,18,-1
 515 239 l 1,19,-1
 501 131 l 2,20,21
 499 113 499 113 487.5 103 c 128,-1,22
 476 93 476 93 451 89.5 c 128,-1,23
 426 86 426 86 386 86 c 2,24,-1
 252 86 l 1,25,-1
 252 588 l 2,26,27
 252 610 252 610 276 617 c 128,-1,28
 300 624 300 624 336 624 c 2,29,-1
 352 624 l 1,30,-1
 352 710 l 1,4,-1
EndSplineSet
EndChar

StartChar: Eng
Encoding: 330 330 232
Width: 815
GlyphClass: 1
Flags: W
LayerCount: 2
Fore
SplineSet
691 -16 m 2,0,1
 691 -79 691 -79 673.5 -124 c 128,-1,2
 656 -169 656 -169 624 -196.5 c 128,-1,3
 592 -224 592 -224 549.5 -237 c 128,-1,4
 507 -250 507 -250 458 -250 c 0,5,6
 416 -250 416 -250 385.5 -244.5 c 128,-1,7
 355 -239 355 -239 336 -231 c 1,8,-1
 336 -138 l 1,9,10
 350 -144 350 -144 367.5 -149 c 128,-1,11
 385 -154 385 -154 406.5 -157 c 128,-1,12
 428 -160 428 -160 452 -160 c 0,13,14
 502 -160 502 -160 534 -146.5 c 128,-1,15
 566 -133 566 -133 581.5 -99 c 128,-1,16
 597 -65 597 -65 597 -5 c 2,17,-1
 597 65 l 1,18,-1
 615 -40 l 1,19,-1
 190 668 l 1,20,-1
 229 668 l 1,21,-1
 229 96 l 2,22,23
 229 93 229 93 238.5 90.5 c 128,-1,24
 248 88 248 88 263 87 c 128,-1,25
 278 86 278 86 293 86 c 2,26,-1
 306 86 l 1,27,-1
 306 0 l 1,28,-1
 57 0 l 1,29,-1
 57 86 l 1,30,-1
 68 86 l 2,31,32
 90 86 90 86 105 89 c 128,-1,33
 120 92 120 92 127.5 100 c 128,-1,34
 135 108 135 108 135 122 c 2,35,-1
 135 588 l 2,36,37
 135 603 135 603 127.5 610.5 c 128,-1,38
 120 618 120 618 105 621 c 128,-1,39
 90 624 90 624 68 624 c 2,40,-1
 57 624 l 1,41,-1
 57 710 l 1,42,-1
 290 710 l 1,43,-1
 655 92 l 1,44,-1
 597 93 l 1,45,-1
 597 614 l 2,46,47
 597 618 597 618 587 620 c 128,-1,48
 577 622 577 622 563 623 c 128,-1,49
 549 624 549 624 534 624 c 2,50,-1
 520 624 l 1,51,-1
 520 710 l 1,52,-1
 769 710 l 1,53,-1
 769 624 l 1,54,-1
 758 624 l 2,55,56
 736 624 736 624 721 621 c 128,-1,57
 706 618 706 618 698.5 610.5 c 128,-1,58
 691 603 691 603 691 588 c 2,59,-1
 691 -16 l 2,0,1
EndSplineSet
Substitution2: "'ss07' Style Set 7 lookup 67 subtable" Eng.afr
EndChar

StartChar: OE
Encoding: 338 338 233
Width: 1082
GlyphClass: 1
Flags: W
LayerCount: 2
Fore
SplineSet
623 405 m 1,0,1
 669 408 669 408 715.5 410.5 c 128,-1,2
 762 413 762 413 807.5 416 c 128,-1,3
 853 419 853 419 899 421 c 1,4,-1
 899 309 l 1,5,6
 853 312 853 312 807.5 314.5 c 128,-1,7
 762 317 762 317 715.5 320 c 128,-1,8
 669 323 669 323 623 325 c 1,9,-1
 623 405 l 1,0,1
426 86 m 2,10,-1
 530 86 l 1,11,-1
 530 624 l 1,12,-1
 426 624 l 2,13,14
 364 624 364 624 317.5 609 c 128,-1,15
 271 594 271 594 241 561.5 c 128,-1,16
 211 529 211 529 195.5 476.5 c 128,-1,17
 180 424 180 424 180 351 c 256,18,19
 180 278 180 278 195.5 227 c 128,-1,20
 211 176 211 176 241 145 c 128,-1,21
 271 114 271 114 317.5 100 c 128,-1,22
 364 86 364 86 426 86 c 2,10,-1
423 0 m 2,23,24
 337 0 337 0 269 21.5 c 128,-1,25
 201 43 201 43 154 86 c 128,-1,26
 107 129 107 129 82.5 195.5 c 128,-1,27
 58 262 58 262 58 351 c 256,28,29
 58 440 58 440 82.5 507.5 c 128,-1,30
 107 575 107 575 154 619.5 c 128,-1,31
 201 664 201 664 269 687 c 128,-1,32
 337 710 337 710 423 710 c 2,33,-1
 995 710 l 1,34,-1
 995 509 l 1,35,-1
 909 509 l 1,36,-1
 898 579 l 2,37,38
 896 597 896 597 887 606.5 c 128,-1,39
 878 616 878 616 857 620 c 128,-1,40
 836 624 836 624 797 624 c 2,41,-1
 646 624 l 1,42,-1
 646 86 l 1,43,-1
 809 86 l 2,44,45
 839 86 839 86 858.5 88 c 128,-1,46
 878 90 878 90 889 95 c 128,-1,47
 900 100 900 100 905 109 c 128,-1,48
 910 118 910 118 912 131 c 2,49,-1
 925 226 l 1,50,-1
 1013 226 l 1,51,-1
 1013 0 l 1,52,-1
 423 0 l 2,23,24
EndSplineSet
EndChar

StartChar: Tbar
Encoding: 358 358 234
Width: 719
GlyphClass: 1
Flags: W
LayerCount: 2
Fore
SplineSet
132 344 m 1,0,-1
 584 344 l 1,1,-1
 584 259 l 1,2,-1
 132 259 l 1,3,-1
 132 344 l 1,0,-1
301 122 m 2,4,-1
 301 624 l 1,5,-1
 242 624 l 2,6,7
 201 624 201 624 181.5 617.5 c 128,-1,8
 162 611 162 611 154.5 598.5 c 128,-1,9
 147 586 147 586 145 566 c 2,10,-1
 134 465 l 1,11,-1
 51 465 l 1,12,-1
 51 710 l 1,13,-1
 668 710 l 1,14,-1
 668 465 l 1,15,-1
 584 465 l 1,16,-1
 573 566 l 2,17,18
 572 586 572 586 564.5 598.5 c 128,-1,19
 557 611 557 611 537 617.5 c 128,-1,20
 517 624 517 624 477 624 c 2,21,-1
 417 624 l 1,22,-1
 417 122 l 2,23,24
 417 100 417 100 441 93 c 128,-1,25
 465 86 465 86 495 86 c 2,26,-1
 514 86 l 1,27,-1
 514 0 l 1,28,-1
 204 0 l 1,29,-1
 204 86 l 1,30,-1
 223 86 l 2,31,32
 254 86 254 86 277.5 93 c 128,-1,33
 301 100 301 100 301 122 c 2,4,-1
EndSplineSet
EndChar

StartChar: Bhook
Encoding: 385 385 235
Width: 776
GlyphClass: 2
Flags: W
AnchorPoint: "Anchor-1" 419 0 basechar 0
AnchorPoint: "Anchor-0" 389 741 basechar 0
LayerCount: 2
Fore
SplineSet
278 413 m 1,0,-1
 453 413 l 2,1,2
 494 413 494 413 518 425 c 128,-1,3
 542 437 542 437 553.5 462 c 128,-1,4
 565 487 565 487 565 524 c 0,5,6
 565 556 565 556 554 578 c 128,-1,7
 543 600 543 600 519 612.5 c 128,-1,8
 495 625 495 625 454 625 c 2,9,-1
 320 625 l 1,10,-1
 320 85 l 1,11,-1
 463 85 l 2,12,13
 509 85 509 85 537 99 c 128,-1,14
 565 113 565 113 578.5 140 c 128,-1,15
 592 167 592 167 592 206 c 256,16,17
 592 245 592 245 577.5 273 c 128,-1,18
 563 301 563 301 532 316 c 128,-1,19
 501 331 501 331 452 331 c 2,20,-1
 278 331 l 1,21,-1
 278 413 l 1,0,-1
186 710 m 2,22,-1
 463 710 l 2,23,24
 517 710 517 710 558 699.5 c 128,-1,25
 599 689 599 689 627 666.5 c 128,-1,26
 655 644 655 644 669 610.5 c 128,-1,27
 683 577 683 577 683 532 c 256,28,29
 683 487 683 487 662.5 451.5 c 128,-1,30
 642 416 642 416 600 396 c 128,-1,31
 558 376 558 376 496 375 c 1,32,-1
 505 394 l 1,33,-1
 505 349 l 1,34,-1
 496 371 l 1,35,36
 567 367 567 367 615 346 c 128,-1,37
 663 325 663 325 688 288 c 128,-1,38
 713 251 713 251 713 198 c 0,39,40
 713 148 713 148 697 110.5 c 128,-1,41
 681 73 681 73 650 49 c 128,-1,42
 619 25 619 25 574.5 12.5 c 128,-1,43
 530 0 530 0 472 0 c 2,44,-1
 126 0 l 1,45,-1
 126 86 l 1,46,-1
 136 86 l 2,47,48
 163 86 163 86 184 93 c 128,-1,49
 205 100 205 100 205 122 c 2,50,-1
 205 625 l 1,51,-1
 187 625 l 2,52,53
 160 625 160 625 141.5 616.5 c 128,-1,54
 123 608 123 608 114.5 589.5 c 128,-1,55
 106 571 106 571 106 538 c 0,56,57
 106 516 106 516 108.5 498 c 128,-1,58
 111 480 111 480 115 463 c 1,59,-1
 12 463 l 1,60,61
 9 478 9 478 7.5 497 c 128,-1,62
 6 516 6 516 6 535 c 0,63,64
 6 594 6 594 25.5 632 c 128,-1,65
 45 670 45 670 85 690 c 128,-1,66
 125 710 125 710 186 710 c 2,22,-1
EndSplineSet
EndChar

StartChar: Dhook
Encoding: 394 394 236
Width: 858
GlyphClass: 2
Flags: W
AnchorPoint: "Anchor-1" 429 0 basechar 0
AnchorPoint: "Anchor-0" 403 741 basechar 0
LayerCount: 2
Fore
SplineSet
186 710 m 2,0,-1
 433 710 l 2,1,2
 519 710 519 710 587.5 688.5 c 128,-1,3
 656 667 656 667 703.5 624 c 128,-1,4
 751 581 751 581 775.5 515 c 128,-1,5
 800 449 800 449 800 359 c 0,6,7
 800 270 800 270 775.5 202.5 c 128,-1,8
 751 135 751 135 703.5 90.5 c 128,-1,9
 656 46 656 46 587.5 23 c 128,-1,10
 519 0 519 0 433 0 c 2,11,-1
 126 0 l 1,12,-1
 126 86 l 1,13,-1
 137 86 l 2,14,15
 163 86 163 86 184 93 c 128,-1,16
 205 100 205 100 205 122 c 2,17,-1
 205 624 l 1,18,-1
 186 624 l 2,19,20
 159 624 159 624 141 616 c 128,-1,21
 123 608 123 608 114.5 589.5 c 128,-1,22
 106 571 106 571 106 538 c 0,23,24
 106 516 106 516 108.5 498 c 128,-1,25
 111 480 111 480 115 463 c 1,26,-1
 11 463 l 1,27,28
 9 477 9 477 7.5 496.5 c 128,-1,29
 6 516 6 516 6 535 c 0,30,31
 6 594 6 594 25.5 632.5 c 128,-1,32
 45 671 45 671 85 690.5 c 128,-1,33
 125 710 125 710 186 710 c 2,0,-1
429 624 m 2,34,-1
 321 624 l 1,35,-1
 321 86 l 1,36,-1
 429 86 l 2,37,38
 493 86 493 86 539.5 102.5 c 128,-1,39
 586 119 586 119 617 153 c 128,-1,40
 648 187 648 187 663 238 c 128,-1,41
 678 289 678 289 678 359 c 256,42,43
 678 429 678 429 663 479 c 128,-1,44
 648 529 648 529 617 561 c 128,-1,45
 586 593 586 593 539.5 608.5 c 128,-1,46
 493 624 493 624 429 624 c 2,34,-1
EndSplineSet
EndChar

StartChar: Schwa
Encoding: 399 399 237
Width: 745
GlyphClass: 1
Flags: W
LayerCount: 2
Fore
SplineSet
358 748 m 0,0,1
 459 748 459 748 533 706 c 128,-1,2
 607 664 607 664 647 579.5 c 128,-1,3
 687 495 687 495 687 369 c 0,4,5
 687 278 687 278 664 205.5 c 128,-1,6
 641 133 641 133 599 82 c 128,-1,7
 557 31 557 31 497 3 c 128,-1,8
 437 -25 437 -25 362 -25 c 0,9,10
 255 -25 255 -25 189.5 22.5 c 128,-1,11
 124 70 124 70 93.5 164.5 c 128,-1,12
 63 259 63 259 60 401 c 1,13,-1
 617 401 l 1,14,-1
 617 314 l 1,15,-1
 158 314 l 1,16,-1
 181 340 l 1,17,18
 185 260 185 260 196.5 206.5 c 128,-1,19
 208 153 208 153 229 121.5 c 128,-1,20
 250 90 250 90 283 77 c 128,-1,21
 316 64 316 64 361 64 c 0,22,23
 410 64 410 64 448 80 c 128,-1,24
 486 96 486 96 511.5 131.5 c 128,-1,25
 537 167 537 167 551 226 c 128,-1,26
 565 285 565 285 565 369 c 0,27,28
 565 459 565 459 550 516 c 128,-1,29
 535 573 535 573 507.5 604.5 c 128,-1,30
 480 636 480 636 441.5 648 c 128,-1,31
 403 660 403 660 356 660 c 0,32,33
 302 660 302 660 263 648.5 c 128,-1,34
 224 637 224 637 193.5 610 c 128,-1,35
 163 583 163 583 133 534 c 1,36,-1
 59 584 l 1,37,38
 89 634 89 634 131.5 670.5 c 128,-1,39
 174 707 174 707 230.5 727.5 c 128,-1,40
 287 748 287 748 358 748 c 0,0,1
EndSplineSet
EndChar

StartChar: Khook
Encoding: 408 408 238
Width: 780
GlyphClass: 2
Flags: W
AnchorPoint: "Anchor-1" 398 0 basechar 0
AnchorPoint: "Anchor-0" 445 741 basechar 0
LayerCount: 2
Fore
SplineSet
56 0 m 1,0,-1
 56 86 l 1,1,-1
 66 86 l 2,2,3
 93 86 93 86 114 93 c 128,-1,4
 135 100 135 100 135 122 c 2,5,-1
 135 588 l 2,6,7
 135 610 135 610 114 617 c 128,-1,8
 93 624 93 624 66 624 c 2,9,-1
 56 624 l 1,10,-1
 56 710 l 1,11,-1
 335 710 l 1,12,-1
 335 624 l 1,13,-1
 326 624 l 2,14,15
 314 624 314 624 300.5 623.5 c 128,-1,16
 287 623 287 623 276 621.5 c 128,-1,17
 265 620 265 620 257.5 618.5 c 128,-1,18
 250 617 250 617 250 614 c 2,19,-1
 250 96 l 2,20,21
 250 93 250 93 257.5 91.5 c 128,-1,22
 265 90 265 90 276 88.5 c 128,-1,23
 287 87 287 87 300 86.5 c 128,-1,24
 313 86 313 86 324 86 c 2,25,-1
 333 86 l 1,26,-1
 333 0 l 1,27,-1
 56 0 l 1,0,-1
691 719 m 0,28,29
 722 719 722 719 743.5 705.5 c 128,-1,30
 765 692 765 692 776 664 c 128,-1,31
 787 636 787 636 787 593 c 0,32,33
 787 555 787 555 782 519.5 c 128,-1,34
 777 484 777 484 770 465 c 1,35,-1
 667 465 l 1,36,37
 673 477 673 477 678 496 c 128,-1,38
 683 515 683 515 686 537 c 128,-1,39
 689 559 689 559 689 580 c 0,40,41
 689 600 689 600 681.5 609 c 128,-1,42
 674 618 674 618 659 618 c 0,43,44
 649 618 649 618 638.5 612 c 128,-1,45
 628 606 628 606 607 585.5 c 128,-1,46
 586 565 586 565 545 522 c 2,47,-1
 386 355 l 1,48,-1
 386 406 l 1,49,-1
 669 108 l 2,50,51
 679 99 679 99 688.5 94 c 128,-1,52
 698 89 698 89 708 87.5 c 128,-1,53
 718 86 718 86 729 86 c 2,54,-1
 747 86 l 1,55,-1
 747 0 l 1,56,-1
 448 0 l 1,57,-1
 448 86 l 1,58,-1
 457 86 l 2,59,60
 476 86 476 86 493 87 c 128,-1,61
 510 88 510 88 521 90.5 c 128,-1,62
 532 93 532 93 532 96 c 2,63,-1
 296 345 l 1,64,-1
 296 372 l 1,65,-1
 493 578 l 2,66,67
 538 624 538 624 567.5 652 c 128,-1,68
 597 680 597 680 617.5 694.5 c 128,-1,69
 638 709 638 709 655 714 c 128,-1,70
 672 719 672 719 691 719 c 0,28,29
EndSplineSet
EndChar

StartChar: Yhook
Encoding: 435 435 239
Width: 751
GlyphClass: 2
Flags: W
AnchorPoint: "Anchor-1" 352 0 basechar 0
AnchorPoint: "Anchor-0" 383 741 basechar 0
LayerCount: 2
Fore
SplineSet
496 577 m 2,0,1
 526 629 526 629 551 660 c 128,-1,2
 576 691 576 691 601.5 705 c 128,-1,3
 627 719 627 719 660 719 c 0,4,5
 700 719 700 719 724 701 c 128,-1,6
 748 683 748 683 758.5 653 c 128,-1,7
 769 623 769 623 769 585 c 0,8,9
 769 552 769 552 763.5 517.5 c 128,-1,10
 758 483 758 483 752 465 c 1,11,-1
 648 465 l 1,12,13
 654 478 654 478 659 495 c 128,-1,14
 664 512 664 512 667 532 c 128,-1,15
 670 552 670 552 670 571 c 0,16,17
 670 594 670 594 664.5 605.5 c 128,-1,18
 659 617 659 617 642 617 c 0,19,20
 631 617 631 617 621 609.5 c 128,-1,21
 611 602 611 602 599.5 585 c 128,-1,22
 588 568 588 568 571 541 c 2,23,-1
 402 258 l 1,24,-1
 410 304 l 1,25,-1
 410 122 l 2,26,27
 410 100 410 100 433 93 c 128,-1,28
 456 86 456 86 486 86 c 2,29,-1
 506 86 l 1,30,-1
 506 0 l 1,31,-1
 199 0 l 1,32,-1
 199 86 l 1,33,-1
 219 86 l 2,34,35
 250 86 250 86 272.5 93 c 128,-1,36
 295 100 295 100 295 122 c 2,37,-1
 295 304 l 1,38,-1
 302 260 l 1,39,-1
 103 585 l 2,40,41
 94 601 94 601 84.5 609.5 c 128,-1,42
 75 618 75 618 64 621 c 128,-1,43
 53 624 53 624 39 624 c 2,44,-1
 28 624 l 1,45,-1
 28 710 l 1,46,-1
 284 710 l 1,47,-1
 284 624 l 1,48,-1
 268 624 l 2,49,50
 253 624 253 624 239.5 622.5 c 128,-1,51
 226 621 226 621 217 619 c 128,-1,52
 208 617 208 617 208 613 c 2,53,-1
 390 305 l 1,54,-1
 341 304 l 1,55,-1
 496 577 l 2,0,1
EndSplineSet
EndChar

StartChar: Germandbls
Encoding: 7838 7838 240
Width: 859
GlyphClass: 1
Flags: W
LayerCount: 2
Fore
SplineSet
589 67 m 0,0,1
 629 67 629 67 650 79 c 128,-1,2
 671 91 671 91 678 117 c 128,-1,3
 685 143 685 143 685 185 c 256,4,5
 685 227 685 227 674.5 253.5 c 128,-1,6
 664 280 664 280 640 297 c 128,-1,7
 616 314 616 314 576.5 328 c 128,-1,8
 537 342 537 342 480 360 c 1,9,-1
 480 443 l 1,10,-1
 626 666 l 1,11,-1
 656 623 l 1,12,-1
 395 623 l 2,13,14
 354 623 354 623 325.5 613 c 128,-1,15
 297 603 297 603 279.5 583 c 128,-1,16
 262 563 262 563 254.5 533 c 128,-1,17
 247 503 247 503 247 462 c 2,18,-1
 247 0 l 1,19,-1
 47 0 l 1,20,-1
 47 86 l 1,21,-1
 58 86 l 2,22,23
 92 86 92 86 111.5 93 c 128,-1,24
 131 100 131 100 131 122 c 2,25,-1
 131 460 l 2,26,27
 131 521 131 521 144.5 567 c 128,-1,28
 158 613 158 613 187.5 645 c 128,-1,29
 217 677 217 677 265 693.5 c 128,-1,30
 313 710 313 710 383 710 c 2,31,-1
 717 710 l 1,32,-1
 717 625 l 1,33,-1
 570 397 l 1,34,-1
 536 423 l 1,35,36
 596 406 596 406 645 388.5 c 128,-1,37
 694 371 694 371 729 346.5 c 128,-1,38
 764 322 764 322 783 283.5 c 128,-1,39
 802 245 802 245 802 186 c 0,40,41
 802 124 802 124 781 79 c 128,-1,42
 760 34 760 34 715 10 c 128,-1,43
 670 -14 670 -14 600 -14 c 0,44,45
 539 -14 539 -14 501 7.5 c 128,-1,46
 463 29 463 29 444 74 c 128,-1,47
 425 119 425 119 420 189 c 1,48,-1
 440 142 l 1,49,-1
 426 0 l 1,50,-1
 347 0 l 1,51,-1
 347 232 l 1,52,-1
 436 232 l 1,53,54
 446 193 446 193 457 162.5 c 128,-1,55
 468 132 468 132 484 111 c 128,-1,56
 500 90 500 90 525 78.5 c 128,-1,57
 550 67 550 67 589 67 c 0,0,1
EndSplineSet
EndChar

StartChar: Delta
Encoding: 916 916 241
Width: 746
GlyphClass: 1
Flags: W
LayerCount: 2
Fore
SplineSet
52 0 m 1,0,-1
 52 94 l 1,1,-1
 313 710 l 1,2,-1
 432 710 l 1,3,-1
 694 94 l 1,4,-1
 694 0 l 1,5,-1
 52 0 l 1,0,-1
593 62 m 1,6,-1
 331 692 l 1,7,-1
 397 696 l 1,8,-1
 130 60 l 1,9,-1
 82 99 l 1,10,-1
 635 99 l 1,11,-1
 593 62 l 1,6,-1
EndSplineSet
EndChar

StartChar: Omega
Encoding: 937 937 242
Width: 859
GlyphClass: 1
Flags: W
LayerCount: 2
Fore
SplineSet
429 735 m 0,0,1
 355 735 355 735 295 718.5 c 128,-1,2
 235 702 235 702 193 668.5 c 128,-1,3
 151 635 151 635 128.5 585.5 c 128,-1,4
 106 536 106 536 106 470 c 0,5,6
 106 432 106 432 114.5 396.5 c 128,-1,7
 123 361 123 361 141 325 c 128,-1,8
 159 289 159 289 186.5 249 c 128,-1,9
 214 209 214 209 251.5 163.5 c 128,-1,10
 289 118 289 118 336 62 c 1,11,-1
 345 79 l 1,12,-1
 244 79 l 2,13,14
 205 79 205 79 183.5 83.5 c 128,-1,15
 162 88 162 88 153.5 99 c 128,-1,16
 145 110 145 110 142 128 c 2,17,-1
 128 218 l 1,18,-1
 50 218 l 1,19,-1
 50 0 l 1,20,-1
 385 0 l 1,21,-1
 385 129 l 1,22,23
 347 177 347 177 317.5 217 c 128,-1,24
 288 257 288 257 267.5 295 c 128,-1,25
 247 333 247 333 236 372.5 c 128,-1,26
 225 412 225 412 225 458 c 0,27,28
 225 529 225 529 247.5 571 c 128,-1,29
 270 613 270 613 315.5 632 c 128,-1,30
 361 651 361 651 429 651 c 0,31,32
 498 651 498 651 543.5 632 c 128,-1,33
 589 613 589 613 611.5 571 c 128,-1,34
 634 529 634 529 634 458 c 0,35,36
 634 412 634 412 623 372.5 c 128,-1,37
 612 333 612 333 591 295 c 128,-1,38
 570 257 570 257 540.5 217 c 128,-1,39
 511 177 511 177 474 129 c 1,40,-1
 474 0 l 1,41,-1
 809 0 l 1,42,-1
 809 218 l 1,43,-1
 731 218 l 1,44,-1
 717 128 l 2,45,46
 714 110 714 110 705 99 c 128,-1,47
 696 88 696 88 675 83.5 c 128,-1,48
 654 79 654 79 614 79 c 2,49,-1
 513 79 l 1,50,-1
 523 62 l 1,51,52
 570 117 570 117 607.5 163 c 128,-1,53
 645 209 645 209 672.5 249 c 128,-1,54
 700 289 700 289 717.5 325 c 128,-1,55
 735 361 735 361 744 396.5 c 128,-1,56
 753 432 753 432 753 470 c 0,57,58
 753 536 753 536 730.5 585.5 c 128,-1,59
 708 635 708 635 666 668.5 c 128,-1,60
 624 702 624 702 564 718.5 c 128,-1,61
 504 735 504 735 429 735 c 0,0,1
EndSplineSet
EndChar

StartChar: Djecyr
Encoding: 1026 1026 244
Width: 867
GlyphClass: 2
Flags: W
AnchorPoint: "Anchor-0" 338 741 basechar 0
LayerCount: 2
Fore
SplineSet
809 201 m 0,0,1
 809 146 809 146 793 104 c 128,-1,2
 777 62 777 62 745 33 c 128,-1,3
 713 4 713 4 668 -10.5 c 128,-1,4
 623 -25 623 -25 565 -25 c 1,5,-1
 565 61 l 1,6,7
 605 61 605 61 632.5 75.5 c 128,-1,8
 660 90 660 90 674 120 c 128,-1,9
 688 150 688 150 688 200 c 0,10,11
 688 261 688 261 652.5 299 c 128,-1,12
 617 337 617 337 547 337 c 0,13,14
 494 337 494 337 449.5 325.5 c 128,-1,15
 405 314 405 314 357 286 c 1,16,-1
 357 373 l 1,17,18
 402 397 402 397 451.5 410 c 128,-1,19
 501 423 501 423 559 423 c 0,20,21
 644 423 644 423 699.5 395.5 c 128,-1,22
 755 368 755 368 782 318 c 128,-1,23
 809 268 809 268 809 201 c 0,0,1
187 0 m 1,24,-1
 187 86 l 1,25,-1
 206 86 l 2,26,27
 238 86 238 86 261 93 c 128,-1,28
 284 100 284 100 284 122 c 2,29,-1
 284 624 l 1,30,-1
 242 624 l 2,31,32
 202 624 202 624 182 617.5 c 128,-1,33
 162 611 162 611 154.5 598.5 c 128,-1,34
 147 586 147 586 145 566 c 2,35,-1
 134 465 l 1,36,-1
 51 465 l 1,37,-1
 51 710 l 1,38,-1
 670 710 l 1,39,-1
 670 488 l 1,40,-1
 586 488 l 1,41,-1
 576 566 l 2,42,43
 573 586 573 586 566 598.5 c 128,-1,44
 559 611 559 611 539 617.5 c 128,-1,45
 519 624 519 624 479 624 c 2,46,-1
 400 624 l 1,47,-1
 400 96 l 2,48,49
 400 93 400 93 410.5 90.5 c 128,-1,50
 421 88 421 88 437 87 c 128,-1,51
 453 86 453 86 470 86 c 2,52,-1
 482 86 l 1,53,-1
 482 0 l 1,54,-1
 187 0 l 1,24,-1
EndSplineSet
EndChar

StartChar: Eukrcyr
Encoding: 1028 1028 245
Width: 760
GlyphClass: 2
Flags: W
AnchorPoint: "Anchor-1" 395 0 basechar 0
AnchorPoint: "Anchor-0" 395 741 basechar 0
LayerCount: 2
Fore
SplineSet
147 405 m 1,0,1
 176 406 176 406 204.5 407.5 c 128,-1,2
 233 409 233 409 262 410 c 128,-1,3
 291 411 291 411 320 412.5 c 128,-1,4
 349 414 349 414 377.5 415.5 c 128,-1,5
 406 417 406 417 434.5 418.5 c 128,-1,6
 463 420 463 420 492 421 c 1,7,-1
 492 309 l 1,8,9
 463 310 463 310 434.5 311.5 c 128,-1,10
 406 313 406 313 377.5 314.5 c 128,-1,11
 349 316 349 316 320 317.5 c 128,-1,12
 291 319 291 319 262 320 c 128,-1,13
 233 321 233 321 204.5 322.5 c 128,-1,14
 176 324 176 324 147 325 c 1,15,-1
 147 405 l 1,0,1
389 647 m 0,16,17
 335 647 335 647 295.5 630.5 c 128,-1,18
 256 614 256 614 230.5 578.5 c 128,-1,19
 205 543 205 543 192.5 488 c 128,-1,20
 180 433 180 433 180 355 c 0,21,22
 180 278 180 278 193 222.5 c 128,-1,23
 206 167 206 167 232.5 131.5 c 128,-1,24
 259 96 259 96 300.5 79 c 128,-1,25
 342 62 342 62 400 62 c 0,26,27
 468 62 468 62 512 87.5 c 128,-1,28
 556 113 556 113 582.5 154.5 c 128,-1,29
 609 196 609 196 625 243 c 1,30,-1
 704 212 l 1,31,32
 682 138 682 138 640 85.5 c 128,-1,33
 598 33 598 33 536.5 4 c 128,-1,34
 475 -25 475 -25 393 -25 c 0,35,36
 317 -25 317 -25 255.5 -1 c 128,-1,37
 194 23 194 23 149.5 71 c 128,-1,38
 105 119 105 119 81.5 190 c 128,-1,39
 58 261 58 261 58 355 c 0,40,41
 58 450 58 450 81.5 521 c 128,-1,42
 105 592 105 592 149 639.5 c 128,-1,43
 193 687 193 687 253 711 c 128,-1,44
 313 735 313 735 385 735 c 0,45,46
 451 735 451 735 500.5 708 c 128,-1,47
 550 681 550 681 580 628.5 c 128,-1,48
 610 576 610 576 617 498 c 1,49,-1
 594 544 l 1,50,-1
 609 720 l 1,51,-1
 691 720 l 1,52,-1
 691 461 l 1,53,-1
 599 461 l 1,54,55
 584 516 584 516 556.5 558 c 128,-1,56
 529 600 529 600 487.5 623.5 c 128,-1,57
 446 647 446 647 389 647 c 0,16,17
EndSplineSet
Substitution2: "'ss01' Style Set 1 lookup 61 subtable" Ieukran.alt1
EndChar

StartChar: Yukrcyr
Encoding: 1031 1031 248
Width: 411
GlyphClass: 2
Flags: W
AnchorPoint: "Anchor-1" 206 0 basechar 0
AnchorPoint: "Anchor-0" 206 923 basechar 0
LayerCount: 2
Fore
SplineSet
178 859 m 256,0,1
 178 820 178 820 157.5 803 c 128,-1,2
 137 786 137 786 102 786 c 0,3,4
 68 786 68 786 48 803 c 128,-1,5
 28 820 28 820 28 859 c 256,6,7
 28 898 28 898 48 915.5 c 128,-1,8
 68 933 68 933 102 933 c 0,9,10
 137 933 137 933 157.5 915.5 c 128,-1,11
 178 898 178 898 178 859 c 256,0,1
383 859 m 256,12,13
 383 820 383 820 362.5 803 c 128,-1,14
 342 786 342 786 308 786 c 256,15,16
 274 786 274 786 253.5 803 c 128,-1,17
 233 820 233 820 233 859 c 256,18,19
 233 898 233 898 253.5 915.5 c 128,-1,20
 274 933 274 933 307 933 c 0,21,22
 342 933 342 933 362.5 915.5 c 128,-1,23
 383 898 383 898 383 859 c 256,12,13
148 122 m 2,24,-1
 148 588 l 2,25,26
 148 610 148 610 126.5 617 c 128,-1,27
 105 624 105 624 74 624 c 2,28,-1
 55 624 l 1,29,-1
 55 710 l 1,30,-1
 355 710 l 1,31,-1
 355 624 l 1,32,-1
 336 624 l 2,33,34
 306 624 306 624 284.5 617 c 128,-1,35
 263 610 263 610 263 588 c 2,36,-1
 263 122 l 2,37,38
 263 100 263 100 284.5 93 c 128,-1,39
 306 86 306 86 336 86 c 2,40,-1
 355 86 l 1,41,-1
 355 0 l 1,42,-1
 55 0 l 1,43,-1
 55 86 l 1,44,-1
 74 86 l 2,45,46
 105 86 105 86 126.5 93 c 128,-1,47
 148 100 148 100 148 122 c 2,24,-1
EndSplineSet
EndChar

StartChar: Ljecyr
Encoding: 1033 1033 250
Width: 1050
GlyphClass: 2
Flags: W
AnchorPoint: "Anchor-0" 420 741 basechar 0
LayerCount: 2
Fore
SplineSet
256 710 m 1,0,-1
 563 710 l 1,1,-1
 563 623 l 1,2,-1
 256 623 l 1,3,-1
 256 710 l 1,0,-1
176 280 m 2,4,-1
 200 588 l 2,5,6
 202 610 202 610 182 617 c 128,-1,7
 162 624 162 624 134 624 c 2,8,-1
 124 624 l 1,9,-1
 124 710 l 1,10,-1
 305 710 l 1,11,-1
 273 275 l 2,12,13
 266 172 266 172 243 108 c 128,-1,14
 220 44 220 44 180.5 14.5 c 128,-1,15
 141 -15 141 -15 82 -15 c 0,16,17
 58 -15 58 -15 41.5 -10 c 128,-1,18
 25 -5 25 -5 14 0 c 1,19,-1
 14 110 l 1,20,21
 22 106 22 106 38 100.5 c 128,-1,22
 54 95 54 95 77 95 c 0,23,24
 105 95 105 95 125.5 113.5 c 128,-1,25
 146 132 146 132 159 172.5 c 128,-1,26
 172 213 172 213 176 280 c 2,4,-1
755 0 m 2,27,-1
 424 0 l 1,28,-1
 424 86 l 1,29,-1
 432 86 l 2,30,31
 449 86 449 86 466 87 c 128,-1,32
 483 88 483 88 494.5 90.5 c 128,-1,33
 506 93 506 93 506 96 c 2,34,-1
 506 710 l 1,35,-1
 711 710 l 1,36,-1
 711 627 l 1,37,-1
 685 627 l 2,38,39
 660 627 660 627 640.5 620 c 128,-1,40
 621 613 621 613 621 591 c 2,41,-1
 621 86 l 1,42,-1
 749 86 l 2,43,44
 795 86 795 86 822.5 100 c 128,-1,45
 850 114 850 114 863 143 c 128,-1,46
 876 172 876 172 876 216 c 0,47,48
 876 263 876 263 863 294 c 128,-1,49
 850 325 850 325 822.5 339.5 c 128,-1,50
 795 354 795 354 749 354 c 2,51,-1
 571 354 l 1,52,-1
 571 440 l 1,53,-1
 755 440 l 2,54,55
 830 440 830 440 884 416.5 c 128,-1,56
 938 393 938 393 967.5 343.5 c 128,-1,57
 997 294 997 294 997 216 c 0,58,59
 997 147 997 147 966 98.5 c 128,-1,60
 935 50 935 50 881 25 c 128,-1,61
 827 0 827 0 755 0 c 2,27,-1
EndSplineSet
EndChar

StartChar: Njecyr
Encoding: 1034 1034 251
Width: 1093
GlyphClass: 2
Flags: W
AnchorPoint: "Anchor-0" 404 741 basechar 0
LayerCount: 2
Fore
SplineSet
218 432 m 1,0,-1
 581 432 l 1,1,-1
 581 346 l 1,2,-1
 218 346 l 1,3,-1
 218 432 l 1,0,-1
56 0 m 1,4,-1
 56 86 l 1,5,-1
 66 86 l 2,6,7
 93 86 93 86 114 93 c 128,-1,8
 135 100 135 100 135 122 c 2,9,-1
 135 588 l 2,10,11
 135 610 135 610 114 617 c 128,-1,12
 93 624 93 624 66 624 c 2,13,-1
 56 624 l 1,14,-1
 56 710 l 1,15,-1
 338 710 l 1,16,-1
 338 624 l 1,17,-1
 329 624 l 2,18,19
 312 624 312 624 294 623 c 128,-1,20
 276 622 276 622 263 620 c 128,-1,21
 250 618 250 618 250 614 c 2,22,-1
 250 95 l 2,23,24
 250 93 250 93 263 90.5 c 128,-1,25
 276 88 276 88 294 87 c 128,-1,26
 312 86 312 86 329 86 c 2,27,-1
 338 86 l 1,28,-1
 338 0 l 1,29,-1
 56 0 l 1,4,-1
466 0 m 1,30,-1
 466 86 l 1,31,-1
 474 86 l 2,32,33
 491 86 491 86 507.5 87 c 128,-1,34
 524 88 524 88 536 90.5 c 128,-1,35
 548 93 548 93 548 96 c 2,36,-1
 548 615 l 2,37,38
 548 618 548 618 536 620 c 128,-1,39
 524 622 524 622 507 623 c 128,-1,40
 490 624 490 624 474 624 c 2,41,-1
 466 624 l 1,42,-1
 466 710 l 1,43,-1
 762 710 l 1,44,-1
 762 624 l 1,45,-1
 737 624 l 2,46,47
 719 624 719 624 702 621 c 128,-1,48
 685 618 685 618 674.5 610.5 c 128,-1,49
 664 603 664 603 664 588 c 2,50,-1
 664 86 l 1,51,-1
 792 86 l 2,52,53
 834 86 834 86 862.5 99.5 c 128,-1,54
 891 113 891 113 905 141 c 128,-1,55
 919 169 919 169 919 212 c 0,56,57
 919 257 919 257 905 287 c 128,-1,58
 891 317 891 317 862.5 331.5 c 128,-1,59
 834 346 834 346 792 346 c 2,60,-1
 625 346 l 1,61,-1
 625 432 l 1,62,-1
 798 432 l 2,63,64
 873 432 873 432 927 408 c 128,-1,65
 981 384 981 384 1010.5 335 c 128,-1,66
 1040 286 1040 286 1040 212 c 0,67,68
 1040 144 1040 144 1009 96.5 c 128,-1,69
 978 49 978 49 924 24.5 c 128,-1,70
 870 0 870 0 798 0 c 2,71,-1
 466 0 l 1,30,-1
EndSplineSet
EndChar

StartChar: Tshecyr
Encoding: 1035 1035 252
Width: 914
GlyphClass: 2
Flags: W
AnchorPoint: "Anchor-0" 329 741 basechar 0
LayerCount: 2
Fore
SplineSet
563 423 m 0,0,1
 650 423 650 423 701.5 399.5 c 128,-1,2
 753 376 753 376 775.5 328 c 128,-1,3
 798 280 798 280 798 203 c 2,4,-1
 798 122 l 2,5,6
 798 100 798 100 817.5 93 c 128,-1,7
 837 86 837 86 867 86 c 2,8,-1
 877 86 l 1,9,-1
 877 0 l 1,10,-1
 682 0 l 1,11,-1
 682 198 l 2,12,13
 682 252 682 252 666 282.5 c 128,-1,14
 650 313 650 313 621 325 c 128,-1,15
 592 337 592 337 552 337 c 0,16,17
 504 337 504 337 453.5 326 c 128,-1,18
 403 315 403 315 357 286 c 1,19,-1
 357 373 l 1,20,21
 404 399 404 399 457 411 c 128,-1,22
 510 423 510 423 563 423 c 0,0,1
187 0 m 1,23,-1
 187 86 l 1,24,-1
 206 86 l 2,25,26
 238 86 238 86 261 93 c 128,-1,27
 284 100 284 100 284 122 c 2,28,-1
 284 624 l 1,29,-1
 242 624 l 2,30,31
 202 624 202 624 182 617.5 c 128,-1,32
 162 611 162 611 154.5 598.5 c 128,-1,33
 147 586 147 586 145 566 c 2,34,-1
 134 465 l 1,35,-1
 51 465 l 1,36,-1
 51 710 l 1,37,-1
 670 710 l 1,38,-1
 670 488 l 1,39,-1
 586 488 l 1,40,-1
 576 566 l 2,41,42
 573 586 573 586 566 599 c 128,-1,43
 559 612 559 612 539 618 c 128,-1,44
 519 624 519 624 479 624 c 2,45,-1
 400 624 l 1,46,-1
 400 96 l 2,47,48
 400 93 400 93 411.5 90.5 c 128,-1,49
 423 88 423 88 441 87 c 128,-1,50
 459 86 459 86 478 86 c 2,51,-1
 497 86 l 1,52,-1
 497 0 l 1,53,-1
 187 0 l 1,23,-1
EndSplineSet
EndChar

StartChar: Dzhecyr
Encoding: 1039 1039 253
Width: 831
GlyphClass: 2
Flags: W
AnchorPoint: "Anchor-0" 416 741 basechar 0
LayerCount: 2
Fore
SplineSet
56 710 m 1,0,-1
 338 710 l 1,1,-1
 338 624 l 1,2,-1
 329 624 l 2,3,4
 312 624 312 624 294 623 c 128,-1,5
 276 622 276 622 263 620 c 128,-1,6
 250 618 250 618 250 614 c 2,7,-1
 250 0 l 1,8,-1
 56 0 l 1,9,-1
 56 86 l 1,10,-1
 66 86 l 2,11,12
 93 86 93 86 114 93 c 128,-1,13
 135 100 135 100 135 122 c 2,14,-1
 135 588 l 2,15,16
 135 610 135 610 114 617 c 128,-1,17
 93 624 93 624 66 624 c 2,18,-1
 56 624 l 1,19,-1
 56 710 l 1,0,-1
494 710 m 1,20,-1
 776 710 l 1,21,-1
 776 624 l 1,22,-1
 765 624 l 2,23,24
 739 624 739 624 718 617 c 128,-1,25
 697 610 697 610 697 588 c 2,26,-1
 697 122 l 2,27,28
 697 100 697 100 718 93 c 128,-1,29
 739 86 739 86 765 86 c 2,30,-1
 776 86 l 1,31,-1
 776 0 l 1,32,-1
 581 0 l 1,33,-1
 581 614 l 2,34,35
 581 618 581 618 568.5 620 c 128,-1,36
 556 622 556 622 537.5 623 c 128,-1,37
 519 624 519 624 502 624 c 2,38,-1
 494 624 l 1,39,-1
 494 710 l 1,20,-1
197 0 m 1,40,-1
 197 87 l 1,41,-1
 635 87 l 1,42,-1
 635 0 l 1,43,-1
 595 0 l 2,44,45
 550 0 550 0 523 -5.5 c 128,-1,46
 496 -11 496 -11 483.5 -22.5 c 128,-1,47
 471 -34 471 -34 470 -54 c 2,48,-1
 457 -187 l 1,49,-1
 375 -187 l 1,50,-1
 362 -54 l 2,51,52
 361 -35 361 -35 348 -23 c 128,-1,53
 335 -11 335 -11 308 -5.5 c 128,-1,54
 281 0 281 0 236 0 c 2,55,-1
 197 0 l 1,40,-1
EndSplineSet
EndChar

StartChar: Becyr
Encoding: 1041 1041 257
Width: 690
GlyphClass: 2
Flags: W
AnchorPoint: "Anchor-0" 352 741 basechar 0
LayerCount: 2
Fore
SplineSet
56 710 m 1,0,-1
 587 710 l 1,1,-1
 587 505 l 1,2,-1
 504 505 l 1,3,-1
 493 579 l 2,4,5
 491 597 491 597 478.5 606.5 c 128,-1,6
 466 616 466 616 440.5 620 c 128,-1,7
 415 624 415 624 375 624 c 2,8,-1
 251 624 l 1,9,-1
 251 86 l 1,10,-1
 383 86 l 2,11,12
 428 86 428 86 456 99 c 128,-1,13
 484 112 484 112 497 139.5 c 128,-1,14
 510 167 510 167 510 211 c 256,15,16
 510 255 510 255 497 284.5 c 128,-1,17
 484 314 484 314 456 328.5 c 128,-1,18
 428 343 428 343 382 343 c 2,19,-1
 194 343 l 1,20,-1
 194 428 l 1,21,-1
 389 428 l 2,22,23
 465 428 465 428 519 406 c 128,-1,24
 573 384 573 384 602.5 336 c 128,-1,25
 632 288 632 288 632 211 c 0,26,27
 632 143 632 143 601 95.5 c 128,-1,28
 570 48 570 48 515.5 24 c 128,-1,29
 461 0 461 0 389 0 c 2,30,-1
 56 0 l 1,31,-1
 56 85 l 1,32,-1
 66 85 l 2,33,34
 93 85 93 85 114 92 c 128,-1,35
 135 99 135 99 135 121 c 2,36,-1
 135 590 l 2,37,38
 135 610 135 610 114 617.5 c 128,-1,39
 93 625 93 625 66 625 c 2,40,-1
 56 625 l 1,41,-1
 56 710 l 1,0,-1
EndSplineSet
EndChar

StartChar: Gecyr
Encoding: 1043 1043 259
Width: 649
GlyphClass: 2
Flags: W
AnchorPoint: "Anchor-0" 331 741 basechar 0
LayerCount: 2
Fore
SplineSet
250 624 m 1,0,-1
 250 122 l 2,1,2
 250 108 250 108 260.5 100 c 128,-1,3
 271 92 271 92 289.5 89 c 128,-1,4
 308 86 308 86 330 86 c 2,5,-1
 357 86 l 1,6,-1
 357 0 l 1,7,-1
 56 0 l 1,8,-1
 56 86 l 1,9,-1
 66 86 l 2,10,11
 93 86 93 86 114 93 c 128,-1,12
 135 100 135 100 135 122 c 2,13,-1
 135 588 l 2,14,15
 135 610 135 610 114 617 c 128,-1,16
 93 624 93 624 66 624 c 2,17,-1
 56 624 l 1,18,-1
 56 710 l 1,19,-1
 598 710 l 1,20,-1
 598 465 l 1,21,-1
 514 465 l 1,22,-1
 503 566 l 2,23,24
 501 588 501 588 491 601 c 128,-1,25
 481 614 481 614 458 619 c 128,-1,26
 435 624 435 624 394 624 c 2,27,-1
 250 624 l 1,0,-1
EndSplineSet
EndChar

StartChar: Decyr
Encoding: 1044 1044 261
Width: 812
GlyphClass: 2
Flags: W
AnchorPoint: "Anchor-0" 439 741 basechar 0
LayerCount: 2
Fore
SplineSet
243 710 m 1,0,-1
 614 710 l 1,1,-1
 614 623 l 1,2,-1
 243 623 l 1,3,-1
 243 710 l 1,0,-1
675 0 m 1,4,-1
 559 0 l 1,5,-1
 559 710 l 1,6,-1
 754 710 l 1,7,-1
 754 624 l 1,8,-1
 744 624 l 2,9,10
 714 624 714 624 694.5 617 c 128,-1,11
 675 610 675 610 675 588 c 2,12,-1
 675 0 l 1,4,-1
670 -53 m 2,13,14
 669 -35 669 -35 656.5 -23.5 c 128,-1,15
 644 -12 644 -12 617.5 -6 c 128,-1,16
 591 0 591 0 546 0 c 2,17,-1
 250 0 l 2,18,19
 206 0 206 0 179.5 -6 c 128,-1,20
 153 -12 153 -12 140.5 -23 c 128,-1,21
 128 -34 128 -34 126 -51 c 2,22,-1
 114 -187 l 1,23,-1
 30 -187 l 1,24,-1
 30 87 l 1,25,-1
 766 87 l 1,26,-1
 766 -187 l 1,27,-1
 683 -187 l 1,28,-1
 670 -53 l 2,13,14
183 34 m 1,29,-1
 73 34 l 1,30,31
 94 61 94 61 110.5 91 c 128,-1,32
 127 121 127 121 139 160 c 128,-1,33
 151 199 151 199 160 251 c 128,-1,34
 169 303 169 303 174 375 c 2,35,-1
 192 588 l 2,36,37
 194 610 194 610 174.5 617 c 128,-1,38
 155 624 155 624 126 624 c 2,39,-1
 116 624 l 1,40,-1
 116 710 l 1,41,-1
 298 710 l 1,42,-1
 272 373 l 2,43,44
 264 280 264 280 252.5 217 c 128,-1,45
 241 154 241 154 224 110.5 c 128,-1,46
 207 67 207 67 183 34 c 1,29,-1
EndSplineSet
Substitution2: "'locl' Localized Forms in Cyrillic lookup 12 subtable" De.bgr
EndChar

StartChar: Zhecyr
Encoding: 1046 1046 266
Width: 1117
GlyphClass: 2
Flags: W
AnchorPoint: "Anchor-1" 548 0 basechar 0
AnchorPoint: "Anchor-0" 548 741 basechar 0
LayerCount: 2
Fore
SplineSet
794 0 m 1,0,-1
 794 86 l 1,1,-1
 803 86 l 2,2,3
 822 86 822 86 838.5 87 c 128,-1,4
 855 88 855 88 866 90.5 c 128,-1,5
 877 93 877 93 877 96 c 2,6,-1
 658 345 l 1,7,-1
 658 372 l 1,8,-1
 890 613 l 2,9,10
 890 617 890 617 879.5 619 c 128,-1,11
 869 621 869 621 853 622.5 c 128,-1,12
 837 624 837 624 819 624 c 2,13,-1
 809 624 l 1,14,-1
 809 710 l 1,15,-1
 1064 710 l 1,16,-1
 1064 624 l 1,17,-1
 1037 624 l 2,18,19
 1028 624 1028 624 1018.5 621.5 c 128,-1,20
 1009 619 1009 619 998.5 612.5 c 128,-1,21
 988 606 988 606 978 595 c 2,22,-1
 747 356 l 1,23,-1
 748 406 l 1,24,-1
 1012 106 l 2,25,26
 1020 97 1020 97 1029.5 92.5 c 128,-1,27
 1039 88 1039 88 1050 87 c 128,-1,28
 1061 86 1061 86 1072 86 c 2,29,-1
 1090 86 l 1,30,-1
 1090 0 l 1,31,-1
 794 0 l 1,0,-1
318 0 m 1,32,-1
 27 0 l 1,33,-1
 27 86 l 1,34,-1
 45 86 l 2,35,36
 57 86 57 86 67.5 87 c 128,-1,37
 78 88 78 88 87.5 92.5 c 128,-1,38
 97 97 97 97 105 106 c 2,39,-1
 369 406 l 1,40,-1
 363 356 l 1,41,-1
 132 595 l 2,42,43
 121 606 121 606 111 612.5 c 128,-1,44
 101 619 101 619 91.5 621.5 c 128,-1,45
 82 624 82 624 72 624 c 2,46,-1
 45 624 l 1,47,-1
 45 710 l 1,48,-1
 302 710 l 1,49,-1
 302 624 l 1,50,-1
 293 624 l 2,51,52
 276 624 276 624 259.5 622.5 c 128,-1,53
 243 621 243 621 232.5 619 c 128,-1,54
 222 617 222 617 222 613 c 2,55,-1
 454 372 l 1,56,-1
 454 345 l 1,57,-1
 235 96 l 2,58,59
 235 93 235 93 246 90.5 c 128,-1,60
 257 88 257 88 274 87 c 128,-1,61
 291 86 291 86 309 86 c 2,62,-1
 318 86 l 1,63,-1
 318 0 l 1,32,-1
416 0 m 1,64,-1
 416 86 l 1,65,-1
 425 86 l 2,66,67
 437 86 437 86 449.5 86.5 c 128,-1,68
 462 87 462 87 473 88.5 c 128,-1,69
 484 90 484 90 491 91.5 c 128,-1,70
 498 93 498 93 498 96 c 2,71,-1
 498 615 l 2,72,73
 498 617 498 617 491.5 618.5 c 128,-1,74
 485 620 485 620 473.5 621.5 c 128,-1,75
 462 623 462 623 449 623.5 c 128,-1,76
 436 624 436 624 424 624 c 2,77,-1
 415 624 l 1,78,-1
 415 710 l 1,79,-1
 696 710 l 1,80,-1
 696 624 l 1,81,-1
 688 624 l 2,82,83
 676 624 676 624 663 623.5 c 128,-1,84
 650 623 650 623 638.5 621.5 c 128,-1,85
 627 620 627 620 620.5 618.5 c 128,-1,86
 614 617 614 617 614 614 c 2,87,-1
 614 95 l 2,88,89
 614 93 614 93 620.5 91.5 c 128,-1,90
 627 90 627 90 638 88.5 c 128,-1,91
 649 87 649 87 662.5 86.5 c 128,-1,92
 676 86 676 86 687 86 c 2,93,-1
 696 86 l 1,94,-1
 696 0 l 1,95,-1
 416 0 l 1,64,-1
EndSplineSet
EndChar

StartChar: Zecyr
Encoding: 1047 1047 269
Width: 708
GlyphClass: 2
Flags: W
AnchorPoint: "Anchor-1" 382 0 basechar 0
AnchorPoint: "Anchor-0" 382 741 basechar 0
LayerCount: 2
Fore
SplineSet
400 -25 m 0,0,1
 326 -25 326 -25 274.5 -0.5 c 128,-1,2
 223 24 223 24 194 74.5 c 128,-1,3
 165 125 165 125 158 202 c 1,4,-1
 181 164 l 1,5,-1
 166 -10 l 1,6,-1
 84 -10 l 1,7,-1
 84 240 l 1,8,-1
 176 240 l 1,9,10
 192 187 192 187 220 147.5 c 128,-1,11
 248 108 248 108 290.5 86 c 128,-1,12
 333 64 333 64 392 64 c 0,13,14
 438 64 438 64 467 78 c 128,-1,15
 496 92 496 92 510 120.5 c 128,-1,16
 524 149 524 149 524 190 c 0,17,18
 524 226 524 226 510.5 254.5 c 128,-1,19
 497 283 497 283 465 299 c 128,-1,20
 433 315 433 315 376 313 c 0,21,22
 362 312 362 312 347 311.5 c 128,-1,23
 332 311 332 311 316.5 310 c 128,-1,24
 301 309 301 309 287 308 c 1,25,-1
 287 420 l 1,26,27
 302 419 302 419 317 418.5 c 128,-1,28
 332 418 332 418 347 417.5 c 128,-1,29
 362 417 362 417 377 416 c 0,30,31
 423 414 423 414 451 429.5 c 128,-1,32
 479 445 479 445 491 473.5 c 128,-1,33
 503 502 503 502 503 539 c 0,34,35
 503 571 503 571 492.5 595.5 c 128,-1,36
 482 620 482 620 458 634 c 128,-1,37
 434 648 434 648 393 648 c 0,38,39
 340 648 340 648 299 628 c 128,-1,40
 258 608 258 608 230 568.5 c 128,-1,41
 202 529 202 529 186 470 c 1,42,-1
 94 470 l 1,43,-1
 94 720 l 1,44,-1
 176 720 l 1,45,-1
 191 546 l 1,46,-1
 168 507 l 1,47,48
 173 565 173 565 191.5 608 c 128,-1,49
 210 651 210 651 240 679 c 128,-1,50
 270 707 270 707 310 721 c 128,-1,51
 350 735 350 735 399 735 c 0,52,53
 474 735 474 735 524 710 c 128,-1,54
 574 685 574 685 598.5 643 c 128,-1,55
 623 601 623 601 623 547 c 0,56,57
 623 496 623 496 597.5 456.5 c 128,-1,58
 572 417 572 417 529.5 394.5 c 128,-1,59
 487 372 487 372 436 371 c 1,60,-1
 445 390 l 1,61,-1
 445 342 l 1,62,-1
 436 366 l 1,63,64
 498 365 498 365 545 342.5 c 128,-1,65
 592 320 592 320 618 279.5 c 128,-1,66
 644 239 644 239 644 184 c 0,67,68
 644 136 644 136 627.5 97.5 c 128,-1,69
 611 59 611 59 579 31.5 c 128,-1,70
 547 4 547 4 502 -10.5 c 128,-1,71
 457 -25 457 -25 400 -25 c 0,0,1
EndSplineSet
EndChar

StartChar: Icyr
Encoding: 1048 1048 270
Width: 858
GlyphClass: 2
Flags: W
AnchorPoint: "Anchor-0" 429 741 basechar 0
LayerCount: 2
Fore
SplineSet
198 202 m 1,0,-1
 607 580 l 1,1,-1
 660 519 l 1,2,-1
 250 140 l 1,3,-1
 198 202 l 1,0,-1
56 0 m 1,4,-1
 56 86 l 1,5,-1
 66 86 l 2,6,7
 93 86 93 86 114 93 c 128,-1,8
 135 100 135 100 135 122 c 2,9,-1
 135 588 l 2,10,11
 135 610 135 610 114 617 c 128,-1,12
 93 624 93 624 66 624 c 2,13,-1
 56 624 l 1,14,-1
 56 710 l 1,15,-1
 338 710 l 1,16,-1
 338 624 l 1,17,-1
 329 624 l 2,18,19
 312 624 312 624 294 623 c 128,-1,20
 276 622 276 622 263 620 c 128,-1,21
 250 618 250 618 250 614 c 2,22,-1
 250 95 l 2,23,24
 250 93 250 93 263 90.5 c 128,-1,25
 276 88 276 88 294 87 c 128,-1,26
 312 86 312 86 329 86 c 2,27,-1
 338 86 l 1,28,-1
 338 0 l 1,29,-1
 56 0 l 1,4,-1
520 0 m 1,30,-1
 520 86 l 1,31,-1
 529 86 l 2,32,33
 546 86 546 86 564 87 c 128,-1,34
 582 88 582 88 594.5 90.5 c 128,-1,35
 607 93 607 93 607 96 c 2,36,-1
 607 615 l 2,37,38
 607 618 607 618 594.5 620 c 128,-1,39
 582 622 582 622 564 623 c 128,-1,40
 546 624 546 624 529 624 c 2,41,-1
 520 624 l 1,42,-1
 520 710 l 1,43,-1
 802 710 l 1,44,-1
 802 624 l 1,45,-1
 792 624 l 2,46,47
 765 624 765 624 744 617 c 128,-1,48
 723 610 723 610 723 588 c 2,49,-1
 723 122 l 2,50,51
 723 100 723 100 744 93 c 128,-1,52
 765 86 765 86 792 86 c 2,53,-1
 802 86 l 1,54,-1
 802 0 l 1,55,-1
 520 0 l 1,30,-1
EndSplineSet
EndChar

StartChar: Elcyr
Encoding: 1051 1051 276
Width: 795
GlyphClass: 2
Flags: W
AnchorPoint: "Anchor-0" 438 741 basechar 0
LayerCount: 2
Fore
SplineSet
258 710 m 1,0,-1
 601 710 l 1,1,-1
 601 623 l 1,2,-1
 258 623 l 1,3,-1
 258 710 l 1,0,-1
457 0 m 1,4,-1
 457 86 l 1,5,-1
 466 86 l 2,6,7
 483 86 483 86 501 87 c 128,-1,8
 519 88 519 88 532 90.5 c 128,-1,9
 545 93 545 93 545 96 c 2,10,-1
 545 710 l 1,11,-1
 739 710 l 1,12,-1
 739 624 l 1,13,-1
 729 624 l 2,14,15
 702 624 702 624 681 617 c 128,-1,16
 660 610 660 610 660 588 c 2,17,-1
 660 122 l 2,18,19
 660 100 660 100 681 93 c 128,-1,20
 702 86 702 86 729 86 c 2,21,-1
 739 86 l 1,22,-1
 739 0 l 1,23,-1
 457 0 l 1,4,-1
176 280 m 2,24,-1
 200 588 l 2,25,26
 202 610 202 610 182 617 c 128,-1,27
 162 624 162 624 135 624 c 2,28,-1
 124 624 l 1,29,-1
 124 710 l 1,30,-1
 305 710 l 1,31,-1
 273 275 l 2,32,33
 266 172 266 172 242.5 108 c 128,-1,34
 219 44 219 44 180 14.5 c 128,-1,35
 141 -15 141 -15 82 -15 c 0,36,37
 58 -15 58 -15 41.5 -10 c 128,-1,38
 25 -5 25 -5 14 0 c 1,39,-1
 14 110 l 1,40,41
 22 106 22 106 38 100.5 c 128,-1,42
 54 95 54 95 77 95 c 0,43,44
 105 95 105 95 125 113.5 c 128,-1,45
 145 132 145 132 158.5 172.5 c 128,-1,46
 172 213 172 213 176 280 c 2,24,-1
EndSplineSet
Substitution2: "'locl' Localized Forms in Cyrillic lookup 12 subtable" El.bgr
EndChar

StartChar: Pecyr
Encoding: 1055 1055 281
Width: 831
GlyphClass: 2
Flags: W
AnchorPoint: "Anchor-0" 416 741 basechar 0
LayerCount: 2
Fore
SplineSet
196 710 m 1,0,-1
 633 710 l 1,1,-1
 633 623 l 1,2,-1
 196 623 l 1,3,-1
 196 710 l 1,0,-1
56 0 m 1,4,-1
 56 86 l 1,5,-1
 66 86 l 2,6,7
 93 86 93 86 114 93 c 128,-1,8
 135 100 135 100 135 122 c 2,9,-1
 135 588 l 2,10,11
 135 610 135 610 114 617 c 128,-1,12
 93 624 93 624 66 624 c 2,13,-1
 56 624 l 1,14,-1
 56 710 l 1,15,-1
 250 710 l 1,16,-1
 250 96 l 2,17,18
 250 93 250 93 263 90.5 c 128,-1,19
 276 88 276 88 294 87 c 128,-1,20
 312 86 312 86 329 86 c 2,21,-1
 338 86 l 1,22,-1
 338 0 l 1,23,-1
 56 0 l 1,4,-1
494 0 m 1,24,-1
 494 86 l 1,25,-1
 502 86 l 2,26,27
 519 86 519 86 537.5 87 c 128,-1,28
 556 88 556 88 568.5 90.5 c 128,-1,29
 581 93 581 93 581 96 c 2,30,-1
 581 710 l 1,31,-1
 776 710 l 1,32,-1
 776 624 l 1,33,-1
 765 624 l 2,34,35
 739 624 739 624 718 617 c 128,-1,36
 697 610 697 610 697 588 c 2,37,-1
 697 122 l 2,38,39
 697 100 697 100 718 93 c 128,-1,40
 739 86 739 86 765 86 c 2,41,-1
 776 86 l 1,42,-1
 776 0 l 1,43,-1
 494 0 l 1,24,-1
EndSplineSet
EndChar

StartChar: Ucyr
Encoding: 1059 1059 285
Width: 698
GlyphClass: 2
Flags: W
AnchorPoint: "Anchor-1" 230 0 basechar 0
AnchorPoint: "Anchor-0" 356 741 basechar 0
LayerCount: 2
Fore
SplineSet
415 199 m 2,0,1
 386 138 386 138 362 96 c 128,-1,2
 338 54 338 54 314 29.5 c 128,-1,3
 290 5 290 5 264 -6 c 128,-1,4
 238 -17 238 -17 205 -17 c 0,5,6
 180 -17 180 -17 162.5 -12 c 128,-1,7
 145 -7 145 -7 134 -1 c 1,8,-1
 134 105 l 1,9,10
 142 101 142 101 161 95 c 128,-1,11
 180 89 180 89 203 89 c 0,12,13
 231 89 231 89 253.5 100.5 c 128,-1,14
 276 112 276 112 297.5 142.5 c 128,-1,15
 319 173 319 173 343 227 c 2,16,-1
 512 602 l 2,17,18
 512 609 512 609 503.5 613.5 c 128,-1,19
 495 618 495 618 482.5 621 c 128,-1,20
 470 624 470 624 458 624 c 2,21,-1
 448 624 l 1,22,-1
 448 710 l 1,23,-1
 670 710 l 1,24,-1
 670 624 l 1,25,-1
 659 624 l 2,26,27
 644 624 644 624 632 618.5 c 128,-1,28
 620 613 620 613 610 602 c 128,-1,29
 600 591 600 591 593 574 c 2,30,-1
 415 199 l 2,0,1
386 231 m 1,31,-1
 318 138 l 1,32,-1
 103 585 l 2,33,34
 95 601 95 601 86.5 609 c 128,-1,35
 78 617 78 617 66.5 620.5 c 128,-1,36
 55 624 55 624 39 624 c 2,37,-1
 28 624 l 1,38,-1
 28 710 l 1,39,-1
 284 710 l 1,40,-1
 284 624 l 1,41,-1
 268 624 l 2,42,43
 254 624 254 624 239.5 622.5 c 128,-1,44
 225 621 225 621 215 619 c 128,-1,45
 205 617 205 617 205 613 c 2,46,-1
 386 231 l 1,31,-1
EndSplineSet
EndChar

StartChar: Efcyr
Encoding: 1060 1060 290
Width: 909
GlyphClass: 2
Flags: W
AnchorPoint: "Anchor-1" 455 0 basechar 0
AnchorPoint: "Anchor-0" 455 741 basechar 0
LayerCount: 2
Fore
SplineSet
401 96 m 2,0,-1
 401 614 l 2,1,2
 401 636 401 636 379 643 c 128,-1,3
 357 650 357 650 323 650 c 2,4,-1
 304 650 l 1,5,-1
 304 735 l 1,6,-1
 605 735 l 1,7,-1
 605 650 l 1,8,-1
 585 650 l 2,9,10
 552 650 552 650 530 643 c 128,-1,11
 508 636 508 636 508 614 c 2,12,-1
 508 96 l 2,13,14
 508 74 508 74 530 67 c 128,-1,15
 552 60 552 60 585 60 c 2,16,-1
 605 60 l 1,17,-1
 605 -25 l 1,18,-1
 304 -25 l 1,19,-1
 304 60 l 1,20,-1
 323 60 l 2,21,22
 357 60 357 60 379 67 c 128,-1,23
 401 74 401 74 401 96 c 2,0,-1
413 604 m 1,24,-1
 413 516 l 1,25,26
 324 516 324 516 270.5 498.5 c 128,-1,27
 217 481 217 481 193.5 446.5 c 128,-1,28
 170 412 170 412 170 360 c 256,29,30
 170 308 170 308 193.5 273 c 128,-1,31
 217 238 217 238 270.5 220.5 c 128,-1,32
 324 203 324 203 413 203 c 1,33,-1
 413 115 l 1,34,35
 289 115 289 115 208 144.5 c 128,-1,36
 127 174 127 174 87 228.5 c 128,-1,37
 47 283 47 283 47 360 c 0,38,39
 47 436 47 436 87 490.5 c 128,-1,40
 127 545 127 545 208.5 574.5 c 128,-1,41
 290 604 290 604 413 604 c 1,24,-1
496 115 m 1,42,-1
 496 203 l 1,43,44
 586 203 586 203 639 220.5 c 128,-1,45
 692 238 692 238 715.5 273 c 128,-1,46
 739 308 739 308 739 360 c 256,47,48
 739 412 739 412 715.5 446.5 c 128,-1,49
 692 481 692 481 639 498.5 c 128,-1,50
 586 516 586 516 496 516 c 1,51,-1
 496 604 l 1,52,53
 620 604 620 604 701 574.5 c 128,-1,54
 782 545 782 545 822 490.5 c 128,-1,55
 862 436 862 436 862 359 c 0,56,57
 862 283 862 283 822 228.5 c 128,-1,58
 782 174 782 174 700.5 144.5 c 128,-1,59
 619 115 619 115 496 115 c 1,42,-1
EndSplineSet
EndChar

StartChar: Tsecyr
Encoding: 1062 1062 292
Width: 833
GlyphClass: 2
Flags: W
AnchorPoint: "Anchor-0" 417 741 basechar 0
LayerCount: 2
Fore
SplineSet
207 0 m 1,0,-1
 207 87 l 1,1,-1
 626 87 l 1,2,-1
 626 0 l 1,3,-1
 207 0 l 1,0,-1
56 710 m 1,4,-1
 338 710 l 1,5,-1
 338 624 l 1,6,-1
 329 624 l 2,7,8
 312 624 312 624 294 623 c 128,-1,9
 276 622 276 622 263 620 c 128,-1,10
 250 618 250 618 250 614 c 2,11,-1
 250 0 l 1,12,-1
 56 0 l 1,13,-1
 56 86 l 1,14,-1
 66 86 l 2,15,16
 93 86 93 86 114 93 c 128,-1,17
 135 100 135 100 135 122 c 2,18,-1
 135 588 l 2,19,20
 135 610 135 610 114 617 c 128,-1,21
 93 624 93 624 66 624 c 2,22,-1
 56 624 l 1,23,-1
 56 710 l 1,4,-1
494 710 m 1,24,-1
 776 710 l 1,25,-1
 776 624 l 1,26,-1
 765 624 l 2,27,28
 739 624 739 624 718 617 c 128,-1,29
 697 610 697 610 697 588 c 2,30,-1
 697 0 l 1,31,-1
 581 0 l 1,32,-1
 581 614 l 2,33,34
 581 618 581 618 568.5 620 c 128,-1,35
 556 622 556 622 537.5 623 c 128,-1,36
 519 624 519 624 502 624 c 2,37,-1
 494 624 l 1,38,-1
 494 710 l 1,24,-1
536 0 m 1,39,-1
 536 87 l 1,40,-1
 788 87 l 1,41,-1
 788 -187 l 1,42,-1
 705 -187 l 1,43,-1
 692 -54 l 2,44,45
 691 -35 691 -35 678 -23 c 128,-1,46
 665 -11 665 -11 638 -5.5 c 128,-1,47
 611 0 611 0 566 0 c 2,48,-1
 536 0 l 1,39,-1
EndSplineSet
EndChar

StartChar: Checyr
Encoding: 1063 1063 293
Width: 790
GlyphClass: 2
Flags: W
AnchorPoint: "Anchor-0" 387 741 basechar 0
LayerCount: 2
Fore
SplineSet
453 0 m 1,0,-1
 453 86 l 1,1,-1
 461 86 l 2,2,3
 479 86 479 86 497 87 c 128,-1,4
 515 88 515 88 527.5 90.5 c 128,-1,5
 540 93 540 93 540 96 c 2,6,-1
 540 615 l 2,7,8
 540 618 540 618 527.5 620 c 128,-1,9
 515 622 515 622 497 623 c 128,-1,10
 479 624 479 624 461 624 c 2,11,-1
 453 624 l 1,12,-1
 453 710 l 1,13,-1
 735 710 l 1,14,-1
 735 624 l 1,15,-1
 724 624 l 2,16,17
 698 624 698 624 677 617 c 128,-1,18
 656 610 656 610 656 588 c 2,19,-1
 656 122 l 2,20,21
 656 100 656 100 677 93 c 128,-1,22
 698 86 698 86 724 86 c 2,23,-1
 735 86 l 1,24,-1
 735 0 l 1,25,-1
 453 0 l 1,0,-1
359 268 m 0,26,27
 272 268 272 268 218.5 289.5 c 128,-1,28
 165 311 165 311 140.5 359.5 c 128,-1,29
 116 408 116 408 116 489 c 2,30,-1
 116 588 l 2,31,32
 116 610 116 610 95 617 c 128,-1,33
 74 624 74 624 47 624 c 2,34,-1
 37 624 l 1,35,-1
 37 710 l 1,36,-1
 319 710 l 1,37,-1
 319 624 l 1,38,-1
 310 624 l 2,39,40
 293 624 293 624 275 623 c 128,-1,41
 257 622 257 622 244 620 c 128,-1,42
 231 618 231 618 231 614 c 2,43,-1
 231 494 l 2,44,45
 231 443 231 443 244.5 412 c 128,-1,46
 258 381 258 381 288.5 367.5 c 128,-1,47
 319 354 319 354 371 354 c 0,48,49
 422 354 422 354 477 365 c 128,-1,50
 532 376 532 376 579 404 c 1,51,-1
 579 317 l 1,52,53
 530 292 530 292 472.5 280 c 128,-1,54
 415 268 415 268 359 268 c 0,26,27
EndSplineSet
EndChar

StartChar: Shacyr
Encoding: 1064 1064 294
Width: 1153
GlyphClass: 2
Flags: W
AnchorPoint: "Anchor-0" 565 741 basechar 0
LayerCount: 2
Fore
SplineSet
938 0 m 1,0,-1
 213 0 l 1,1,-1
 213 87 l 1,2,-1
 938 87 l 1,3,-1
 938 0 l 1,0,-1
1098 710 m 1,4,-1
 1098 624 l 1,5,-1
 1087 624 l 2,6,7
 1060 624 1060 624 1039 617 c 128,-1,8
 1018 610 1018 610 1018 588 c 2,9,-1
 1018 122 l 2,10,11
 1018 100 1018 100 1039 93 c 128,-1,12
 1060 86 1060 86 1087 86 c 2,13,-1
 1098 86 l 1,14,-1
 1098 0 l 1,15,-1
 903 0 l 1,16,-1
 903 614 l 2,17,18
 903 618 903 618 890.5 620 c 128,-1,19
 878 622 878 622 859.5 623 c 128,-1,20
 841 624 841 624 824 624 c 2,21,-1
 815 624 l 1,22,-1
 815 710 l 1,23,-1
 1098 710 l 1,4,-1
338 710 m 1,24,-1
 338 624 l 1,25,-1
 329 624 l 2,26,27
 312 624 312 624 294 623 c 128,-1,28
 276 622 276 622 263 620 c 128,-1,29
 250 618 250 618 250 614 c 2,30,-1
 250 0 l 1,31,-1
 56 0 l 1,32,-1
 56 86 l 1,33,-1
 66 86 l 2,34,35
 93 86 93 86 114 93 c 128,-1,36
 135 100 135 100 135 122 c 2,37,-1
 135 588 l 2,38,39
 135 610 135 610 114 617 c 128,-1,40
 93 624 93 624 66 624 c 2,41,-1
 56 624 l 1,42,-1
 56 710 l 1,43,-1
 338 710 l 1,24,-1
436 710 m 1,44,-1
 717 710 l 1,45,-1
 717 624 l 1,46,-1
 709 624 l 2,47,48
 692 624 692 624 675.5 623 c 128,-1,49
 659 622 659 622 646.5 620 c 128,-1,50
 634 618 634 618 634 614 c 2,51,-1
 634 0 l 1,52,-1
 519 0 l 1,53,-1
 519 614 l 2,54,55
 519 618 519 618 507 620 c 128,-1,56
 495 622 495 622 478 623 c 128,-1,57
 461 624 461 624 445 624 c 2,58,-1
 436 624 l 1,59,-1
 436 710 l 1,44,-1
EndSplineSet
EndChar

StartChar: Shchacyr
Encoding: 1065 1065 295
Width: 1155
GlyphClass: 2
Flags: W
AnchorPoint: "Anchor-0" 566 741 basechar 0
LayerCount: 2
Fore
SplineSet
951 0 m 1,0,-1
 213 0 l 1,1,-1
 213 87 l 1,2,-1
 951 87 l 1,3,-1
 951 0 l 1,0,-1
338 710 m 1,4,-1
 338 624 l 1,5,-1
 329 624 l 2,6,7
 312 624 312 624 294 623 c 128,-1,8
 276 622 276 622 263 620 c 128,-1,9
 250 618 250 618 250 614 c 2,10,-1
 250 0 l 1,11,-1
 56 0 l 1,12,-1
 56 86 l 1,13,-1
 66 86 l 2,14,15
 93 86 93 86 114 93 c 128,-1,16
 135 100 135 100 135 122 c 2,17,-1
 135 588 l 2,18,19
 135 610 135 610 114 617 c 128,-1,20
 93 624 93 624 66 624 c 2,21,-1
 56 624 l 1,22,-1
 56 710 l 1,23,-1
 338 710 l 1,4,-1
815 710 m 1,24,-1
 1098 710 l 1,25,-1
 1098 624 l 1,26,-1
 1087 624 l 2,27,28
 1060 624 1060 624 1039 617 c 128,-1,29
 1018 610 1018 610 1018 588 c 2,30,-1
 1018 0 l 1,31,-1
 903 0 l 1,32,-1
 903 614 l 2,33,34
 903 618 903 618 890.5 620 c 128,-1,35
 878 622 878 622 859.5 623 c 128,-1,36
 841 624 841 624 824 624 c 2,37,-1
 815 624 l 1,38,-1
 815 710 l 1,24,-1
889 0 m 2,39,-1
 858 0 l 1,40,-1
 858 87 l 1,41,-1
 1110 87 l 1,42,-1
 1110 -187 l 1,43,-1
 1026 -187 l 1,44,-1
 1014 -53 l 2,45,46
 1012 -35 1012 -35 1000 -23.5 c 128,-1,47
 988 -12 988 -12 961 -6 c 128,-1,48
 934 0 934 0 889 0 c 2,39,-1
436 710 m 1,49,-1
 717 710 l 1,50,-1
 717 624 l 1,51,-1
 709 624 l 2,52,53
 692 624 692 624 675.5 623 c 128,-1,54
 659 622 659 622 646.5 620 c 128,-1,55
 634 618 634 618 634 614 c 2,56,-1
 634 0 l 1,57,-1
 519 0 l 1,58,-1
 519 614 l 2,59,60
 519 618 519 618 507 620 c 128,-1,61
 495 622 495 622 478 623 c 128,-1,62
 461 624 461 624 445 624 c 2,63,-1
 436 624 l 1,64,-1
 436 710 l 1,49,-1
EndSplineSet
EndChar

StartChar: Hardcyr
Encoding: 1066 1066 296
Width: 812
GlyphClass: 2
Flags: W
AnchorPoint: "Anchor-0" 284 741 basechar 0
LayerCount: 2
Fore
SplineSet
518 0 m 2,0,-1
 185 0 l 1,1,-1
 185 85 l 1,2,-1
 195 85 l 2,3,4
 222 85 222 85 243.5 92 c 128,-1,5
 265 99 265 99 265 121 c 2,6,-1
 265 624 l 1,7,-1
 242 624 l 2,8,9
 202 624 202 624 182 617.5 c 128,-1,10
 162 611 162 611 154.5 598.5 c 128,-1,11
 147 586 147 586 145 566 c 2,12,-1
 134 465 l 1,13,-1
 51 465 l 1,14,-1
 51 710 l 1,15,-1
 486 710 l 1,16,-1
 486 624 l 1,17,-1
 466 624 l 2,18,19
 444 624 444 624 424.5 623 c 128,-1,20
 405 622 405 622 393 620 c 128,-1,21
 381 618 381 618 381 614 c 2,22,-1
 381 86 l 1,23,-1
 512 86 l 2,24,25
 557 86 557 86 585 100 c 128,-1,26
 613 114 613 114 626 143 c 128,-1,27
 639 172 639 172 639 217 c 0,28,29
 639 263 639 263 626 294 c 128,-1,30
 613 325 613 325 585 339.5 c 128,-1,31
 557 354 557 354 512 354 c 2,32,-1
 322 354 l 1,33,-1
 322 440 l 1,34,-1
 518 440 l 2,35,36
 593 440 593 440 647 416.5 c 128,-1,37
 701 393 701 393 730.5 343.5 c 128,-1,38
 760 294 760 294 760 216 c 0,39,40
 760 147 760 147 729 98.5 c 128,-1,41
 698 50 698 50 643.5 25 c 128,-1,42
 589 0 589 0 518 0 c 2,0,-1
EndSplineSet
EndChar

StartChar: Ylongcyr
Encoding: 1067 1067 297
Width: 1004
GlyphClass: 2
Flags: W
AnchorPoint: "Anchor-1" 492 0 basechar 0
AnchorPoint: "Anchor-0" 492 741 basechar 0
LayerCount: 2
Fore
SplineSet
753 96 m 2,0,-1
 753 615 l 2,1,2
 753 618 753 618 740.5 620 c 128,-1,3
 728 622 728 622 710 623 c 128,-1,4
 692 624 692 624 675 624 c 2,5,-1
 666 624 l 1,6,-1
 666 710 l 1,7,-1
 948 710 l 1,8,-1
 948 624 l 1,9,-1
 937 624 l 2,10,11
 910 624 910 624 889.5 617 c 128,-1,12
 869 610 869 610 869 588 c 2,13,-1
 869 122 l 2,14,15
 869 100 869 100 889.5 93 c 128,-1,16
 910 86 910 86 937 86 c 2,17,-1
 948 86 l 1,18,-1
 948 0 l 1,19,-1
 666 0 l 1,20,-1
 666 86 l 1,21,-1
 675 86 l 2,22,23
 692 86 692 86 710 87 c 128,-1,24
 728 88 728 88 740.5 90.5 c 128,-1,25
 753 93 753 93 753 96 c 2,0,-1
389 0 m 2,26,-1
 56 0 l 1,27,-1
 56 85 l 1,28,-1
 66 85 l 2,29,30
 93 85 93 85 114 92 c 128,-1,31
 135 99 135 99 135 122 c 2,32,-1
 135 589 l 2,33,34
 135 611 135 611 114 618 c 128,-1,35
 93 625 93 625 66 625 c 2,36,-1
 56 625 l 1,37,-1
 56 710 l 1,38,-1
 357 710 l 1,39,-1
 357 624 l 1,40,-1
 337 624 l 2,41,42
 315 624 315 624 295.5 623 c 128,-1,43
 276 622 276 622 263.5 620 c 128,-1,44
 251 618 251 618 251 614 c 2,45,-1
 251 86 l 1,46,-1
 383 86 l 2,47,48
 429 86 429 86 457 100 c 128,-1,49
 485 114 485 114 498 143 c 128,-1,50
 511 172 511 172 511 216 c 0,51,52
 511 263 511 263 498 294 c 128,-1,53
 485 325 485 325 456.5 339.5 c 128,-1,54
 428 354 428 354 383 354 c 2,55,-1
 220 354 l 1,56,-1
 220 440 l 1,57,-1
 390 440 l 2,58,59
 464 440 464 440 518 416.5 c 128,-1,60
 572 393 572 393 601.5 343.5 c 128,-1,61
 631 294 631 294 631 217 c 0,62,63
 631 147 631 147 600 98.5 c 128,-1,64
 569 50 569 50 515 25 c 128,-1,65
 461 0 461 0 389 0 c 2,26,-1
EndSplineSet
EndChar

StartChar: Softcyr
Encoding: 1068 1068 298
Width: 683
GlyphClass: 2
Flags: W
AnchorPoint: "Anchor-0" 198 741 basechar 0
LayerCount: 2
Fore
SplineSet
389 0 m 2,0,-1
 56 0 l 1,1,-1
 56 85 l 1,2,-1
 66 85 l 2,3,4
 93 85 93 85 114 92 c 128,-1,5
 135 99 135 99 135 122 c 2,6,-1
 135 589 l 2,7,8
 135 611 135 611 114 618 c 128,-1,9
 93 625 93 625 66 625 c 2,10,-1
 56 625 l 1,11,-1
 56 710 l 1,12,-1
 357 710 l 1,13,-1
 357 624 l 1,14,-1
 337 624 l 2,15,16
 315 624 315 624 295.5 623 c 128,-1,17
 276 622 276 622 263.5 620 c 128,-1,18
 251 618 251 618 251 614 c 2,19,-1
 251 86 l 1,20,-1
 383 86 l 2,21,22
 429 86 429 86 457 100 c 128,-1,23
 485 114 485 114 498 143 c 128,-1,24
 511 172 511 172 511 216 c 0,25,26
 511 263 511 263 498 294 c 128,-1,27
 485 325 485 325 456.5 339.5 c 128,-1,28
 428 354 428 354 383 354 c 2,29,-1
 220 354 l 1,30,-1
 220 440 l 1,31,-1
 390 440 l 2,32,33
 464 440 464 440 518 416.5 c 128,-1,34
 572 393 572 393 601.5 343.5 c 128,-1,35
 631 294 631 294 631 217 c 0,36,37
 631 147 631 147 600 98.5 c 128,-1,38
 569 50 569 50 515 25 c 128,-1,39
 461 0 461 0 389 0 c 2,0,-1
EndSplineSet
EndChar

StartChar: Ereversedcyr
Encoding: 1069 1069 299
Width: 775
GlyphClass: 2
Flags: W
AnchorPoint: "Anchor-1" 372 0 basechar 0
AnchorPoint: "Anchor-0" 372 741 basechar 0
LayerCount: 2
Fore
SplineSet
628 404 m 1,0,-1
 628 324 l 1,1,2
 585 322 585 322 542 320 c 128,-1,3
 499 318 499 318 456.5 316 c 128,-1,4
 414 314 414 314 371 312 c 128,-1,5
 328 310 328 310 285 308 c 1,6,-1
 285 420 l 1,7,8
 327 418 327 418 370 416 c 128,-1,9
 413 414 413 414 456 412 c 128,-1,10
 499 410 499 410 542 408 c 128,-1,11
 585 406 585 406 628 404 c 1,0,-1
396 -25 m 256,12,13
 327 -25 327 -25 276 0.5 c 128,-1,14
 225 26 225 26 195 76.5 c 128,-1,15
 165 127 165 127 158 204 c 1,16,-1
 181 165 l 1,17,-1
 166 -10 l 1,18,-1
 84 -10 l 1,19,-1
 84 241 l 1,20,-1
 176 241 l 1,21,22
 191 188 191 188 219.5 148 c 128,-1,23
 248 108 248 108 290.5 85.5 c 128,-1,24
 333 63 333 63 391 63 c 0,25,26
 444 63 444 63 482.5 79.5 c 128,-1,27
 521 96 521 96 546 131.5 c 128,-1,28
 571 167 571 167 583 222 c 128,-1,29
 595 277 595 277 595 355 c 256,30,31
 595 433 595 433 580 488.5 c 128,-1,32
 565 544 565 544 538.5 579 c 128,-1,33
 512 614 512 614 475.5 630.5 c 128,-1,34
 439 647 439 647 395 647 c 0,35,36
 334 647 334 647 290 625 c 128,-1,37
 246 603 246 603 218.5 563.5 c 128,-1,38
 191 524 191 524 176 469 c 1,39,-1
 84 469 l 1,40,-1
 84 720 l 1,41,-1
 166 720 l 1,42,-1
 181 545 l 1,43,-1
 159 506 l 1,44,45
 166 582 166 582 196 632.5 c 128,-1,46
 226 683 226 683 277.5 709 c 128,-1,47
 329 735 329 735 396 735 c 0,48,49
 466 735 466 735 524 711.5 c 128,-1,50
 582 688 582 688 625.5 641 c 128,-1,51
 669 594 669 594 693.5 522.5 c 128,-1,52
 718 451 718 451 718 355 c 0,53,54
 718 264 718 264 693.5 193 c 128,-1,55
 669 122 669 122 626 73.5 c 128,-1,56
 583 25 583 25 524 0 c 128,-1,57
 465 -25 465 -25 396 -25 c 256,12,13
EndSplineSet
Substitution2: "'ss01' Style Set 1 lookup 61 subtable" Ecyr.alt1
EndChar

StartChar: Yucyr
Encoding: 1070 1070 300
Width: 1105
GlyphClass: 2
Flags: W
AnchorPoint: "Anchor-1" 574 0 basechar 0
AnchorPoint: "Anchor-0" 574 741 basechar 0
LayerCount: 2
Fore
SplineSet
207 409 m 1,0,-1
 436 409 l 1,1,-1
 436 323 l 1,2,-1
 207 323 l 1,3,-1
 207 409 l 1,0,-1
56 0 m 1,4,-1
 56 86 l 1,5,-1
 66 86 l 2,6,7
 93 86 93 86 114 93 c 128,-1,8
 135 100 135 100 135 122 c 2,9,-1
 135 588 l 2,10,11
 135 610 135 610 114 617 c 128,-1,12
 93 624 93 624 66 624 c 2,13,-1
 56 624 l 1,14,-1
 56 710 l 1,15,-1
 338 710 l 1,16,-1
 338 625 l 1,17,-1
 329 625 l 2,18,19
 317 625 317 625 303 624 c 128,-1,20
 289 623 289 623 277 621.5 c 128,-1,21
 265 620 265 620 257.5 618.5 c 128,-1,22
 250 617 250 617 250 614 c 2,23,-1
 250 95 l 2,24,25
 250 93 250 93 257.5 91.5 c 128,-1,26
 265 90 265 90 277 88.5 c 128,-1,27
 289 87 289 87 303 86.5 c 128,-1,28
 317 86 317 86 329 86 c 2,29,-1
 338 86 l 1,30,-1
 338 0 l 1,31,-1
 56 0 l 1,4,-1
715 -25 m 256,32,33
 640 -25 640 -25 579 0 c 128,-1,34
 518 25 518 25 473.5 73.5 c 128,-1,35
 429 122 429 122 405.5 192.5 c 128,-1,36
 382 263 382 263 382 355 c 0,37,38
 382 448 382 448 405.5 518.5 c 128,-1,39
 429 589 429 589 473.5 637.5 c 128,-1,40
 518 686 518 686 579 710.5 c 128,-1,41
 640 735 640 735 715 735 c 256,42,43
 790 735 790 735 851.5 710.5 c 128,-1,44
 913 686 913 686 957 637.5 c 128,-1,45
 1001 589 1001 589 1024.5 518.5 c 128,-1,46
 1048 448 1048 448 1048 355 c 0,47,48
 1048 263 1048 263 1024.5 192.5 c 128,-1,49
 1001 122 1001 122 957 73.5 c 128,-1,50
 913 25 913 25 851.5 0 c 128,-1,51
 790 -25 790 -25 715 -25 c 256,32,33
715 64 m 256,52,53
 767 64 767 64 806.5 81 c 128,-1,54
 846 98 846 98 872.5 133.5 c 128,-1,55
 899 169 899 169 912 223.5 c 128,-1,56
 925 278 925 278 925 355 c 0,57,58
 925 431 925 431 912 486 c 128,-1,59
 899 541 899 541 872.5 576.5 c 128,-1,60
 846 612 846 612 806.5 629 c 128,-1,61
 767 646 767 646 715 646 c 0,62,63
 662 646 662 646 622.5 629 c 128,-1,64
 583 612 583 612 557 576.5 c 128,-1,65
 531 541 531 541 517.5 486 c 128,-1,66
 504 431 504 431 504 355 c 256,67,68
 504 279 504 279 517.5 224 c 128,-1,69
 531 169 531 169 557.5 133.5 c 128,-1,70
 584 98 584 98 623.5 81 c 128,-1,71
 663 64 663 64 715 64 c 256,52,53
EndSplineSet
EndChar

StartChar: Yacyr
Encoding: 1071 1071 301
Width: 749
GlyphClass: 2
Flags: W
AnchorPoint: "Anchor-1" 375 0 basechar 0
AnchorPoint: "Anchor-0" 412 741 basechar 0
LayerCount: 2
Fore
SplineSet
364 321 m 1,0,-1
 190 0 l 1,1,-1
 33 0 l 1,2,-1
 33 86 l 1,3,-1
 42 86 l 2,4,5
 65 86 65 86 83 90.5 c 128,-1,6
 101 95 101 95 116.5 108.5 c 128,-1,7
 132 122 132 122 146 147 c 2,8,-1
 272 371 l 1,9,-1
 364 321 l 1,0,-1
498 96 m 2,10,-1
 498 625 l 1,11,-1
 366 625 l 2,12,13
 321 625 321 625 290.5 610.5 c 128,-1,14
 260 596 260 596 244.5 569 c 128,-1,15
 229 542 229 542 229 503 c 0,16,17
 229 463 229 463 244 433 c 128,-1,18
 259 403 259 403 290 387 c 128,-1,19
 321 371 321 371 369 371 c 2,20,-1
 511 371 l 1,21,-1
 511 286 l 1,22,-1
 326 286 l 1,23,-1
 301 296 l 1,24,25
 245 304 245 304 203 330.5 c 128,-1,26
 161 357 161 357 138 401 c 128,-1,27
 115 445 115 445 115 504 c 0,28,29
 115 571 115 571 143.5 616.5 c 128,-1,30
 172 662 172 662 226.5 686 c 128,-1,31
 281 710 281 710 356 710 c 2,32,-1
 693 710 l 1,33,-1
 693 624 l 1,34,-1
 682 624 l 2,35,36
 656 624 656 624 635 617 c 128,-1,37
 614 610 614 610 614 588 c 2,38,-1
 614 122 l 2,39,40
 614 100 614 100 635 93 c 128,-1,41
 656 86 656 86 682 86 c 2,42,-1
 693 86 l 1,43,-1
 693 0 l 1,44,-1
 393 0 l 1,45,-1
 393 86 l 1,46,-1
 412 86 l 2,47,48
 428 86 428 86 443.5 86.5 c 128,-1,49
 459 87 459 87 471.5 88.5 c 128,-1,50
 484 90 484 90 491 91.5 c 128,-1,51
 498 93 498 93 498 96 c 2,10,-1
EndSplineSet
EndChar

StartChar: Geupcyr
Encoding: 1168 1168 302
Width: 644
GlyphClass: 2
Flags: W
AnchorPoint: "Anchor-0" 303 741 basechar 0
LayerCount: 2
Fore
SplineSet
250 624 m 1,0,-1
 250 122 l 2,1,2
 250 108 250 108 260.5 100 c 128,-1,3
 271 92 271 92 289.5 89 c 128,-1,4
 308 86 308 86 330 86 c 2,5,-1
 357 86 l 1,6,-1
 357 0 l 1,7,-1
 56 0 l 1,8,-1
 56 86 l 1,9,-1
 66 86 l 2,10,11
 93 86 93 86 114 93 c 128,-1,12
 135 100 135 100 135 122 c 2,13,-1
 135 588 l 2,14,15
 135 610 135 610 114 617 c 128,-1,16
 93 624 93 624 66 624 c 2,17,-1
 56 624 l 1,18,-1
 56 710 l 1,19,-1
 376 710 l 2,20,21
 420 710 420 710 447.5 715.5 c 128,-1,22
 475 721 475 721 487.5 733 c 128,-1,23
 500 745 500 745 502 764 c 2,24,-1
 514 897 l 1,25,-1
 598 897 l 1,26,-1
 598 624 l 1,27,-1
 250 624 l 1,0,-1
EndSplineSet
EndChar

StartChar: Gestrokecyr
Encoding: 1170 1170 303
Width: 649
GlyphClass: 2
Flags: W
AnchorPoint: "Anchor-0" 331 741 basechar 0
LayerCount: 2
Fore
SplineSet
54 403 m 1,0,-1
 421 403 l 1,1,-1
 421 318 l 1,2,-1
 54 318 l 1,3,-1
 54 403 l 1,0,-1
250 624 m 1,4,-1
 250 122 l 2,5,6
 250 108 250 108 260.5 100 c 128,-1,7
 271 92 271 92 289.5 89 c 128,-1,8
 308 86 308 86 330 86 c 2,9,-1
 357 86 l 1,10,-1
 357 0 l 1,11,-1
 56 0 l 1,12,-1
 56 86 l 1,13,-1
 66 86 l 2,14,15
 93 86 93 86 114 93 c 128,-1,16
 135 100 135 100 135 122 c 2,17,-1
 135 588 l 2,18,19
 135 610 135 610 114 617 c 128,-1,20
 93 624 93 624 66 624 c 2,21,-1
 56 624 l 1,22,-1
 56 710 l 1,23,-1
 598 710 l 1,24,-1
 598 478 l 1,25,-1
 514 478 l 1,26,-1
 504 570 l 2,27,28
 501 591 501 591 491 603 c 128,-1,29
 481 615 481 615 458 619.5 c 128,-1,30
 435 624 435 624 394 624 c 2,31,-1
 250 624 l 1,4,-1
EndSplineSet
EndChar

StartChar: Zhetailcyr
Encoding: 1174 1174 304
Width: 1118
GlyphClass: 2
Flags: W
AnchorPoint: "Anchor-0" 548 741 basechar 0
LayerCount: 2
Fore
SplineSet
794 0 m 1,0,-1
 794 86 l 1,1,-1
 803 86 l 2,2,3
 821 86 821 86 838 87 c 128,-1,4
 855 88 855 88 866 90.5 c 128,-1,5
 877 93 877 93 877 96 c 2,6,-1
 658 345 l 1,7,-1
 658 372 l 1,8,-1
 890 613 l 2,9,10
 890 617 890 617 879.5 619 c 128,-1,11
 869 621 869 621 853 622.5 c 128,-1,12
 837 624 837 624 819 624 c 2,13,-1
 809 624 l 1,14,-1
 809 710 l 1,15,-1
 1064 710 l 1,16,-1
 1064 624 l 1,17,-1
 1037 624 l 2,18,19
 1028 624 1028 624 1018.5 621.5 c 128,-1,20
 1009 619 1009 619 998.5 612.5 c 128,-1,21
 988 606 988 606 978 595 c 2,22,-1
 747 356 l 1,23,-1
 748 406 l 1,24,-1
 1029 87 l 1,25,-1
 1029 0 l 1,26,-1
 794 0 l 1,0,-1
318 0 m 1,27,-1
 27 0 l 1,28,-1
 27 86 l 1,29,-1
 45 86 l 2,30,31
 57 86 57 86 67.5 87 c 128,-1,32
 78 88 78 88 87.5 92.5 c 128,-1,33
 97 97 97 97 105 106 c 2,34,-1
 369 406 l 1,35,-1
 363 356 l 1,36,-1
 132 595 l 2,37,38
 121 606 121 606 111 612.5 c 128,-1,39
 101 619 101 619 91.5 621.5 c 128,-1,40
 82 624 82 624 72 624 c 2,41,-1
 45 624 l 1,42,-1
 45 710 l 1,43,-1
 302 710 l 1,44,-1
 302 624 l 1,45,-1
 293 624 l 2,46,47
 276 624 276 624 259.5 622.5 c 128,-1,48
 243 621 243 621 232.5 619 c 128,-1,49
 222 617 222 617 222 613 c 2,50,-1
 454 372 l 1,51,-1
 454 345 l 1,52,-1
 235 96 l 2,53,54
 235 93 235 93 246 90.5 c 128,-1,55
 257 88 257 88 274 87 c 128,-1,56
 291 86 291 86 309 86 c 2,57,-1
 318 86 l 1,58,-1
 318 0 l 1,27,-1
885 0 m 2,59,-1
 871 0 l 1,60,-1
 889 87 l 1,61,-1
 1106 87 l 1,62,-1
 1106 -187 l 1,63,-1
 1022 -187 l 1,64,-1
 1010 -53 l 2,65,66
 1008 -35 1008 -35 996 -23.5 c 128,-1,67
 984 -12 984 -12 957 -6 c 128,-1,68
 930 0 930 0 885 0 c 2,59,-1
416 0 m 1,69,-1
 416 86 l 1,70,-1
 425 86 l 2,71,72
 437 86 437 86 449.5 86.5 c 128,-1,73
 462 87 462 87 473 88.5 c 128,-1,74
 484 90 484 90 491 91.5 c 128,-1,75
 498 93 498 93 498 96 c 2,76,-1
 498 615 l 2,77,78
 498 617 498 617 491.5 618.5 c 128,-1,79
 485 620 485 620 473.5 621.5 c 128,-1,80
 462 623 462 623 449 623.5 c 128,-1,81
 436 624 436 624 424 624 c 2,82,-1
 415 624 l 1,83,-1
 415 710 l 1,84,-1
 696 710 l 1,85,-1
 696 624 l 1,86,-1
 688 624 l 2,87,88
 676 624 676 624 663 623.5 c 128,-1,89
 650 623 650 623 638.5 621.5 c 128,-1,90
 627 620 627 620 620.5 618.5 c 128,-1,91
 614 617 614 617 614 614 c 2,92,-1
 614 95 l 2,93,94
 614 93 614 93 620.5 91.5 c 128,-1,95
 627 90 627 90 638 88.5 c 128,-1,96
 649 87 649 87 662.5 86.5 c 128,-1,97
 676 86 676 86 687 86 c 2,98,-1
 696 86 l 1,99,-1
 696 0 l 1,100,-1
 416 0 l 1,69,-1
EndSplineSet
EndChar

StartChar: Katailcyr
Encoding: 1178 1178 306
Width: 775
GlyphClass: 2
Flags: W
AnchorPoint: "Anchor-0" 395 741 basechar 0
LayerCount: 2
Fore
SplineSet
56 0 m 1,0,-1
 56 86 l 1,1,-1
 66 86 l 2,2,3
 93 86 93 86 114 93 c 128,-1,4
 135 100 135 100 135 122 c 2,5,-1
 135 588 l 2,6,7
 135 610 135 610 114 617 c 128,-1,8
 93 624 93 624 66 624 c 2,9,-1
 56 624 l 1,10,-1
 56 710 l 1,11,-1
 335 710 l 1,12,-1
 335 624 l 1,13,-1
 326 624 l 2,14,15
 314 624 314 624 300.5 623.5 c 128,-1,16
 287 623 287 623 276 621.5 c 128,-1,17
 265 620 265 620 257.5 618.5 c 128,-1,18
 250 617 250 617 250 614 c 2,19,-1
 250 96 l 2,20,21
 250 93 250 93 257.5 91.5 c 128,-1,22
 265 90 265 90 276 88.5 c 128,-1,23
 287 87 287 87 300 86.5 c 128,-1,24
 313 86 313 86 324 86 c 2,25,-1
 333 86 l 1,26,-1
 333 0 l 1,27,-1
 56 0 l 1,0,-1
448 0 m 1,28,-1
 448 86 l 1,29,-1
 457 86 l 2,30,31
 476 86 476 86 493 87 c 128,-1,32
 510 88 510 88 521 90.5 c 128,-1,33
 532 93 532 93 532 96 c 2,34,-1
 296 345 l 1,35,-1
 296 372 l 1,36,-1
 544 613 l 2,37,38
 544 617 544 617 533.5 619 c 128,-1,39
 523 621 523 621 507 622.5 c 128,-1,40
 491 624 491 624 474 624 c 2,41,-1
 464 624 l 1,42,-1
 464 710 l 1,43,-1
 721 710 l 1,44,-1
 721 624 l 1,45,-1
 697 624 l 2,46,47
 687 624 687 624 677.5 621.5 c 128,-1,48
 668 619 668 619 657 612.5 c 128,-1,49
 646 606 646 606 635 595 c 2,50,-1
 386 355 l 1,51,-1
 386 406 l 1,52,-1
 690 87 l 1,53,-1
 690 0 l 1,54,-1
 448 0 l 1,28,-1
543 0 m 2,55,-1
 529 0 l 1,56,-1
 547 87 l 1,57,-1
 763 87 l 1,58,-1
 763 -187 l 1,59,-1
 680 -187 l 1,60,-1
 667 -53 l 2,61,62
 666 -35 666 -35 653.5 -23.5 c 128,-1,63
 641 -12 641 -12 614.5 -6 c 128,-1,64
 588 0 588 0 543 0 c 2,55,-1
EndSplineSet
EndChar

StartChar: Kaverticalstrokecyr
Encoding: 1180 1180 307
Width: 859
GlyphClass: 2
Flags: W
AnchorPoint: "Anchor-0" 446 741 basechar 0
LayerCount: 2
Fore
SplineSet
321 171 m 1,0,-1
 321 544 l 1,1,-1
 407 544 l 1,2,-1
 407 171 l 1,3,-1
 321 171 l 1,0,-1
56 0 m 1,4,-1
 56 86 l 1,5,-1
 66 86 l 2,6,7
 93 86 93 86 114 93 c 128,-1,8
 135 100 135 100 135 122 c 2,9,-1
 135 588 l 2,10,11
 135 610 135 610 114 617 c 128,-1,12
 93 624 93 624 66 624 c 2,13,-1
 56 624 l 1,14,-1
 56 710 l 1,15,-1
 335 710 l 1,16,-1
 335 624 l 1,17,-1
 326 624 l 2,18,19
 314 624 314 624 300.5 623.5 c 128,-1,20
 287 623 287 623 276 621.5 c 128,-1,21
 265 620 265 620 257.5 618.5 c 128,-1,22
 250 617 250 617 250 614 c 2,23,-1
 250 96 l 2,24,25
 250 93 250 93 257.5 91.5 c 128,-1,26
 265 90 265 90 276 88.5 c 128,-1,27
 287 87 287 87 300 86.5 c 128,-1,28
 313 86 313 86 324 86 c 2,29,-1
 333 86 l 1,30,-1
 333 0 l 1,31,-1
 56 0 l 1,4,-1
542 0 m 1,32,-1
 542 86 l 1,33,-1
 551 86 l 2,34,35
 571 86 571 86 588.5 87 c 128,-1,36
 606 88 606 88 616 90.5 c 128,-1,37
 626 93 626 93 626 96 c 2,38,-1
 442 345 l 1,39,-1
 442 372 l 1,40,-1
 643 613 l 2,41,42
 644 617 644 617 633.5 619 c 128,-1,43
 623 621 623 621 605 622.5 c 128,-1,44
 587 624 587 624 567 624 c 2,45,-1
 558 624 l 1,46,-1
 558 710 l 1,47,-1
 810 710 l 1,48,-1
 810 624 l 1,49,-1
 783 624 l 2,50,51
 771 624 771 624 756.5 618 c 128,-1,52
 742 612 742 612 728 595 c 2,53,-1
 526 356 l 1,54,-1
 531 404 l 1,55,-1
 752 108 l 2,56,57
 759 98 759 98 769.5 93.5 c 128,-1,58
 780 89 780 89 791.5 87.5 c 128,-1,59
 803 86 803 86 814 86 c 2,60,-1
 831 86 l 1,61,-1
 831 0 l 1,62,-1
 542 0 l 1,32,-1
EndSplineSet
EndChar

StartChar: Kabashkcyr
Encoding: 1184 1184 308
Width: 920
GlyphClass: 2
Flags: W
AnchorPoint: "Anchor-0" 543 741 basechar 0
LayerCount: 2
Fore
SplineSet
594 0 m 1,0,-1
 594 86 l 1,1,-1
 603 86 l 2,2,3
 622 86 622 86 639 87 c 128,-1,4
 656 88 656 88 666.5 90.5 c 128,-1,5
 677 93 677 93 677 96 c 2,6,-1
 442 345 l 1,7,-1
 442 372 l 1,8,-1
 690 613 l 2,9,10
 690 617 690 617 679.5 619 c 128,-1,11
 669 621 669 621 652.5 622.5 c 128,-1,12
 636 624 636 624 620 624 c 2,13,-1
 610 624 l 1,14,-1
 610 710 l 1,15,-1
 866 710 l 1,16,-1
 866 624 l 1,17,-1
 843 624 l 2,18,19
 833 624 833 624 823 621.5 c 128,-1,20
 813 619 813 619 802.5 612.5 c 128,-1,21
 792 606 792 606 780 595 c 2,22,-1
 532 355 l 1,23,-1
 532 406 l 1,24,-1
 815 108 l 2,25,26
 824 99 824 99 833.5 94 c 128,-1,27
 843 89 843 89 853.5 87.5 c 128,-1,28
 864 86 864 86 875 86 c 2,29,-1
 893 86 l 1,30,-1
 893 0 l 1,31,-1
 594 0 l 1,0,-1
201 0 m 1,32,-1
 201 86 l 1,33,-1
 212 86 l 2,34,35
 239 86 239 86 260 93 c 128,-1,36
 281 100 281 100 281 122 c 2,37,-1
 281 624 l 1,38,-1
 242 624 l 2,39,40
 201 624 201 624 181.5 617.5 c 128,-1,41
 162 611 162 611 154.5 598.5 c 128,-1,42
 147 586 147 586 145 566 c 2,43,-1
 134 465 l 1,44,-1
 51 465 l 1,45,-1
 51 710 l 1,46,-1
 481 710 l 1,47,-1
 481 624 l 1,48,-1
 472 624 l 2,49,50
 456 624 456 624 438.5 623 c 128,-1,51
 421 622 421 622 408.5 620 c 128,-1,52
 396 618 396 618 396 614 c 2,53,-1
 396 96 l 2,54,55
 396 93 396 93 408.5 90.5 c 128,-1,56
 421 88 421 88 438.5 87 c 128,-1,57
 456 86 456 86 470 86 c 2,58,-1
 478 86 l 1,59,-1
 478 0 l 1,60,-1
 201 0 l 1,32,-1
EndSplineSet
EndChar

StartChar: Entailcyr
Encoding: 1186 1186 309
Width: 843
GlyphClass: 2
Flags: W
AnchorPoint: "Anchor-0" 422 741 basechar 0
LayerCount: 2
Fore
SplineSet
218 409 m 1,0,-1
 618 409 l 1,1,-1
 618 323 l 1,2,-1
 218 323 l 1,3,-1
 218 409 l 1,0,-1
56 0 m 1,4,-1
 56 86 l 1,5,-1
 66 86 l 2,6,7
 93 86 93 86 114 93 c 128,-1,8
 135 100 135 100 135 122 c 2,9,-1
 135 588 l 2,10,11
 135 610 135 610 114 617 c 128,-1,12
 93 624 93 624 66 624 c 2,13,-1
 56 624 l 1,14,-1
 56 710 l 1,15,-1
 338 710 l 1,16,-1
 338 625 l 1,17,-1
 329 625 l 2,18,19
 317 625 317 625 303 624 c 128,-1,20
 289 623 289 623 277 621.5 c 128,-1,21
 265 620 265 620 257.5 618.5 c 128,-1,22
 250 617 250 617 250 614 c 2,23,-1
 250 95 l 2,24,25
 250 93 250 93 257.5 91.5 c 128,-1,26
 265 90 265 90 277 88.5 c 128,-1,27
 289 87 289 87 303 86.5 c 128,-1,28
 317 86 317 86 329 86 c 2,29,-1
 338 86 l 1,30,-1
 338 0 l 1,31,-1
 56 0 l 1,4,-1
503 0 m 1,32,-1
 503 85 l 1,33,-1
 512 85 l 2,34,35
 524 85 524 85 538.5 86 c 128,-1,36
 553 87 553 87 564.5 88.5 c 128,-1,37
 576 90 576 90 583.5 91.5 c 128,-1,38
 591 93 591 93 591 96 c 2,39,-1
 591 615 l 2,40,41
 591 617 591 617 583.5 618.5 c 128,-1,42
 576 620 576 620 564.5 621.5 c 128,-1,43
 553 623 553 623 539 623.5 c 128,-1,44
 525 624 525 624 512 624 c 2,45,-1
 503 624 l 1,46,-1
 503 710 l 1,47,-1
 785 710 l 1,48,-1
 785 624 l 1,49,-1
 775 624 l 2,50,51
 748 624 748 624 727 617 c 128,-1,52
 706 610 706 610 706 588 c 2,53,-1
 706 0 l 1,54,-1
 503 0 l 1,32,-1
577 0 m 2,55,-1
 570 0 l 1,56,-1
 588 87 l 1,57,-1
 798 87 l 1,58,-1
 798 -187 l 1,59,-1
 714 -187 l 1,60,-1
 701 -53 l 2,61,62
 700 -35 700 -35 687.5 -23.5 c 128,-1,63
 675 -12 675 -12 648.5 -6 c 128,-1,64
 622 0 622 0 577 0 c 2,55,-1
EndSplineSet
EndChar

StartChar: Tetailcyr
Encoding: 1196 1196 311
Width: 719
GlyphClass: 2
Flags: W
AnchorPoint: "Anchor-0" 352 741 basechar 0
LayerCount: 2
Fore
SplineSet
301 122 m 2,0,-1
 301 624 l 1,1,-1
 242 624 l 2,2,3
 202 624 202 624 182 617.5 c 128,-1,4
 162 611 162 611 154.5 598.5 c 128,-1,5
 147 586 147 586 145 566 c 2,6,-1
 134 465 l 1,7,-1
 51 465 l 1,8,-1
 51 710 l 1,9,-1
 668 710 l 1,10,-1
 668 465 l 1,11,-1
 584 465 l 1,12,-1
 573 566 l 2,13,14
 571 586 571 586 564 598.5 c 128,-1,15
 557 611 557 611 537 617.5 c 128,-1,16
 517 624 517 624 477 624 c 2,17,-1
 417 624 l 1,18,-1
 417 0 l 1,19,-1
 204 0 l 1,20,-1
 204 86 l 1,21,-1
 223 86 l 2,22,23
 254 86 254 86 277.5 93 c 128,-1,24
 301 100 301 100 301 122 c 2,0,-1
303 0 m 2,25,-1
 290 0 l 1,26,-1
 312 87 l 1,27,-1
 523 87 l 1,28,-1
 523 -187 l 1,29,-1
 439 -187 l 1,30,-1
 427 -53 l 2,31,32
 426 -35 426 -35 413 -23.5 c 128,-1,33
 400 -12 400 -12 373.5 -6 c 128,-1,34
 347 0 347 0 303 0 c 2,25,-1
EndSplineSet
EndChar

StartChar: Ustraightstrokecyr
Encoding: 1200 1200 313
Width: 699
GlyphClass: 2
Flags: W
AnchorPoint: "Anchor-1" 349 0 basechar 0
AnchorPoint: "Anchor-0" 349 741 basechar 0
LayerCount: 2
Fore
SplineSet
161 278 m 1,0,-1
 544 278 l 1,1,-1
 544 191 l 1,2,-1
 161 191 l 1,3,-1
 161 278 l 1,0,-1
295 309 m 1,4,-1
 301 267 l 1,5,-1
 103 585 l 2,6,7
 94 601 94 601 84 609.5 c 128,-1,8
 74 618 74 618 63.5 621 c 128,-1,9
 53 624 53 624 39 624 c 2,10,-1
 28 624 l 1,11,-1
 28 710 l 1,12,-1
 284 710 l 1,13,-1
 284 624 l 1,14,-1
 268 624 l 2,15,16
 253 624 253 624 239.5 622.5 c 128,-1,17
 226 621 226 621 217 619 c 128,-1,18
 208 617 208 617 208 613 c 2,19,-1
 388 312 l 1,20,-1
 342 311 l 1,21,-1
 510 601 l 1,22,23
 510 609 510 609 501 613.5 c 128,-1,24
 492 618 492 618 480 621 c 128,-1,25
 468 624 468 624 459 624 c 2,26,-1
 448 624 l 1,27,-1
 448 710 l 1,28,-1
 670 710 l 1,29,-1
 670 624 l 1,30,-1
 658 624 l 2,31,32
 647 624 647 624 636 619.5 c 128,-1,33
 625 615 625 615 613.5 604 c 128,-1,34
 602 593 602 593 591 574 c 2,35,-1
 403 266 l 1,36,-1
 410 309 l 1,37,-1
 410 122 l 2,38,39
 410 100 410 100 432.5 93 c 128,-1,40
 455 86 455 86 486 86 c 2,41,-1
 506 86 l 1,42,-1
 506 0 l 1,43,-1
 199 0 l 1,44,-1
 199 86 l 1,45,-1
 218 86 l 2,46,47
 251 86 251 86 273 93 c 128,-1,48
 295 100 295 100 295 122 c 2,49,-1
 295 309 l 1,4,-1
EndSplineSet
EndChar

StartChar: Xatailcyr
Encoding: 1202 1202 314
Width: 746
GlyphClass: 2
Flags: W
AnchorPoint: "Anchor-0" 381 741 basechar 0
LayerCount: 2
Fore
SplineSet
40 624 m 1,0,-1
 40 710 l 1,1,-1
 322 710 l 1,2,-1
 322 624 l 1,3,-1
 306 624 l 2,4,5
 290 624 290 624 275 623 c 128,-1,6
 260 622 260 622 251 620 c 128,-1,7
 242 618 242 618 242 614 c 2,8,-1
 412 392 l 1,9,-1
 425 388 l 1,10,-1
 653 87 l 1,11,-1
 653 0 l 1,12,-1
 428 0 l 1,13,-1
 428 86 l 1,14,-1
 444 86 l 2,15,16
 461 86 461 86 476 87 c 128,-1,17
 491 88 491 88 500.5 90.5 c 128,-1,18
 510 93 510 93 510 96 c 2,19,-1
 326 338 l 1,20,-1
 313 342 l 1,21,-1
 124 590 l 2,22,23
 107 613 107 613 90 618.5 c 128,-1,24
 73 624 73 624 53 624 c 2,25,-1
 40 624 l 1,0,-1
28 0 m 1,26,-1
 28 86 l 1,27,-1
 47 86 l 2,28,29
 65 86 65 86 80.5 95.5 c 128,-1,30
 96 105 96 105 116 132 c 2,31,-1
 302 381 l 1,32,-1
 374 337 l 1,33,-1
 201 103 l 2,34,35
 201 99 201 99 211 95 c 128,-1,36
 221 91 221 91 234.5 88.5 c 128,-1,37
 248 86 248 86 260 86 c 2,38,-1
 278 86 l 1,39,-1
 278 0 l 1,40,-1
 28 0 l 1,26,-1
437 351 m 1,41,-1
 367 396 l 1,42,-1
 530 607 l 2,43,44
 530 612 530 612 519.5 616 c 128,-1,45
 509 620 509 620 495 622 c 128,-1,46
 481 624 481 624 468 624 c 2,47,-1
 454 624 l 1,48,-1
 454 710 l 1,49,-1
 700 710 l 1,50,-1
 700 624 l 1,51,-1
 687 624 l 2,52,53
 669 624 669 624 652.5 615 c 128,-1,54
 636 606 636 606 615 579 c 2,55,-1
 437 351 l 1,41,-1
514 0 m 2,56,-1
 506 0 l 1,57,-1
 524 87 l 1,58,-1
 734 87 l 1,59,-1
 734 -187 l 1,60,-1
 650 -187 l 1,61,-1
 638 -53 l 2,62,63
 637 -35 637 -35 624.5 -23.5 c 128,-1,64
 612 -12 612 -12 585.5 -6 c 128,-1,65
 559 0 559 0 514 0 c 2,56,-1
EndSplineSet
EndChar

StartChar: Chetailcyr
Encoding: 1206 1206 315
Width: 792
GlyphClass: 2
Flags: W
AnchorPoint: "Anchor-0" 388 741 basechar 0
LayerCount: 2
Fore
SplineSet
360 268 m 0,0,1
 272 268 272 268 218.5 289.5 c 128,-1,2
 165 311 165 311 140.5 359.5 c 128,-1,3
 116 408 116 408 116 489 c 2,4,-1
 116 588 l 2,5,6
 116 610 116 610 95 617 c 128,-1,7
 74 624 74 624 47 624 c 2,8,-1
 37 624 l 1,9,-1
 37 710 l 1,10,-1
 319 710 l 1,11,-1
 319 624 l 1,12,-1
 310 624 l 2,13,14
 293 624 293 624 275 623 c 128,-1,15
 257 622 257 622 244 620 c 128,-1,16
 231 618 231 618 231 614 c 2,17,-1
 231 494 l 2,18,19
 231 443 231 443 244.5 412 c 128,-1,20
 258 381 258 381 288.5 367.5 c 128,-1,21
 319 354 319 354 371 354 c 0,22,23
 422 354 422 354 476.5 365 c 128,-1,24
 531 376 531 376 579 405 c 1,25,-1
 579 319 l 1,26,27
 529 293 529 293 472 280.5 c 128,-1,28
 415 268 415 268 360 268 c 0,0,1
453 0 m 1,29,-1
 453 86 l 1,30,-1
 461 86 l 2,31,32
 478 86 478 86 496.5 87 c 128,-1,33
 515 88 515 88 527.5 90.5 c 128,-1,34
 540 93 540 93 540 96 c 2,35,-1
 540 614 l 2,36,37
 540 618 540 618 527.5 620 c 128,-1,38
 515 622 515 622 496.5 623 c 128,-1,39
 478 624 478 624 461 624 c 2,40,-1
 453 624 l 1,41,-1
 453 710 l 1,42,-1
 735 710 l 1,43,-1
 735 624 l 1,44,-1
 724 624 l 2,45,46
 698 624 698 624 677 617 c 128,-1,47
 656 610 656 610 656 588 c 2,48,-1
 656 0 l 1,49,-1
 453 0 l 1,29,-1
527 0 m 2,50,-1
 519 0 l 1,51,-1
 537 87 l 1,52,-1
 747 87 l 1,53,-1
 747 -187 l 1,54,-1
 663 -187 l 1,55,-1
 651 -53 l 2,56,57
 650 -35 650 -35 637.5 -23.5 c 128,-1,58
 625 -12 625 -12 598 -6 c 128,-1,59
 571 0 571 0 527 0 c 2,50,-1
EndSplineSet
EndChar

StartChar: Chevertcyr
Encoding: 1208 1208 316
Width: 814
GlyphClass: 2
Flags: W
AnchorPoint: "Anchor-0" 399 741 basechar 0
LayerCount: 2
Fore
SplineSet
477 0 m 1,0,-1
 477 86 l 1,1,-1
 485 86 l 2,2,3
 502 86 502 86 520.5 87 c 128,-1,4
 539 88 539 88 551.5 90.5 c 128,-1,5
 564 93 564 93 564 96 c 2,6,-1
 564 614 l 2,7,8
 564 618 564 618 551.5 620 c 128,-1,9
 539 622 539 622 520.5 623 c 128,-1,10
 502 624 502 624 485 624 c 2,11,-1
 477 624 l 1,12,-1
 477 710 l 1,13,-1
 759 710 l 1,14,-1
 759 624 l 1,15,-1
 748 624 l 2,16,17
 722 624 722 624 700.5 617 c 128,-1,18
 679 610 679 610 679 588 c 2,19,-1
 679 122 l 2,20,21
 679 100 679 100 700.5 93 c 128,-1,22
 722 86 722 86 748 86 c 2,23,-1
 759 86 l 1,24,-1
 759 0 l 1,25,-1
 477 0 l 1,0,-1
372 268 m 0,26,27
 280 268 280 268 223.5 289.5 c 128,-1,28
 167 311 167 311 141.5 359.5 c 128,-1,29
 116 408 116 408 116 489 c 2,30,-1
 116 588 l 2,31,32
 116 610 116 610 95 617 c 128,-1,33
 74 624 74 624 47 624 c 2,34,-1
 37 624 l 1,35,-1
 37 710 l 1,36,-1
 319 710 l 1,37,-1
 319 624 l 1,38,-1
 310 624 l 2,39,40
 293 624 293 624 275 623 c 128,-1,41
 257 622 257 622 244 620 c 128,-1,42
 231 618 231 618 231 614 c 2,43,-1
 231 494 l 2,44,45
 231 443 231 443 246 412 c 128,-1,46
 261 381 261 381 294 367.5 c 128,-1,47
 327 354 327 354 382 354 c 256,48,49
 437 354 437 354 495 364.5 c 128,-1,50
 553 375 553 375 603 405 c 1,51,-1
 603 319 l 1,52,53
 552 291 552 291 491 279.5 c 128,-1,54
 430 268 430 268 372 268 c 0,26,27
357 158 m 1,55,-1
 357 531 l 1,56,-1
 443 531 l 1,57,-1
 443 158 l 1,58,-1
 357 158 l 1,55,-1
EndSplineSet
EndChar

StartChar: Shhacyr
Encoding: 1210 1210 317
Width: 790
GlyphClass: 1
Flags: W
LayerCount: 2
Fore
SplineSet
338 710 m 1,0,-1
 338 624 l 1,1,-1
 329 624 l 2,2,3
 312 624 312 624 294 623 c 128,-1,4
 276 622 276 622 263 620 c 128,-1,5
 250 618 250 618 250 614 c 2,6,-1
 250 95 l 2,7,8
 250 93 250 93 263 90.5 c 128,-1,9
 276 88 276 88 294 87 c 128,-1,10
 312 86 312 86 329 86 c 2,11,-1
 338 86 l 1,12,-1
 338 0 l 1,13,-1
 56 0 l 1,14,-1
 56 86 l 1,15,-1
 66 86 l 2,16,17
 93 86 93 86 114 93 c 128,-1,18
 135 100 135 100 135 122 c 2,19,-1
 135 588 l 2,20,21
 135 610 135 610 114 617 c 128,-1,22
 93 624 93 624 66 624 c 2,23,-1
 56 624 l 1,24,-1
 56 710 l 1,25,-1
 338 710 l 1,0,-1
431 442 m 0,26,27
 518 442 518 442 572 420.5 c 128,-1,28
 626 399 626 399 650.5 351 c 128,-1,29
 675 303 675 303 675 221 c 2,30,-1
 675 122 l 2,31,32
 675 100 675 100 696 93 c 128,-1,33
 717 86 717 86 743 86 c 2,34,-1
 754 86 l 1,35,-1
 754 0 l 1,36,-1
 472 0 l 1,37,-1
 472 86 l 1,38,-1
 480 86 l 2,39,40
 498 86 498 86 516 87 c 128,-1,41
 534 88 534 88 546.5 90.5 c 128,-1,42
 559 93 559 93 559 96 c 2,43,-1
 559 216 l 2,44,45
 559 267 559 267 545.5 298 c 128,-1,46
 532 329 532 329 501.5 342.5 c 128,-1,47
 471 356 471 356 420 356 c 256,48,49
 369 356 369 356 314 345 c 128,-1,50
 259 334 259 334 212 306 c 1,51,-1
 212 393 l 1,52,53
 260 418 260 418 317.5 430 c 128,-1,54
 375 442 375 442 431 442 c 0,26,27
EndSplineSet
EndChar

StartChar: Obarcyr
Encoding: 1256 1256 320
Width: 800
GlyphClass: 2
Flags: W
AnchorPoint: "Anchor-1" 392 0 basechar 0
AnchorPoint: "Anchor-0" 392 741 basechar 0
LayerCount: 2
Fore
SplineSet
116 409 m 1,0,-1
 684 409 l 1,1,-1
 684 323 l 1,2,-1
 116 323 l 1,3,-1
 116 409 l 1,0,-1
400 -25 m 0,4,5
 323 -25 323 -25 260.5 0 c 128,-1,6
 198 25 198 25 152.5 73.5 c 128,-1,7
 107 122 107 122 82.5 192.5 c 128,-1,8
 58 263 58 263 58 355 c 0,9,10
 58 448 58 448 82.5 518.5 c 128,-1,11
 107 589 107 589 152.5 637.5 c 128,-1,12
 198 686 198 686 260.5 710.5 c 128,-1,13
 323 735 323 735 400 735 c 0,14,15
 478 735 478 735 541 710.5 c 128,-1,16
 604 686 604 686 648.5 637.5 c 128,-1,17
 693 589 693 589 717.5 518.5 c 128,-1,18
 742 448 742 448 742 355 c 0,19,20
 742 263 742 263 717.5 192.5 c 128,-1,21
 693 122 693 122 648.5 73.5 c 128,-1,22
 604 25 604 25 541 0 c 128,-1,23
 478 -25 478 -25 400 -25 c 0,4,5
400 64 m 0,24,25
 455 64 455 64 496.5 81 c 128,-1,26
 538 98 538 98 565 133.5 c 128,-1,27
 592 169 592 169 606 223.5 c 128,-1,28
 620 278 620 278 620 355 c 0,29,30
 620 431 620 431 606 486 c 128,-1,31
 592 541 592 541 565 576.5 c 128,-1,32
 538 612 538 612 496.5 629 c 128,-1,33
 455 646 455 646 400 646 c 0,34,35
 346 646 346 646 304.5 629 c 128,-1,36
 263 612 263 612 235.5 576.5 c 128,-1,37
 208 541 208 541 194 486 c 128,-1,38
 180 431 180 431 180 355 c 256,39,40
 180 279 180 279 194 224 c 128,-1,41
 208 169 208 169 235.5 133.5 c 128,-1,42
 263 98 263 98 304.5 81 c 128,-1,43
 346 64 346 64 400 64 c 0,24,25
EndSplineSet
EndChar

StartChar: Hastrokecyr
Encoding: 1278 1278 321
Width: 744
GlyphClass: 2
Flags: W
AnchorPoint: "Anchor-1" 350 0 basechar 0
AnchorPoint: "Anchor-0" 380 741 basechar 0
LayerCount: 2
Fore
SplineSet
162 411 m 1,0,-1
 577 411 l 1,1,-1
 577 324 l 1,2,-1
 162 324 l 1,3,-1
 162 411 l 1,0,-1
40 624 m 1,4,-1
 40 710 l 1,5,-1
 322 710 l 1,6,-1
 322 624 l 1,7,-1
 306 624 l 2,8,9
 290 624 290 624 275 623 c 128,-1,10
 260 622 260 622 251 620 c 128,-1,11
 242 618 242 618 242 614 c 2,12,-1
 412 392 l 1,13,-1
 424 388 l 1,14,-1
 628 120 l 2,15,16
 644 98 644 98 661 92 c 128,-1,17
 678 86 678 86 697 86 c 2,18,-1
 716 86 l 1,19,-1
 716 0 l 1,20,-1
 428 0 l 1,21,-1
 428 86 l 1,22,-1
 444 86 l 2,23,24
 461 86 461 86 476 87 c 128,-1,25
 491 88 491 88 500.5 90.5 c 128,-1,26
 510 93 510 93 510 96 c 2,27,-1
 326 338 l 1,28,-1
 314 342 l 1,29,-1
 124 590 l 2,30,31
 107 613 107 613 90 618.5 c 128,-1,32
 73 624 73 624 53 624 c 2,33,-1
 40 624 l 1,4,-1
28 0 m 1,34,-1
 28 86 l 1,35,-1
 47 86 l 2,36,37
 65 86 65 86 80.5 95.5 c 128,-1,38
 96 105 96 105 116 132 c 2,39,-1
 303 381 l 1,40,-1
 374 337 l 1,41,-1
 201 103 l 2,42,43
 201 99 201 99 211 95 c 128,-1,44
 221 91 221 91 235 88.5 c 128,-1,45
 249 86 249 86 260 86 c 2,46,-1
 278 86 l 1,47,-1
 278 0 l 1,48,-1
 28 0 l 1,34,-1
436 351 m 1,49,-1
 367 396 l 1,50,-1
 530 607 l 2,51,52
 530 612 530 612 519.5 616 c 128,-1,53
 509 620 509 620 495 622 c 128,-1,54
 481 624 481 624 468 624 c 2,55,-1
 454 624 l 1,56,-1
 454 710 l 1,57,-1
 700 710 l 1,58,-1
 700 624 l 1,59,-1
 687 624 l 2,60,61
 669 624 669 624 652.5 615 c 128,-1,62
 636 606 636 606 615 579 c 2,63,-1
 436 351 l 1,49,-1
EndSplineSet
EndChar

StartChar: a
Encoding: 97 97 322
Width: 608
GlyphClass: 2
Flags: W
AnchorPoint: "Anchor-2" 457 -10 basechar 0
AnchorPoint: "Anchor-1" 313 0 basechar 0
AnchorPoint: "Anchor-0" 282 566 basechar 0
LayerCount: 2
Fore
SplineSet
409 348 m 1,0,-1
 409 280 l 1,1,2
 344 269 344 269 301 258 c 128,-1,3
 258 247 258 247 231.5 235 c 128,-1,4
 205 223 205 223 192 209 c 128,-1,5
 179 195 179 195 174.5 178.5 c 128,-1,6
 170 162 170 162 170 141 c 0,7,8
 170 112 170 112 180 96.5 c 128,-1,9
 190 81 190 81 207 75 c 128,-1,10
 224 69 224 69 246 69 c 0,11,12
 273 69 273 69 298 80 c 128,-1,13
 323 91 323 91 349.5 117.5 c 128,-1,14
 376 144 376 144 407 189 c 1,15,-1
 411 126 l 1,16,17
 388 82 388 82 360.5 51 c 128,-1,18
 333 20 333 20 300.5 4 c 128,-1,19
 268 -12 268 -12 227 -12 c 0,20,21
 174 -12 174 -12 136.5 4.5 c 128,-1,22
 99 21 99 21 80 54 c 128,-1,23
 61 87 61 87 61 138 c 0,24,25
 61 181 61 181 77 213.5 c 128,-1,26
 93 246 93 246 132 270 c 128,-1,27
 171 294 171 294 238 313 c 128,-1,28
 305 332 305 332 409 348 c 1,0,-1
425 0 m 1,29,-1
 401 121 l 1,30,-1
 400 129 l 1,31,-1
 400 408 l 2,32,33
 400 434 400 434 392.5 452 c 128,-1,34
 385 470 385 470 362.5 479.5 c 128,-1,35
 340 489 340 489 293 489 c 0,36,37
 230 489 230 489 187.5 476.5 c 128,-1,38
 145 464 145 464 128 452 c 1,39,40
 128 458 128 458 133 468 c 128,-1,41
 138 478 138 478 147 489 c 128,-1,42
 156 500 156 500 168.5 507.5 c 128,-1,43
 181 515 181 515 196 514 c 1,44,-1
 196 386 l 1,45,-1
 91 386 l 1,46,-1
 91 526 l 1,47,48
 105 536 105 536 132.5 547.5 c 128,-1,49
 160 559 160 559 201.5 567.5 c 128,-1,50
 243 576 243 576 297 576 c 0,51,52
 345 576 345 576 384 567.5 c 128,-1,53
 423 559 423 559 451 542 c 128,-1,54
 479 525 479 525 494.5 497 c 128,-1,55
 510 469 510 469 510 430 c 2,56,-1
 510 133 l 2,57,58
 510 117 510 117 516 107.5 c 128,-1,59
 522 98 522 98 536.5 92.5 c 128,-1,60
 551 87 551 87 574 83 c 2,61,-1
 583 81 l 1,62,-1
 583 0 l 1,63,-1
 425 0 l 1,29,-1
EndSplineSet
Substitution2: "'ss06' Style Set 6 lookup 66 subtable" a.alt
EndChar

StartChar: aogonek
Encoding: 261 261 331
Width: 608
GlyphClass: 1
Flags: W
LayerCount: 2
Fore
SplineSet
256 -160 m 0,0,1
 256 -136 256 -136 265 -117 c 128,-1,2
 274 -98 274 -98 296 -78.5 c 128,-1,3
 318 -59 318 -59 357.5 -31 c 128,-1,4
 397 -3 397 -3 458 38 c 1,5,-1
 492 1 l 1,6,7
 456 -31 456 -31 432 -52.5 c 128,-1,8
 408 -74 408 -74 395 -89.5 c 128,-1,9
 382 -105 382 -105 376.5 -118 c 128,-1,10
 371 -131 371 -131 371 -147 c 0,11,12
 371 -162 371 -162 381.5 -172.5 c 128,-1,13
 392 -183 392 -183 413 -183 c 0,14,15
 441 -183 441 -183 460.5 -169.5 c 128,-1,16
 480 -156 480 -156 493 -140 c 1,17,-1
 536 -182 l 1,18,19
 511 -213 511 -213 476.5 -232.5 c 128,-1,20
 442 -252 442 -252 386 -252 c 256,21,22
 330 -252 330 -252 293 -230 c 128,-1,23
 256 -208 256 -208 256 -160 c 0,0,1
583 0 m 1,24,-1
 427 0 l 1,25,-1
 403 121 l 1,26,-1
 396 129 l 1,27,-1
 396 415 l 2,28,29
 396 440 396 440 389 457.5 c 128,-1,30
 382 475 382 475 360 484 c 128,-1,31
 338 493 338 493 293 493 c 0,32,33
 228 493 228 493 184.5 483.5 c 128,-1,34
 141 474 141 474 125 464 c 1,35,36
 125 468 125 468 130 476.5 c 128,-1,37
 135 485 135 485 144 493.5 c 128,-1,38
 153 502 153 502 165.5 508.5 c 128,-1,39
 178 515 178 515 192 514 c 1,40,-1
 192 386 l 1,41,-1
 87 386 l 1,42,-1
 87 526 l 1,43,44
 103 538 103 538 131 549 c 128,-1,45
 159 560 159 560 200.5 568 c 128,-1,46
 242 576 242 576 297 576 c 0,47,48
 344 576 344 576 382.5 567.5 c 128,-1,49
 421 559 421 559 449 542 c 128,-1,50
 477 525 477 525 491.5 497 c 128,-1,51
 506 469 506 469 506 430 c 2,52,-1
 506 126 l 2,53,54
 506 112 506 112 513 104.5 c 128,-1,55
 520 97 520 97 534.5 92.5 c 128,-1,56
 549 88 549 88 574 83 c 2,57,-1
 583 81 l 1,58,-1
 583 0 l 1,24,-1
56 138 m 0,59,60
 56 184 56 184 72 217 c 128,-1,61
 88 250 88 250 126.5 273.5 c 128,-1,62
 165 297 165 297 233 315.5 c 128,-1,63
 301 334 301 334 406 350 c 1,64,-1
 406 281 l 1,65,66
 340 270 340 270 296.5 259 c 128,-1,67
 253 248 253 248 226.5 236 c 128,-1,68
 200 224 200 224 186.5 210 c 128,-1,69
 173 196 173 196 169 179 c 128,-1,70
 165 162 165 162 165 142 c 0,71,72
 165 112 165 112 175.5 96.5 c 128,-1,73
 186 81 186 81 204 75 c 128,-1,74
 222 69 222 69 245 69 c 0,75,76
 271 69 271 69 296 79 c 128,-1,77
 321 89 321 89 348 113.5 c 128,-1,78
 375 138 375 138 404 181 c 1,79,-1
 409 120 l 1,80,81
 387 77 387 77 359 47 c 128,-1,82
 331 17 331 17 297 2.5 c 128,-1,83
 263 -12 263 -12 221 -12 c 0,84,85
 168 -12 168 -12 131 4.5 c 128,-1,86
 94 21 94 21 75 54 c 128,-1,87
 56 87 56 87 56 138 c 0,59,60
EndSplineSet
Substitution2: "'ss06' Style Set 6 lookup 66 subtable" aogonek.alt
EndChar

StartChar: acaron
Encoding: 462 462 332
Width: 608
GlyphClass: 1
Flags: W
LayerCount: 2
Fore
SplineSet
256 651 m 1,0,-1
 330 651 l 1,1,-1
 467 823 l 1,2,-1
 467 847 l 1,3,-1
 406 847 l 1,4,-1
 230 702 l 1,5,-1
 357 706 l 1,6,-1
 183 847 l 1,7,-1
 117 847 l 1,8,-1
 117 823 l 1,9,-1
 256 651 l 1,0,-1
409 348 m 1,10,-1
 409 280 l 1,11,12
 344 269 344 269 301 258 c 128,-1,13
 258 247 258 247 231.5 235 c 128,-1,14
 205 223 205 223 192 209 c 128,-1,15
 179 195 179 195 174.5 178.5 c 128,-1,16
 170 162 170 162 170 141 c 0,17,18
 170 112 170 112 180 96.5 c 128,-1,19
 190 81 190 81 207 75 c 128,-1,20
 224 69 224 69 246 69 c 0,21,22
 273 69 273 69 298 80 c 128,-1,23
 323 91 323 91 349.5 117.5 c 128,-1,24
 376 144 376 144 407 189 c 1,25,-1
 411 126 l 1,26,27
 388 82 388 82 360.5 51 c 128,-1,28
 333 20 333 20 300.5 4 c 128,-1,29
 268 -12 268 -12 227 -12 c 0,30,31
 174 -12 174 -12 136.5 4.5 c 128,-1,32
 99 21 99 21 80 54 c 128,-1,33
 61 87 61 87 61 138 c 0,34,35
 61 181 61 181 77 213.5 c 128,-1,36
 93 246 93 246 132 270 c 128,-1,37
 171 294 171 294 238 313 c 128,-1,38
 305 332 305 332 409 348 c 1,10,-1
425 0 m 1,39,-1
 401 121 l 1,40,-1
 400 129 l 1,41,-1
 400 408 l 2,42,43
 400 434 400 434 392.5 452 c 128,-1,44
 385 470 385 470 362.5 479.5 c 128,-1,45
 340 489 340 489 293 489 c 0,46,47
 230 489 230 489 187.5 476.5 c 128,-1,48
 145 464 145 464 128 452 c 1,49,50
 128 458 128 458 133 468 c 128,-1,51
 138 478 138 478 147 489 c 128,-1,52
 156 500 156 500 168.5 507.5 c 128,-1,53
 181 515 181 515 196 514 c 1,54,-1
 196 386 l 1,55,-1
 91 386 l 1,56,-1
 91 526 l 1,57,58
 105 536 105 536 132.5 547.5 c 128,-1,59
 160 559 160 559 201.5 567.5 c 128,-1,60
 243 576 243 576 297 576 c 0,61,62
 345 576 345 576 384 567.5 c 128,-1,63
 423 559 423 559 451 542 c 128,-1,64
 479 525 479 525 494.5 497 c 128,-1,65
 510 469 510 469 510 430 c 2,66,-1
 510 133 l 2,67,68
 510 117 510 117 516 107.5 c 128,-1,69
 522 98 522 98 536.5 92.5 c 128,-1,70
 551 87 551 87 574 83 c 2,71,-1
 583 81 l 1,72,-1
 583 0 l 1,73,-1
 425 0 l 1,39,-1
EndSplineSet
Substitution2: "'ss06' Style Set 6 lookup 66 subtable" acaron.alt
EndChar

StartChar: adblgrave
Encoding: 513 513 334
Width: 608
GlyphClass: 1
Flags: W
LayerCount: 2
Fore
SplineSet
408 804 m 2,0,-1
 438 692 l 1,1,-1
 436 658 l 1,2,-1
 392 658 l 1,3,-1
 315 739 l 2,4,5
 296 759 296 759 286 776.5 c 128,-1,6
 276 794 276 794 276 815 c 0,7,8
 276 841 276 841 291 856.5 c 128,-1,9
 306 872 306 872 333 872 c 0,10,11
 363 872 363 872 382 853 c 128,-1,12
 401 834 401 834 408 804 c 2,0,-1
210 804 m 2,13,-1
 238 692 l 1,14,-1
 238 658 l 1,15,-1
 194 658 l 1,16,-1
 117 739 l 2,17,18
 98 759 98 759 88 776.5 c 128,-1,19
 78 794 78 794 78 815 c 0,20,21
 78 841 78 841 93 856.5 c 128,-1,22
 108 872 108 872 134 872 c 0,23,24
 165 872 165 872 183.5 853 c 128,-1,25
 202 834 202 834 210 804 c 2,13,-1
409 348 m 1,26,-1
 409 280 l 1,27,28
 344 269 344 269 301 258 c 128,-1,29
 258 247 258 247 231.5 235 c 128,-1,30
 205 223 205 223 192 209 c 128,-1,31
 179 195 179 195 174.5 178.5 c 128,-1,32
 170 162 170 162 170 141 c 0,33,34
 170 112 170 112 180 96.5 c 128,-1,35
 190 81 190 81 207 75 c 128,-1,36
 224 69 224 69 246 69 c 0,37,38
 273 69 273 69 298 80 c 128,-1,39
 323 91 323 91 349.5 117.5 c 128,-1,40
 376 144 376 144 407 189 c 1,41,-1
 411 126 l 1,42,43
 388 82 388 82 360.5 51 c 128,-1,44
 333 20 333 20 300.5 4 c 128,-1,45
 268 -12 268 -12 227 -12 c 0,46,47
 174 -12 174 -12 136.5 4.5 c 128,-1,48
 99 21 99 21 80 54 c 128,-1,49
 61 87 61 87 61 138 c 0,50,51
 61 181 61 181 77 213.5 c 128,-1,52
 93 246 93 246 132 270 c 128,-1,53
 171 294 171 294 238 313 c 128,-1,54
 305 332 305 332 409 348 c 1,26,-1
425 0 m 1,55,-1
 401 121 l 1,56,-1
 400 129 l 1,57,-1
 400 408 l 2,58,59
 400 434 400 434 392.5 452 c 128,-1,60
 385 470 385 470 362.5 479.5 c 128,-1,61
 340 489 340 489 293 489 c 0,62,63
 230 489 230 489 187.5 476.5 c 128,-1,64
 145 464 145 464 128 452 c 1,65,66
 128 458 128 458 133 468 c 128,-1,67
 138 478 138 478 147 489 c 128,-1,68
 156 500 156 500 168.5 507.5 c 128,-1,69
 181 515 181 515 196 514 c 1,70,-1
 196 386 l 1,71,-1
 91 386 l 1,72,-1
 91 526 l 1,73,74
 105 536 105 536 132.5 547.5 c 128,-1,75
 160 559 160 559 201.5 567.5 c 128,-1,76
 243 576 243 576 297 576 c 0,77,78
 345 576 345 576 384 567.5 c 128,-1,79
 423 559 423 559 451 542 c 128,-1,80
 479 525 479 525 494.5 497 c 128,-1,81
 510 469 510 469 510 430 c 2,82,-1
 510 133 l 2,83,84
 510 117 510 117 516 107.5 c 128,-1,85
 522 98 522 98 536.5 92.5 c 128,-1,86
 551 87 551 87 574 83 c 2,87,-1
 583 81 l 1,88,-1
 583 0 l 1,89,-1
 425 0 l 1,55,-1
EndSplineSet
Substitution2: "'ss06' Style Set 6 lookup 66 subtable" adblgrave.alt
EndChar

StartChar: ainvertedbreve
Encoding: 515 515 335
Width: 608
GlyphClass: 1
Flags: W
LayerCount: 2
Fore
SplineSet
288 833 m 0,0,1
 229 833 229 833 192 817 c 128,-1,2
 155 801 155 801 138 763.5 c 128,-1,3
 121 726 121 726 121 662 c 1,4,-1
 205 662 l 1,5,6
 207 700 207 700 213 718.5 c 128,-1,7
 219 737 219 737 235.5 743.5 c 128,-1,8
 252 750 252 750 285 750 c 256,9,10
 318 750 318 750 334.5 743.5 c 128,-1,11
 351 737 351 737 358 718.5 c 128,-1,12
 365 700 365 700 366 662 c 1,13,-1
 455 662 l 1,14,15
 456 726 456 726 438.5 763.5 c 128,-1,16
 421 801 421 801 383.5 817 c 128,-1,17
 346 833 346 833 288 833 c 0,0,1
409 348 m 1,18,-1
 409 280 l 1,19,20
 344 269 344 269 301 258 c 128,-1,21
 258 247 258 247 231.5 235 c 128,-1,22
 205 223 205 223 192 209 c 128,-1,23
 179 195 179 195 174.5 178.5 c 128,-1,24
 170 162 170 162 170 141 c 0,25,26
 170 112 170 112 180 96.5 c 128,-1,27
 190 81 190 81 207 75 c 128,-1,28
 224 69 224 69 246 69 c 0,29,30
 273 69 273 69 298 80 c 128,-1,31
 323 91 323 91 349.5 117.5 c 128,-1,32
 376 144 376 144 407 189 c 1,33,-1
 411 126 l 1,34,35
 388 82 388 82 360.5 51 c 128,-1,36
 333 20 333 20 300.5 4 c 128,-1,37
 268 -12 268 -12 227 -12 c 0,38,39
 174 -12 174 -12 136.5 4.5 c 128,-1,40
 99 21 99 21 80 54 c 128,-1,41
 61 87 61 87 61 138 c 0,42,43
 61 181 61 181 77 213.5 c 128,-1,44
 93 246 93 246 132 270 c 128,-1,45
 171 294 171 294 238 313 c 128,-1,46
 305 332 305 332 409 348 c 1,18,-1
425 0 m 1,47,-1
 401 121 l 1,48,-1
 400 129 l 1,49,-1
 400 408 l 2,50,51
 400 434 400 434 392.5 452 c 128,-1,52
 385 470 385 470 362.5 479.5 c 128,-1,53
 340 489 340 489 293 489 c 0,54,55
 230 489 230 489 187.5 476.5 c 128,-1,56
 145 464 145 464 128 452 c 1,57,58
 128 458 128 458 133 468 c 128,-1,59
 138 478 138 478 147 489 c 128,-1,60
 156 500 156 500 168.5 507.5 c 128,-1,61
 181 515 181 515 196 514 c 1,62,-1
 196 386 l 1,63,-1
 91 386 l 1,64,-1
 91 526 l 1,65,66
 105 536 105 536 132.5 547.5 c 128,-1,67
 160 559 160 559 201.5 567.5 c 128,-1,68
 243 576 243 576 297 576 c 0,69,70
 345 576 345 576 384 567.5 c 128,-1,71
 423 559 423 559 451 542 c 128,-1,72
 479 525 479 525 494.5 497 c 128,-1,73
 510 469 510 469 510 430 c 2,74,-1
 510 133 l 2,75,76
 510 117 510 117 516 107.5 c 128,-1,77
 522 98 522 98 536.5 92.5 c 128,-1,78
 551 87 551 87 574 83 c 2,79,-1
 583 81 l 1,80,-1
 583 0 l 1,81,-1
 425 0 l 1,47,-1
EndSplineSet
Substitution2: "'ss06' Style Set 6 lookup 66 subtable" ainvertedbreve.alt
EndChar

StartChar: b
Encoding: 98 98 348
Width: 675
GlyphClass: 2
Flags: W
AnchorPoint: "Anchor-1" 349 0 basechar 0
AnchorPoint: "Anchor-0" 329 755 basechar 0
LayerCount: 2
Fore
SplineSet
384 -13 m 0,0,1
 337 -13 337 -13 299.5 5 c 128,-1,2
 262 23 262 23 233 56.5 c 128,-1,3
 204 90 204 90 181 136 c 1,4,-1
 187 194 l 1,5,6
 215 155 215 155 242.5 129.5 c 128,-1,7
 270 104 270 104 301 92 c 128,-1,8
 332 80 332 80 370 80 c 0,9,10
 405 80 405 80 431.5 92 c 128,-1,11
 458 104 458 104 476 129.5 c 128,-1,12
 494 155 494 155 503.5 194 c 128,-1,13
 513 233 513 233 513 286 c 0,14,15
 513 337 513 337 504.5 374 c 128,-1,16
 496 411 496 411 479.5 435 c 128,-1,17
 463 459 463 459 437.5 471 c 128,-1,18
 412 483 412 483 378 483 c 0,19,20
 338 483 338 483 305.5 471.5 c 128,-1,21
 273 460 273 460 244 434.5 c 128,-1,22
 215 409 215 409 185 368 c 1,23,-1
 182 425 l 1,24,25
 207 472 207 472 237.5 505.5 c 128,-1,26
 268 539 268 539 307 557.5 c 128,-1,27
 346 576 346 576 395 576 c 0,28,29
 473 576 473 576 524.5 539 c 128,-1,30
 576 502 576 502 602 437 c 128,-1,31
 628 372 628 372 628 286 c 256,32,33
 628 200 628 200 600 132.5 c 128,-1,34
 572 65 572 65 517.5 26 c 128,-1,35
 463 -13 463 -13 384 -13 c 0,0,1
94 653 m 2,36,37
 94 667 94 667 86.5 674.5 c 128,-1,38
 79 682 79 682 64.5 687 c 128,-1,39
 50 692 50 692 30 696 c 2,40,-1
 21 698 l 1,41,-1
 21 780 l 1,42,-1
 205 780 l 1,43,-1
 205 123 l 1,44,-1
 206 122 l 1,45,-1
 172 -19 l 1,46,-1
 94 -19 l 1,47,-1
 94 653 l 2,36,37
EndSplineSet
EndChar

StartChar: c
Encoding: 99 99 349
Width: 576
GlyphClass: 2
Flags: W
AnchorPoint: "Anchor-1" 319 0 basechar 0
AnchorPoint: "Anchor-0" 308 566 basechar 0
LayerCount: 2
Fore
SplineSet
328 76 m 0,0,1
 367 76 367 76 393 85 c 128,-1,2
 419 94 419 94 438 113 c 128,-1,3
 457 132 457 132 473 160 c 1,4,-1
 537 115 l 1,5,6
 520 75 520 75 488 46.5 c 128,-1,7
 456 18 456 18 414 2.5 c 128,-1,8
 372 -13 372 -13 324 -13 c 0,9,10
 237 -13 237 -13 175 21.5 c 128,-1,11
 113 56 113 56 80 122 c 128,-1,12
 47 188 47 188 47 282 c 256,13,14
 47 376 47 376 79.5 441.5 c 128,-1,15
 112 507 112 507 174 541.5 c 128,-1,16
 236 576 236 576 324 576 c 0,17,18
 377 576 377 576 416 570 c 128,-1,19
 455 564 455 564 480.5 556 c 128,-1,20
 506 548 506 548 517 542 c 1,21,-1
 517 362 l 1,22,-1
 407 362 l 1,23,-1
 407 510 l 1,24,25
 417 510 417 510 427 503.5 c 128,-1,26
 437 497 437 497 445 487 c 128,-1,27
 453 477 453 477 458.5 469 c 128,-1,28
 464 461 464 461 465 458 c 1,29,30
 442 469 442 469 407 478.5 c 128,-1,31
 372 488 372 488 327 488 c 0,32,33
 268 488 268 488 231.5 465 c 128,-1,34
 195 442 195 442 178.5 396.5 c 128,-1,35
 162 351 162 351 162 282 c 0,36,37
 162 227 162 227 171 188 c 128,-1,38
 180 149 180 149 199.5 123.5 c 128,-1,39
 219 98 219 98 251 87 c 128,-1,40
 283 76 283 76 328 76 c 0,0,1
EndSplineSet
EndChar

StartChar: ccaron
Encoding: 269 269 354
Width: 576
GlyphClass: 1
Flags: W
LayerCount: 2
Fore
SplineSet
272 651 m 1,0,-1
 346 651 l 1,1,-1
 484 823 l 1,2,-1
 484 847 l 1,3,-1
 422 847 l 1,4,-1
 246 702 l 1,5,-1
 373 706 l 1,6,-1
 199 847 l 1,7,-1
 133 847 l 1,8,-1
 133 823 l 1,9,-1
 272 651 l 1,0,-1
328 76 m 0,10,11
 367 76 367 76 393 85 c 128,-1,12
 419 94 419 94 438 113 c 128,-1,13
 457 132 457 132 473 160 c 1,14,-1
 537 115 l 1,15,16
 520 75 520 75 488 46.5 c 128,-1,17
 456 18 456 18 414 2.5 c 128,-1,18
 372 -13 372 -13 324 -13 c 0,19,20
 237 -13 237 -13 175 21.5 c 128,-1,21
 113 56 113 56 80 122 c 128,-1,22
 47 188 47 188 47 282 c 256,23,24
 47 376 47 376 79.5 441.5 c 128,-1,25
 112 507 112 507 174 541.5 c 128,-1,26
 236 576 236 576 324 576 c 0,27,28
 377 576 377 576 416 570 c 128,-1,29
 455 564 455 564 480.5 556 c 128,-1,30
 506 548 506 548 517 542 c 1,31,-1
 517 362 l 1,32,-1
 407 362 l 1,33,-1
 407 510 l 1,34,35
 417 510 417 510 427 503.5 c 128,-1,36
 437 497 437 497 445 487 c 128,-1,37
 453 477 453 477 458.5 469 c 128,-1,38
 464 461 464 461 465 458 c 1,39,40
 442 469 442 469 407 478.5 c 128,-1,41
 372 488 372 488 327 488 c 0,42,43
 268 488 268 488 231.5 465 c 128,-1,44
 195 442 195 442 178.5 396.5 c 128,-1,45
 162 351 162 351 162 282 c 0,46,47
 162 227 162 227 171 188 c 128,-1,48
 180 149 180 149 199.5 123.5 c 128,-1,49
 219 98 219 98 251 87 c 128,-1,50
 283 76 283 76 328 76 c 0,10,11
EndSplineSet
EndChar

StartChar: d
Encoding: 100 100 356
Width: 683
GlyphClass: 2
Flags: W
AnchorPoint: "Anchor-2" 647 735 basechar 0
AnchorPoint: "Anchor-1" 319 0 basechar 0
LayerCount: 2
Fore
SplineSet
580 125 m 2,0,1
 580 104 580 104 598 97 c 128,-1,2
 616 90 616 90 645 82 c 2,3,-1
 654 80 l 1,4,-1
 654 0 l 1,5,-1
 502 0 l 1,6,-1
 478 129 l 1,7,-1
 470 121 l 1,8,-1
 470 653 l 2,9,10
 470 667 470 667 461.5 674 c 128,-1,11
 453 681 453 681 437 686 c 128,-1,12
 421 691 421 691 396 696 c 2,13,-1
 387 698 l 1,14,-1
 387 780 l 1,15,-1
 580 780 l 1,16,-1
 580 125 l 2,0,1
291 576 m 0,17,18
 337 576 337 576 373.5 558 c 128,-1,19
 410 540 410 540 439.5 507 c 128,-1,20
 469 474 469 474 492 427 c 1,21,-1
 487 371 l 1,22,23
 460 409 460 409 432.5 434 c 128,-1,24
 405 459 405 459 374 471 c 128,-1,25
 343 483 343 483 306 483 c 0,26,27
 271 483 271 483 244.5 471 c 128,-1,28
 218 459 218 459 199.5 433.5 c 128,-1,29
 181 408 181 408 171.5 369.5 c 128,-1,30
 162 331 162 331 162 277 c 0,31,32
 162 227 162 227 170.5 189.5 c 128,-1,33
 179 152 179 152 195.5 127.5 c 128,-1,34
 212 103 212 103 237.5 91.5 c 128,-1,35
 263 80 263 80 297 80 c 0,36,37
 337 80 337 80 369.5 91.5 c 128,-1,38
 402 103 402 103 431.5 128.5 c 128,-1,39
 461 154 461 154 490 194 c 1,40,-1
 492 137 l 1,41,42
 468 91 468 91 437.5 57 c 128,-1,43
 407 23 407 23 368 5 c 128,-1,44
 329 -13 329 -13 279 -13 c 0,45,46
 202 -13 202 -13 150 24 c 128,-1,47
 98 61 98 61 72.5 126.5 c 128,-1,48
 47 192 47 192 47 277 c 0,49,50
 47 363 47 363 75 430.5 c 128,-1,51
 103 498 103 498 157.5 537 c 128,-1,52
 212 576 212 576 291 576 c 0,17,18
EndSplineSet
EndChar

StartChar: e
Encoding: 101 101 360
Width: 588
GlyphClass: 2
Flags: W
AnchorPoint: "Anchor-2" 465 1 basechar 0
AnchorPoint: "Anchor-1" 323 0 basechar 0
AnchorPoint: "Anchor-0" 300 566 basechar 0
LayerCount: 2
Fore
SplineSet
157 277 m 0,0,1
 157 215 157 215 170.5 176 c 128,-1,2
 184 137 184 137 207.5 114.5 c 128,-1,3
 231 92 231 92 261.5 83.5 c 128,-1,4
 292 75 292 75 326 75 c 0,5,6
 366 75 366 75 393 85 c 128,-1,7
 420 95 420 95 440 114 c 128,-1,8
 460 133 460 133 477 160 c 1,9,-1
 543 114 l 1,10,11
 524 76 524 76 491 47 c 128,-1,12
 458 18 458 18 414.5 2.5 c 128,-1,13
 371 -13 371 -13 320 -13 c 0,14,15
 242 -13 242 -13 180 19 c 128,-1,16
 118 51 118 51 82.5 115.5 c 128,-1,17
 47 180 47 180 47 276 c 0,18,19
 47 368 47 368 78.5 435 c 128,-1,20
 110 502 110 502 168.5 539 c 128,-1,21
 227 576 227 576 305 576 c 0,22,23
 366 576 366 576 410.5 555.5 c 128,-1,24
 455 535 455 535 483.5 494 c 128,-1,25
 512 453 512 453 526.5 391 c 128,-1,26
 541 329 541 329 541 245 c 1,27,-1
 112 245 l 1,28,-1
 112 326 l 1,29,-1
 456 326 l 1,30,-1
 433 293 l 1,31,32
 431 350 431 350 423 388.5 c 128,-1,33
 415 427 415 427 400 449.5 c 128,-1,34
 385 472 385 472 361.5 481 c 128,-1,35
 338 490 338 490 305 490 c 256,36,37
 272 490 272 490 244.5 478.5 c 128,-1,38
 217 467 217 467 197.5 442 c 128,-1,39
 178 417 178 417 167.5 376 c 128,-1,40
 157 335 157 335 157 277 c 0,0,1
EndSplineSet
EndChar

StartChar: eogonek
Encoding: 281 281 368
Width: 588
GlyphClass: 1
Flags: W
LayerCount: 2
Fore
SplineSet
406 42 m 1,0,-1
 407 0 l 1,1,2
 387 -6 387 -6 366 -9.5 c 128,-1,3
 345 -13 345 -13 322 -13 c 0,4,5
 243 -13 243 -13 180.5 19 c 128,-1,6
 118 51 118 51 82.5 115.5 c 128,-1,7
 47 180 47 180 47 276 c 0,8,9
 47 368 47 368 78.5 435 c 128,-1,10
 110 502 110 502 168.5 539 c 128,-1,11
 227 576 227 576 305 576 c 0,12,13
 366 576 366 576 410.5 555.5 c 128,-1,14
 455 535 455 535 483.5 494.5 c 128,-1,15
 512 454 512 454 526.5 392.5 c 128,-1,16
 541 331 541 331 541 248 c 1,17,-1
 118 248 l 1,18,-1
 118 326 l 1,19,-1
 456 326 l 1,20,-1
 433 293 l 1,21,22
 431 351 431 351 423 389 c 128,-1,23
 415 427 415 427 400 449.5 c 128,-1,24
 385 472 385 472 362 481.5 c 128,-1,25
 339 491 339 491 305 491 c 0,26,27
 272 491 272 491 244.5 479.5 c 128,-1,28
 217 468 217 468 197.5 442.5 c 128,-1,29
 178 417 178 417 167.5 376 c 128,-1,30
 157 335 157 335 157 277 c 0,31,32
 157 215 157 215 170 175.5 c 128,-1,33
 183 136 183 136 206.5 114 c 128,-1,34
 230 92 230 92 260.5 83.5 c 128,-1,35
 291 75 291 75 325 75 c 0,36,37
 367 75 367 75 394.5 85 c 128,-1,38
 422 95 422 95 442.5 114 c 128,-1,39
 463 133 463 133 479 161 c 1,40,-1
 543 114 l 1,41,42
 531 91 531 91 513.5 70.5 c 128,-1,43
 496 50 496 50 468 29 c 256,44,45
 440 8 440 8 414 -15.5 c 128,-1,46
 388 -39 388 -39 366.5 -63 c 128,-1,47
 345 -87 345 -87 333 -108.5 c 128,-1,48
 321 -130 321 -130 321 -147 c 0,49,50
 321 -163 321 -163 331 -173 c 128,-1,51
 341 -183 341 -183 362 -183 c 0,52,53
 389 -183 389 -183 409 -169 c 128,-1,54
 429 -155 429 -155 442 -140 c 1,55,-1
 485 -183 l 1,56,57
 459 -213 459 -213 424.5 -232.5 c 128,-1,58
 390 -252 390 -252 337 -252 c 0,59,60
 300 -252 300 -252 270 -242 c 128,-1,61
 240 -232 240 -232 223 -211.5 c 128,-1,62
 206 -191 206 -191 206 -160 c 0,63,64
 206 -136 206 -136 214.5 -116.5 c 128,-1,65
 223 -97 223 -97 245 -75.5 c 128,-1,66
 267 -54 267 -54 306 -26.5 c 128,-1,67
 345 1 345 1 406 42 c 1,0,-1
EndSplineSet
EndChar

